<svg xmlns="http://www.w3.org/2000/svg" width="24" height="24" fill="currentColor" viewBox="0 0 24 24">
  <g clip-path="url(#a)">
    <path d="m7.697 20.813-4.51-4.51c-.047-.046-.047-.108 0-.154C4.14 15.194 13.7 5.619 18.518.8c1.078-1.078 2.325-1.078 3.403.015.477.477.954.939 1.416 1.416.877.924.877 2.217 0 3.11C18.442 10.237 8.805 19.859 7.85 20.813c-.046.047-.108.047-.154 0ZM0 23.892c.754-2.263 1.493-4.449 2.217-6.62.015-.06.107-.092.154-.03l4.403 4.403c.046.046.03.138-.031.154-2.17.723-4.357 1.462-6.62 2.216-.077.016-.138-.061-.123-.123Z"/>
  </g>
  <defs>
    <clipPath id="a">
      <path d="M0 0h24v24H0z"/>
    </clipPath>
  </defs>
</svg>
