<svg xmlns="http://www.w3.org/2000/svg" width="24" height="24" fill="currentColor" viewBox="0 0 24 24">
  <g clip-path="url(#a)">
    <path d="m12.414 16 2-2L13 12.586l-2 2L9.414 13l2-2L10 9.586l-2 2-1.329-1.328a1 1 0 0 0-1.414 0l-1.5 1.5a5.99 5.99 0 0 0-.644 7.715l-2.82 2.82a1 1 0 1 0 1.414 1.414l2.82-2.82a5.988 5.988 0 0 0 7.716-.645l1.5-1.5a1 1 0 0 0 0-1.414L12.414 16Zm4.916-2.258a1 1 0 0 0 1.413 0l1.5-1.5a5.989 5.989 0 0 0 .644-7.715l2.82-2.82a.998.998 0 0 0-.703-1.72 1 1 0 0 0-.71.306l-2.82 2.82a5.989 5.989 0 0 0-7.717.645l-1.5 1.5a1 1 0 0 0 0 1.414l7.072 7.07Z"/>
  </g>
  <defs>
    <clipPath id="a">
      <path d="M0 0h24v24H0z"/>
    </clipPath>
  </defs>
</svg>
