<svg xmlns="http://www.w3.org/2000/svg" width="24" height="24" fill="currentColor" viewBox="0 0 24 24">
  <g clip-path="url(#a)">
    <path d="M23 13.5v-3l-3.248-.443a7.925 7.925 0 0 0-.9-2.165l1.984-2.61-2.118-2.121-2.61 1.984a7.927 7.927 0 0 0-2.165-.9L13.5 1h-3l-.443 3.248a7.927 7.927 0 0 0-2.165.9l-2.61-1.987-2.121 2.121 1.984 2.61a7.927 7.927 0 0 0-.9 2.165L1 10.5v3l3.248.443c.191.762.494 1.492.9 2.165l-1.984 2.61 2.121 2.121 2.61-1.984a7.925 7.925 0 0 0 2.165.9L10.5 23h3l.443-3.248a7.925 7.925 0 0 0 2.165-.9l2.61 1.984 2.121-2.121-1.984-2.61a7.925 7.925 0 0 0 .9-2.165L23 13.5Z"/>
    <path d="M12 15a3 3 0 1 0 0-6 3 3 0 0 0 0 6Z"/>
  </g>
  <defs>
    <clipPath id="a">
      <path d="M0 0h24v24H0z"/>
    </clipPath>
  </defs>
</svg>
