<svg xmlns="http://www.w3.org/2000/svg" width="24" height="24" fill="currentColor" viewBox="0 0 24 24">
  <g clip-path="url(#a)">
    <path d="M23 0H7a1 1 0 0 0-1 1v16H3c-1.654 0-3 1.346-3 3v4h14v-3.583c0-.808.645-1.417 1.5-1.417.723 0 1.5.47 1.5 1.5 0 1.93 1.57 3.5 3.5 3.5s3.5-1.57 3.5-3.5V1a1 1 0 0 0-1-1ZM12 20.417V22H2v-2a1 1 0 0 1 1-1h9.304c-.196.43-.304.909-.304 1.417ZM20 13H10v-2h10v2Zm0-6H10V5h10v2Z"/>
  </g>
  <defs>
    <clipPath id="a">
      <path d="M0 0h24v24H0z"/>
    </clipPath>
  </defs>
</svg>
