<svg xmlns="http://www.w3.org/2000/svg" width="24" height="24" fill="currentColor" viewBox="0 0 24 24">
  <g clip-path="url(#a)">
    <path d="M17.5 13a3.5 3.5 0 1 0 0-7 3.5 3.5 0 0 0 0 7Zm-8-6a3.5 3.5 0 1 0 0-7 3.5 3.5 0 0 0 0 7Zm13.496 10.908C22.903 16.902 21.949 15 19 15h-5.002A4.994 4.994 0 0 0 10 13H7.472C5.94 11.372 3.06 11 2 11H0v8.618l7.369 3.685a4.006 4.006 0 0 0 3.226.156l12.471-4.797-.07-.754ZM9.877 21.592a2.005 2.005 0 0 1-1.613-.078L2 18.382V13c1.074 0 3.402.462 4.181 1.573l.298.427H10c1.304 0 2.416.836 2.829 2H7v2h8v-1c0-.343-.034-.677-.101-1H19c.848 0 1.338.217 1.622.459L9.877 21.592Z"/>
  </g>
  <defs>
    <clipPath id="a">
      <path d="M0 0h24v24H0z"/>
    </clipPath>
  </defs>
</svg>
