<svg xmlns="http://www.w3.org/2000/svg" width="24" height="24" fill="currentColor" viewBox="0 0 24 24">
  <g clip-path="url(#a)">
    <path d="M24 14v-4l-3.338-.417a8.937 8.937 0 0 0-.826-2L21.9 4.929 19.071 2.1l-2.653 2.064a8.933 8.933 0 0 0-2-.826L14 0h-4l-.417 3.338a8.87 8.87 0 0 0-2 .826L4.929 2.1 2.1 4.929l2.064 2.653a8.934 8.934 0 0 0-.826 2L0 10v4l3.338.417c.193.698.47 1.37.826 2L2.1 19.071 4.929 21.9l2.653-2.063c.63.355 1.302.633 2 .826L10 24h4l.417-3.338a8.936 8.936 0 0 0 2-.826l2.654 2.064 2.829-2.829-2.063-2.653c.355-.63.633-1.302.826-2L24 14Zm-12 2a4 4 0 1 1 0-8 4 4 0 0 1 0 8Z"/>
  </g>
  <defs>
    <clipPath id="a">
      <path d="M0 0h24v24H0z"/>
    </clipPath>
  </defs>
</svg>
