<svg xmlns="http://www.w3.org/2000/svg" width="40" height="30" fill="none" viewBox="0 0 40 30">
  <rect width="40" height="30" fill="#fff" rx="2"/>
  <mask id="a" width="40" height="30" x="0" y="0" maskUnits="userSpaceOnUse" style="mask-type:luminance">
    <rect width="40" height="30" fill="#fff" rx="2"/>
  </mask>
  <g mask="url(#a)">
    <path fill="#F1361D" d="M0 0h40v30H0z"/>
    <path fill="#FFDC42" fill-rule="evenodd" d="m14.39 4.651 1.383.248 1.038.992.236-1.453.945-1.09-1.384-.247-1.038-.992-.235 1.453-.945 1.09Zm3.705 5.081 1.2-.766L20.696 9l-.73-1.259L20 6.268l-1.199.766L17.398 7l.73 1.259-.033 1.473Zm-1.626 8.224-1.173.81-.016-1.474-.771-1.231 1.403-.017 1.173-.81.016 1.474.771 1.23-1.403.018Zm1.018-3.809 1.395-.162 1.258.653-.154-1.464.622-1.321-1.395.162-1.258-.653.155 1.464-.622 1.321ZM9.524 12.34l-3.359 2.514 1.24-4.13-3.316-2.578 4.125-.04L9.524 4l1.31 4.107 4.125.039-3.316 2.577 1.24 4.131-3.36-2.514Z" clip-rule="evenodd"/>
  </g>
</svg>
