<svg xmlns="http://www.w3.org/2000/svg" width="100" height="100" fill="none" viewBox="0 0 100 100">
  <path fill="#3629B7" fill-rule="evenodd" d="M100 83.79V72.558a2.54 2.54 0 0 0-5.078 0v11.23c0 6.139-4.994 11.133-11.133 11.133H72.56a2.54 2.54 0 1 0 0 5.078h11.23C92.728 100 100 92.728 100 83.79ZM29.98 97.46a2.54 2.54 0 0 0-2.539-2.538h-11.23c-6.139 0-11.133-4.994-11.133-11.133V72.56a2.54 2.54 0 0 0-5.078 0v11.23C0 92.728 7.272 100 16.21 100h11.231a2.54 2.54 0 0 0 2.54-2.54ZM5.079 27.442v-11.23c0-6.139 4.994-11.133 11.133-11.133h11.23a2.54 2.54 0 0 0 0-5.078h-11.23C7.272 0 0 7.272 0 16.21v11.231a2.54 2.54 0 0 0 5.078 0Zm94.922 0v-11.23C100 7.272 92.728 0 83.79 0H72.558a2.54 2.54 0 0 0 0 5.078h11.23c6.139 0 11.133 4.994 11.133 11.133v11.23a2.54 2.54 0 1 0 5.078 0ZM67.522 73.91a2.637 2.637 0 0 0-3.578-3.874A20.492 20.492 0 0 1 50 75.488a20.492 20.492 0 0 1-13.944-5.452 2.637 2.637 0 0 0-3.578 3.874A25.752 25.752 0 0 0 50 80.762a25.752 25.752 0 0 0 17.522-6.852ZM55.273 56.445v-18.75a2.637 2.637 0 1 0-5.273 0v18.75c0 .808-.657 1.465-1.465 1.465h-2.148a2.637 2.637 0 1 0 0 5.274h2.148a6.746 6.746 0 0 0 6.738-6.739Zm18.164-11.377v-7.52a2.49 2.49 0 1 0-4.98 0v7.52a2.49 2.49 0 0 0 4.98 0Zm-43.798 2.49a2.49 2.49 0 0 1-2.49-2.49v-7.52a2.49 2.49 0 0 1 4.98 0v7.52a2.49 2.49 0 0 1-2.49 2.49Z" clip-rule="evenodd"/>
</svg>
