<svg xmlns="http://www.w3.org/2000/svg" width="100" height="100" fill="none" viewBox="0 0 100 100">
  <path fill="#3629B7" fill-rule="evenodd" d="M100 50.112c0-3.18-.296-6.283-.907-9.486l-.239-1.232h-.032C96.09 27.352 88.92 16.47 79.004 9.386a1.519 1.519 0 0 0-2.118.35 1.514 1.514 0 0 0 .349 2.114c9.627 6.879 16.502 17.579 18.871 29.356l.062.308c.538 2.901.797 5.716.797 8.598 0 .837.678 1.515 1.517 1.515.84 0 1.518-.678 1.518-1.515ZM12.28 21.864c7-9.366 17.199-15.749 28.72-17.975a46.657 46.657 0 0 1 8.94-.859c7.185 0 14.112 1.608 20.596 4.776a1.515 1.515 0 1 0 1.334-2.721C64.967 1.71 57.59 0 49.939 0c-3.209 0-6.414.308-9.52.915-12.261 2.37-23.117 9.165-30.571 19.137a1.512 1.512 0 0 0 .308 2.12 1.518 1.518 0 0 0 2.125-.308Zm-9.21 40.9a1.517 1.517 0 0 0 1.124-1.828 6.813 6.813 0 0 0-.09-.33h.003l-.318-1.808c-2.028-10.24-.433-21.034 4.425-30.395.385-.742.173-1.657-.57-2.042-.746-.385-1.505-.094-1.89.648-5.147 9.917-7.425 21.35-4.39 32.212v.008c0 1.147-.085 1.568.079 2.044.035.103-.239.213-.2.372a1.52 1.52 0 0 0 1.474 1.163c.117-.004.236-.019.354-.044Zm35.904 35.125c12.131-16.142 15.85-30.537 12.445-48.136a1.517 1.517 0 0 0-2.98.576c3.275 16.894-.173 30.145-11.89 45.74a1.514 1.514 0 0 0 1.212 2.423c.46.005.916-.204 1.214-.603Zm6.643 1.191c11.853-16.73 15.372-31.829 11.76-50.475a7.54 7.54 0 0 0-3.206-4.847 7.527 7.527 0 0 0-5.683-1.157 7.537 7.537 0 0 0-4.846 3.199 7.526 7.526 0 0 0-1.16 5.683c1.352 6.984 1.356 13.293.015 19.288a1.514 1.514 0 0 0 1.15 1.808 1.514 1.514 0 0 0 1.812-1.149c1.434-6.407 1.435-13.124.003-20.526a4.528 4.528 0 0 1 .696-3.413 4.517 4.517 0 0 1 2.908-1.92 4.519 4.519 0 0 1 3.406.693 4.536 4.536 0 0 1 1.93 2.91c3.438 17.758.07 32.16-11.26 48.152a1.516 1.516 0 0 0 2.474 1.754Zm-12.76-3.18c4.554-5.834 7.847-11.245 10.066-16.546a1.515 1.515 0 0 0-.816-1.983 1.512 1.512 0 0 0-1.985.813c-2.113 5.049-5.272 10.234-9.657 15.85a1.51 1.51 0 0 0 .264 2.125c.277.216.605.32.931.32a1.5 1.5 0 0 0 1.198-.58Zm-5.614-2.685C38.126 79.648 41.83 68.66 40.025 55.29a1.524 1.524 0 0 0-1.708-1.299 1.515 1.515 0 0 0-1.3 1.705c1.706 12.62-1.7 22.61-12.141 35.624a1.51 1.51 0 0 0 .235 2.129c.279.224.614.333.948.333a1.509 1.509 0 0 0 1.184-.57Zm36.01-31.093c.839 0 1.507-.657 1.494-1.49-.065-4.266-.537-8.672-1.414-13.181-1.241-6.406-6.873-11.055-13.396-11.055-.873 0-1.75.085-2.606.25a13.578 13.578 0 0 0-8.722 5.76 13.596 13.596 0 0 0-2.034 4.765 1.515 1.515 0 0 0 1.164 1.8 1.52 1.52 0 0 0 1.803-1.162 10.6 10.6 0 0 1 1.583-3.711 10.558 10.558 0 0 1 6.784-4.482c.667-.129 1.35-.2 2.028-.2 5.071 0 9.452 3.606 10.417 8.588.84 4.336 1.296 8.585 1.358 12.673.013.828.688 1.447 1.518 1.447.006-.002.015-.002.023-.002Zm-10.486 37.19c6.592-10.135 10.375-20.078 11.563-30.396a1.514 1.514 0 0 0-1.334-1.677 1.515 1.515 0 0 0-1.68 1.332c-1.135 9.84-4.765 19.356-11.095 29.09a1.515 1.515 0 0 0 1.271 2.34c.496 0 .987-.242 1.275-.69Zm7.716-.913c9.686-16.574 12.488-33.13 8.812-52.102a19.748 19.748 0 0 0-9.434-13.275 1.514 1.514 0 1 0-1.532 2.614 16.724 16.724 0 0 1 7.988 11.236c3.525 18.21.842 34.097-8.453 50a1.516 1.516 0 0 0 2.62 1.528Zm-38.352-8.504c10.9-13.415 13.992-23.358 11.412-36.682a16.55 16.55 0 0 1 2.557-12.51 16.596 16.596 0 0 1 10.66-7.04 16.897 16.897 0 0 1 4.553-.245 1.514 1.514 0 1 0 .244-3.02 19.964 19.964 0 0 0-5.376.29 19.598 19.598 0 0 0-12.597 8.317 19.564 19.564 0 0 0-3.02 14.78c2.383 12.314-.541 21.582-10.79 34.195a1.512 1.512 0 0 0 .221 2.13c.281.228.62.341.955.341.443.004.88-.187 1.18-.557Zm46.618 6.064c2.27-4.537 4.099-9.214 5.436-13.903a1.516 1.516 0 0 0-1.044-1.872 1.514 1.514 0 0 0-1.875 1.043c-1.283 4.509-3.04 9.007-5.229 13.376a1.514 1.514 0 0 0 1.355 2.19 1.505 1.505 0 0 0 1.357-.834Zm7.245-21.94c1.496-9.129 1.254-18.576-.741-28.874-2.345-12.099-12.99-20.88-25.31-20.88-1.65 0-3.302.159-4.91.472-6.767 1.306-12.617 5.17-16.475 10.878-3.858 5.704-5.26 12.57-3.951 19.332.662 3.415.84 6.281.56 9.024a1.517 1.517 0 0 0 1.355 1.662c.847.068 1.578-.521 1.663-1.355.313-3.045.122-6.194-.598-9.909a22.572 22.572 0 0 1 3.486-17.059 22.601 22.601 0 0 1 14.538-9.597 22.646 22.646 0 0 1 4.33-.416c10.873 0 20.265 7.748 22.333 18.425 1.926 9.941 2.161 19.038.724 27.81a1.511 1.511 0 0 0 1.5 1.758 1.522 1.522 0 0 0 1.495-1.27ZM17.497 85.97c4.018-4.971 6.812-9.384 8.537-13.484a1.519 1.519 0 0 0-2.798-1.177c-1.613 3.835-4.264 8.008-8.102 12.758a1.514 1.514 0 0 0 1.179 2.465 1.52 1.52 0 0 0 1.184-.562Zm-4.15-4.528c9.9-12.481 9.643-18.87 8.279-25.922-1.465-7.555.103-15.23 4.414-21.608a29.003 29.003 0 0 1 5.528-6.095c.645-.535.735-1.49.199-2.134a1.52 1.52 0 0 0-2.137-.198 32.003 32.003 0 0 0-6.106 6.732c-4.765 7.048-6.496 15.529-4.879 23.875 1.257 6.49 1.442 11.972-7.677 23.467-.52.658-.41 1.61.25 2.129.279.221.61.327.94.327.448.002.89-.195 1.19-.573Zm64.12 10.008c5.93-14.94 7.119-30.02 3.742-47.46a31.495 31.495 0 0 0-5.29-12.35 1.52 1.52 0 0 0-2.118-.358 1.513 1.513 0 0 0-.358 2.113 28.463 28.463 0 0 1 4.786 11.172c3.263 16.847 2.125 31.39-3.583 45.77a1.515 1.515 0 0 0 1.41 2.072c.604 0 1.176-.362 1.411-.959ZM70.37 27.595a1.511 1.511 0 0 0-.208-2.133 31.91 31.91 0 0 0-20.223-7.265 32.116 32.116 0 0 0-13.134 2.824 1.514 1.514 0 1 0 1.246 2.762 29.129 29.129 0 0 1 6.404-2.029 28.701 28.701 0 0 1 5.484-.527A28.87 28.87 0 0 1 68.233 27.8a1.524 1.524 0 0 0 2.138-.204Zm16.3 21.428a1.515 1.515 0 0 0 1.268-1.73 113.205 113.205 0 0 0-.77-4.455c-3.447-17.793-19.103-30.706-37.23-30.706-2.426 0-4.855.233-7.215.694-9.948 1.924-18.552 7.604-24.226 15.995a37.6 37.6 0 0 0-5.946 14.702 1.517 1.517 0 0 0 1.235 1.753 1.513 1.513 0 0 0 1.756-1.234 34.602 34.602 0 0 1 5.47-13.525c5.22-7.72 13.134-12.946 22.29-14.717a34.835 34.835 0 0 1 6.637-.638c16.675 0 31.08 11.882 34.25 28.252.283 1.462.529 2.907.749 4.345a1.515 1.515 0 0 0 1.732 1.264Zm-.29 35.006c2.444-9.188 3.26-18.552 2.497-28.626a1.52 1.52 0 0 0-1.625-1.397 1.514 1.514 0 0 0-1.4 1.623c.737 9.732-.049 18.767-2.404 27.62a1.518 1.518 0 0 0 2.932.78ZM9.71 76.242c7.763-10.239 6.886-14.772 5.957-19.575a35.263 35.263 0 0 1-.597-4.925 1.504 1.504 0 0 0-1.592-1.436 1.517 1.517 0 0 0-1.439 1.59 38.36 38.36 0 0 0 .648 5.346c.865 4.473 1.55 8.007-5.397 17.169a1.511 1.511 0 0 0 .294 2.12c.275.208.596.308.915.308a1.5 1.5 0 0 0 1.21-.597Zm-3.08-6.07c4.257-6.261 3.711-9.084 3.08-12.35-2.08-10.736.149-21.639 6.275-30.702 6.127-9.064 15.42-15.199 26.167-17.276a40.78 40.78 0 0 1 13.1-.4 1.52 1.52 0 0 0 1.702-1.305 1.515 1.515 0 0 0-1.307-1.7 43.815 43.815 0 0 0-14.073.43c-11.54 2.233-21.522 8.822-28.104 18.557-6.58 9.733-8.974 21.444-6.739 32.972.566 2.925.94 4.853-2.61 10.073a1.514 1.514 0 1 0 2.508 1.702Zm86.648 3.219c-.049 0-.1-.003-.157-.006a1.523 1.523 0 0 1-1.356-1.664c.95-9.304.417-18.94-1.618-29.462-2.81-14.49-13.282-26.395-27.33-31.07a1.515 1.515 0 1 1 .96-2.874c15.083 5.018 26.332 17.806 29.349 33.37 2.096 10.818 2.639 20.744 1.66 30.345a1.512 1.512 0 0 1-1.508 1.36Z" clip-rule="evenodd"/>
</svg>
