<svg xmlns="http://www.w3.org/2000/svg" width="40" height="30" fill="none" viewBox="0 0 40 30">
  <rect width="39.5" height="29.5" x=".25" y=".25" fill="#fff" stroke="#F5F5F5" stroke-width=".5" rx="1.75"/>
  <mask id="a" width="40" height="30" x="0" y="0" maskUnits="userSpaceOnUse" style="mask-type:luminance">
    <rect width="39.5" height="29.5" x=".25" y=".25" fill="#fff" stroke="#fff" stroke-width=".5" rx="1.75"/>
  </mask>
  <g mask="url(#a)">
    <path fill="#FFA44A" fill-rule="evenodd" d="M0 10h40V0H0v10Z" clip-rule="evenodd"/>
    <path fill="#1A9F0B" fill-rule="evenodd" d="M0 30h40V20H0v10Z" clip-rule="evenodd"/>
    <path fill="#181A93" fill-opacity=".15" stroke="#181A93" stroke-width=".667" d="M20 11.667c1.777 0 3.19 1.508 3.19 3.333 0 1.825-1.413 3.333-3.19 3.333S16.81 16.825 16.81 15c0-1.825 1.413-3.333 3.19-3.333Z"/>
    <path fill="#181A93" fill-rule="evenodd" d="M20 16c.526 0 .953-.448.953-1s-.427-1-.953-1-.952.448-.952 1 .426 1 .952 1Z" clip-rule="evenodd"/>
  </g>
</svg>
