<svg xmlns="http://www.w3.org/2000/svg" width="40" height="30" fill="none" viewBox="0 0 40 30">
  <rect width="39.5" height="29.5" x=".25" y=".25" fill="#fff" stroke="#F5F5F5" stroke-width=".5" rx="1.75"/>
  <mask id="a" width="40" height="30" x="0" y="0" maskUnits="userSpaceOnUse" style="mask-type:luminance">
    <rect width="39.5" height="29.5" x=".25" y=".25" fill="#fff" stroke="#fff" stroke-width=".5" rx="1.75"/>
  </mask>
  <g mask="url(#a)">
    <path fill="#E01B41" fill-rule="evenodd" d="M20 22c3.682 0 6.667-3.134 6.667-7S23.682 8 20 8s-6.666 3.134-6.666 7 2.984 7 6.666 7Z" clip-rule="evenodd"/>
    <mask id="b" width="14" height="14" x="13" y="8" maskUnits="userSpaceOnUse" style="mask-type:luminance">
      <path fill="#fff" fill-rule="evenodd" d="M20 22c3.682 0 6.667-3.134 6.667-7S23.682 8 20 8s-6.666 3.134-6.666 7 2.984 7 6.666 7Z" clip-rule="evenodd"/>
    </mask>
    <g mask="url(#b)">
      <path fill="#0E4B9C" fill-rule="evenodd" d="M13.333 16c1.905 1.875 4.762 3 6.667 0 1.905-3 5.714-3 6.667 0 .952 3 0 6 0 6H13.333s-1.904-7.875 0-6Z" clip-rule="evenodd"/>
    </g>
    <path fill="#262626" fill-rule="evenodd" d="M8.896 5.194a.317.317 0 0 1 .446-.12l1.08.655a.35.35 0 0 1 .124.465L8.01 10.806a.317.317 0 0 1-.446.12l-1.08-.655a.35.35 0 0 1-.124-.465l2.536-4.612Zm20.682.535a.35.35 0 0 0-.124.465l2.536 4.612a.317.317 0 0 0 .446.12l1.08-.655a.35.35 0 0 0 .124-.465l-2.536-4.612a.317.317 0 0 0-.446-.12l-1.08.655Zm-2.474 1.5a.35.35 0 0 0-.124.465l2.536 4.612a.317.317 0 0 0 .445.12l1.08-.655a.35.35 0 0 0 .124-.465L28.63 6.694a.317.317 0 0 0-.445-.12l-1.08.655ZM6.36 20.194a.35.35 0 0 1 .124-.465l1.08-.654a.317.317 0 0 1 .446.12l2.536 4.611a.35.35 0 0 1-.125.465l-1.08.654a.317.317 0 0 1-.445-.119L6.36 20.194Zm2.6-1.964a.35.35 0 0 0-.125.465l2.536 4.612a.317.317 0 0 0 .446.12l1.08-.655a.35.35 0 0 0 .124-.465l-2.536-4.612a.317.317 0 0 0-.446-.12l-1.08.655Zm20.557-.535a.317.317 0 0 1 .445-.12l1.08.655a.35.35 0 0 1 .124.465l-2.536 4.612a.317.317 0 0 1-.445.12l-1.08-.655a.35.35 0 0 1-.124-.465l2.536-4.612Zm2.92 1.38a.317.317 0 0 0-.446.12l-2.536 4.612a.35.35 0 0 0 .124.465l1.08.654a.317.317 0 0 0 .446-.119l2.536-4.612a.35.35 0 0 0-.125-.465l-1.08-.654Zm-20.62-12.5a.317.317 0 0 0-.446.12l-2.536 4.612a.35.35 0 0 0 .125.465l1.08.654a.317.317 0 0 0 .445-.119l2.536-4.612a.35.35 0 0 0-.124-.465l-1.08-.654Z" clip-rule="evenodd" opacity=".75"/>
  </g>
</svg>
