<svg xmlns="http://www.w3.org/2000/svg" width="28" height="41" fill="none" viewBox="0 0 28 41">
  <path fill="#3629B7" d="M19.56 16.62c-.34 0-.63-.28-.63-.62v-5.46c0-2.86-2.32-5.18-5.18-5.18s-5.18 2.33-5.18 5.18V16c0 .34-.28.62-.63.62H4.46c-.34 0-.62-.28-.62-.62v-5.46c0-5.47 4.45-9.92 9.92-9.92s9.92 4.45 9.92 9.92V16c0 .34-.28.62-.63.62h-3.49Z"/>
  <path fill="#fff" d="M13.76 1.24c5.12 0 9.29 4.17 9.29 9.29v5.46h-3.48v-5.46c0-3.2-2.6-5.81-5.81-5.81-3.2 0-5.81 2.6-5.81 5.81v5.46H4.47v-5.46c0-5.12 4.16-9.29 9.29-9.29Zm0-1.24C7.95 0 3.22 4.73 3.22 10.54V16c0 .69.56 1.25 1.25 1.25h3.48c.69 0 1.25-.56 1.25-1.25v-5.46c0-2.51 2.04-4.56 4.56-4.56a4.57 4.57 0 0 1 4.56 4.56V16c0 .69.56 1.25 1.25 1.25h3.48c.69 0 1.25-.56 1.25-1.25v-5.46C24.3 4.72 19.57 0 13.76 0Z"/>
  <path fill="#3629B7" d="M2.14 39.4c-.84 0-1.52-.68-1.52-1.52V16.89c0-.84.68-1.52 1.52-1.52h23.24c.84 0 1.52.68 1.52 1.52v20.98c0 .84-.68 1.52-1.52 1.52H2.14v.01Z"/>
  <path fill="#fff" d="M25.38 16c.49 0 .89.4.89.9v20.98c0 .49-.4.9-.89.9H2.14c-.5 0-.89-.4-.89-.9V16.89c0-.49.4-.9.89-.9h23.24V16Zm0-1.25H2.14c-1.18 0-2.14.96-2.14 2.14v20.98c0 1.18.96 2.14 2.14 2.14h23.24c1.18 0 2.14-.96 2.14-2.14V16.89c0-1.18-.96-2.14-2.14-2.14Z"/>
  <path fill="#3629B7" stroke="#fff" stroke-linecap="round" stroke-linejoin="round" stroke-miterlimit="10" stroke-width="1.249" d="M17.51 26.23c0-2.07-1.68-3.75-3.76-3.75a3.76 3.76 0 0 0-3.76 3.75c0 1.6 1 2.97 2.42 3.51v1.76a1.34 1.34 0 0 0 2.68 0v-1.76a3.753 3.753 0 0 0 2.42-3.51Z"/>
</svg>
