<svg xmlns="http://www.w3.org/2000/svg" width="24" height="24" fill="none" viewBox="0 0 24 24">
  <path fill="#FFAF2A" d="M18 0H6a3 3 0 0 0-3 3v18a3 3 0 0 0 3 3h12a3 3 0 0 0 3-3V3a3 3 0 0 0-3-3Zm1 20a1 1 0 0 1-1 1H6a1 1 0 0 1-1-1V4a1 1 0 0 1 1-1h12a1 1 0 0 1 1 1v16Z"/>
  <path fill="#FFAF2A" d="M15.546 12.582a6.126 6.126 0 0 0-2.312-1.353l-.668-.255v-3.2a9.42 9.42 0 0 1 2.743.65l.64-1.608a9.688 9.688 0 0 0-3.383-.716V4.643H11.4v1.475a4.688 4.688 0 0 0-2.563.949 2.48 2.48 0 0 0-.944 2 2.81 2.81 0 0 0 .663 1.9 5.19 5.19 0 0 0 2.1 1.322l.739.273v3.287a8.034 8.034 0 0 1-1.811-.26 8.921 8.921 0 0 1-1.767-.62v1.858a9.084 9.084 0 0 0 3.578.668v1.852h1.168V17.44a4.74 4.74 0 0 0 2.69-1.02 2.68 2.68 0 0 0 .937-2.1 2.5 2.5 0 0 0-.644-1.738Zm-4.153-2.042a3.172 3.172 0 0 1-1.13-.66 1.17 1.17 0 0 1-.312-.834 1.035 1.035 0 0 1 .369-.808 2.06 2.06 0 0 1 1.073-.431v2.733Zm1.168 5.235v-2.8c.433.135.837.35 1.19.633a1.091 1.091 0 0 1 .357.84c.001.726-.514 1.168-1.547 1.327Z"/>
</svg>
