<svg xmlns="http://www.w3.org/2000/svg" width="24" height="24" fill="none" viewBox="0 0 24 24">
  <g clip-path="url(#a)">
    <path fill="#5655B9" d="M16.5 7H8.617C7.546 5.174 5.739 4.891 4.858 5.01l-1.14.163 1.028 3.529A7.473 7.473 0 0 0 2.872 11H0v7h2.866A7.467 7.467 0 0 0 9 21.966V24h2v-2h4v2h2v-2.025c3.902-.259 7-3.508 7-7.475 0-4.136-3.364-7.5-7.5-7.5Zm.5 6h-7v-2h7v2Zm-3.5-8a2.5 2.5 0 1 0 0-5 2.5 2.5 0 0 0 0 5Z"/>
  </g>
  <defs>
    <clipPath id="a">
      <path fill="#fff" d="M0 0h24v24H0z"/>
    </clipPath>
  </defs>
</svg>
