<svg xmlns="http://www.w3.org/2000/svg" width="327" height="204" fill="none" viewBox="0 0 327 204">
  <path fill="#F2F1F9" d="M163.5 204c90.299 0 163.5-23.729 163.5-53s-73.201-53-163.5-53S0 121.729 0 151s73.201 53 163.5 53Z"/>
  <path fill="#6097B2" d="m176.808 24.667-11.869 2.173 1.063 5.812 11.869-2.173-1.063-5.812Z"/>
  <path fill="#52D5BA" d="M53.769 148.021c-21.851 4.833-45.006-9.922-45.277-18.662-.27-8.741 20.965 9.404 24.04.508 3.077-8.896-23.105-12.466-23.474-21.87-.37-9.405 23.147 12.802 24.968 6.795 1.812-6.008-20.867-20.23-17.496-27.14 3.371-6.91 17.077 17.415 20.982 14.132 3.904-3.274-11.918-25.941-2.387-27.681 9.53-1.74 7.874 19.105 11.196 23.34 3.322 4.234 3.125-20.05 8.801-18.186 5.676 1.863-4.044 25.252-.205 28.403 3.839 3.151 9.556-17.62 16.003-12.827 6.447 4.793-10.171 18.046-8.588 24.234 1.583 6.18 12.369-12.293 18.151-7.402 5.783 4.883-8.407 32.31-26.714 36.356Z"/>
  <path stroke="#4CA5A2" stroke-linecap="round" stroke-miterlimit="10" stroke-width="1.629" d="M37.463 80.849s9.9 39.745 22.006 76.125"/>
  <path stroke="#4CA5A2" stroke-linecap="round" stroke-miterlimit="10" stroke-width="1.629" d="M17.785 112.289s27.117 13.401 36.008 25.596c0 0-.328-21.739 13.518-36.61"/>
  <path stroke="#4CA5A2" stroke-linecap="round" stroke-miterlimit="10" stroke-width="1.629" d="M24.183 94.964S44.41 114.275 50.75 128.71c0 0-1.648-26.097 2.568-39.893"/>
  <path stroke="#4CA5A2" stroke-linecap="round" stroke-miterlimit="10" stroke-width="1.629" d="M13.93 131.935s36.672 6.081 41.282 12.154c0 0 10.155-22.773 22.761-28.855"/>
  <path fill="#52D5BA" d="M51.948 137.754c-5.643-12.852-23.139-40.237-38.19-36.438-17.356 4.374 21.95 31.489 21.95 31.489s-27.019-15.461-34.319-3.307c-7.308 12.154 32.44 13.796 32.44 13.796s-20.998-1.428-17.848 6.417c3.141 7.846 36.853.813 40.306 8.314 3.445 7.492-.468-11.465-4.34-20.271Z"/>
  <path stroke="#4CA5A2" stroke-linecap="round" stroke-miterlimit="10" stroke-width="1.629" d="M55.762 154.758c-5.29-13.721-13.263-26.639-23.73-37.004-3.846-3.807-8.038-7.262-12.549-10.258m36.09 47.541c-11.352-14.034-28.61-23.053-46.367-23.496"/>
  <path stroke="#4CA5A2" stroke-linecap="round" stroke-miterlimit="10" stroke-width="1.629" d="M55.393 155.184c-9.293-5.638-20.383-7.681-31.144-6.967"/>
  <path fill="#52D5BA" d="M60.158 153.658c-1.944-5.711-8.653-9.864-13.862-12.006-12.754-5.244-33.407-9.643-43.078 3.603-3.076 4.218-4.035 9.913-2.493 14.903 2.813 9.118 12.984 13.262 21.645 14.518 11.582 1.674 27.945-.755 35.64-10.628 1.328-1.707 2.353-3.701 2.624-5.843.197-1.609 0-3.127-.476-4.547Z"/>
  <path stroke="#4CA5A2" stroke-linecap="round" stroke-miterlimit="10" stroke-width="1.629" d="M58.42 157.048s-35.55-9.593-55.022-3.028"/>
  <path stroke="#4CA5A2" stroke-linecap="round" stroke-miterlimit="10" stroke-width="1.629" d="M11.314 163.605s9.195-11.112 14.403-11.604c0 0-7.407-7.271-13.042-8.904"/>
  <path stroke="#4CA5A2" stroke-linecap="round" stroke-miterlimit="10" stroke-width="1.629" d="M25.938 138.919s10.45 7.37 10.688 13.886c0 0-9.326 9.216-12.828 16.52m20.415-26.418s4.035 7.961 3.412 11.925c0 0-5.856 8.034-8.998 15.239"/>
  <path fill="#FF4267" d="m228.71 6.148 15.027 82.182a7.484 7.484 0 0 1-6.021 8.715L100.861 122.1c-4.068.747-7.964-1.945-8.71-6.024L77.124 33.903c-.746-4.07 1.952-7.977 6.02-8.716L220 .124a7.482 7.482 0 0 1 8.711 6.024Z"/>
  <path fill="#11393D" d="M229.363 9.675 77.771 37.429l4.61 25.203 151.59-27.752-4.609-25.204Z"/>
  <path fill="#fff" d="m122.304 60.513-26.15 4.788 1.063 5.812 26.15-4.787-1.063-5.813Z"/>
  <path fill="#6097B2" d="m152.104 55.055-26.15 4.788 1.063 5.812 26.15-4.787-1.063-5.813Z"/>
  <path fill="#3629B7" d="M272 42.452v83.096c0 4.113-3.344 7.452-7.483 7.452H125.483c-4.131 0-7.483-3.33-7.483-7.452V42.452c0-4.113 3.352-7.452 7.483-7.452h139.026c4.139 0 7.491 3.339 7.491 7.452Z"/>
  <path fill="#FDFEFF" d="M185.337 95.847h-54.176v5.908h54.176v-5.908Zm-27.593 11.252h-26.583v5.908h26.583v-5.908Zm15.773 0h-12.065v5.908h12.065v-5.908Zm-18.553-33.623h-21.031a2.77 2.77 0 0 0-2.772 2.773v9.922a2.77 2.77 0 0 0 2.772 2.774h21.031a2.77 2.77 0 0 0 2.772-2.774v-9.913a2.772 2.772 0 0 0-2.772-2.782Zm99.771-14.67a6.619 6.619 0 1 0-12.776-3.468 6.619 6.619 0 1 0 12.776 3.468Z"/>
  <path fill="#FDFEFF" d="M245.97 58.968a6.619 6.619 0 1 0-12.886-3.033 6.619 6.619 0 1 0 12.886 3.033Z"/>
  <path fill="#FFAF2A" d="m111.868 111.193 3.995 10.907a1.047 1.047 0 0 1-.615 1.338l-18.16 6.664a1.045 1.045 0 0 1-1.337-.616l-3.995-10.907a1.046 1.046 0 0 1 .615-1.337l18.16-6.664a1.046 1.046 0 0 1 1.337.615Z"/>
  <path fill="#FDFEFF" d="m103.077 122.31-7.07 2.594.282.771 7.07-2.594-.282-.771Zm-3.056 2.793-3.474 1.274.283.77 3.473-1.274-.282-.77Zm2.053-.759-1.571.577.283.77 1.571-.576-.283-.771Zm-4.683-3.262-1.452.533a1.074 1.074 0 1 0 .739 2.019l1.451-.533c.558-.205.845-.821.64-1.379a1.07 1.07 0 0 0-1.378-.64Zm12.058-5.933a.919.919 0 1 0-.002-1.838.919.919 0 0 0 .002 1.838Z"/>
  <path fill="#FDFEFF" d="M108.426 115.615a.92.92 0 1 0-.223-1.825.92.92 0 0 0 .223 1.825Z"/>
  <path fill="#6097B2" d="M61.162 88.182c.64 9.758 11.639 9.224 11.639 9.224s-.156-44.652-3.166-46.36c-3.027-1.706-10.384 7.87-8.473 37.136Z"/>
  <path fill="#EF6E4B" d="M47.685 181.204c.337-.328.755-.837 1.255-1.633 1.018-1.625 2.97-1.264 2.97-1.264.607.526.705 2.938.722 3.505h.754c.263-.682 1.19-3.784.91-4.949-.23-.936-.934-3.102-1.23-4.136-.082-.287-.156-.542-.164-.837.845-3.537 3.749-15.618 8.793-25.351 4.003-7.73 5.299-10.808 6.094-17.734.796-6.935 7.112-24.259 7.112-24.259s-8.867-24.103-12.525-9.11c-3.65 14.994-4.142 33.377-4.758 37.045-.615 3.669-6.102 29.388-9.375 40.164-.623 2.051-3.65 6.146-4.83 7.098-.01.009-.01.009-.034.009a4.264 4.264 0 0 0-1.575.829 3.782 3.782 0 0 0-.566.623h6.447Z"/>
  <path fill="#FF8B66" d="M90.19 100.262c.976 15.281-1.92 19.072-3.043 25.35-.853 4.752 1.566 11.637-.87 19.294-1.624 5.096-5.233 26.713-5.233 26.713v8.97h-6.037s2.379-9.93 2.379-13.664c0-16.11 2.223-35.314 1.895-42.609-.32-7.14-2.715-21.207-2.715-21.207l13.624-2.847Z"/>
  <path fill="#FFAF2A" d="M82.037 181.82c.155-1.281-.18-3.513-.18-4.596 0-1.321-.87-3.751-.87-3.751-1.386-1.428-3.814.091-3.814.091-1.083 1.707-1.23 3.053-2.166 3.881-.664.583-.73 3.226-.713 4.375h7.743Z"/>
  <path fill="#EF6E4B" d="M49.966 166.407c3.19-12.277 7.136-30.857 7.644-33.934.328-1.986.632-8.306 1.411-16.053.205-8.838 1.222-29.043 6.185-40.508l11.68.27c-.476 9.11 8.35 18.934-2.395 29.471-1.403 3.931-6.037 17.275-6.71 23.151-.796 6.935-2.083 10.004-6.094 17.735-3.47 6.697-5.922 14.493-7.39 19.868h-4.331Z"/>
  <path fill="#FFAF2A" d="M47.685 181.819c.648 0 1.904-1.354 2.79-2.035.82-.64 1.295-.615 1.295-.615.607.525.845 2.084.861 2.65h.755c.263-.681 1.19-3.783.91-4.948-.23-.936-.77-2.224-.934-3.997-2.371-1.354-4.413 3.225-7.473 5.794-1.534 1.297-2.493 1.067-2.493 1.067s-.008.008-.033.008c-.131.074-1.05.14-1.895.591-1.271.763-1.296 1.239-1.468 1.477h7.685v.008Z"/>
  <path fill="#FF8B66" d="M89.542 115.871c-.747 3.882-1.813 6.475-2.395 9.741-.853 4.752 1.566 11.637-.87 19.294-1.156 3.627-3.314 15.593-4.462 22.207h-4.43v-.188c0-16.11 2.224-35.314 1.896-42.609-.14-3.078-.665-7.444-1.214-11.416 0-.016-2.108-13.582-3.773-14.567-1.001-.59-9.088-22.429-9.088-22.429l17.479.813s10.179 8.46 7.505 23.528l.024.427c.427 7.107.008 11.686-.672 15.199Z"/>
  <path fill="#343434" d="M49.67 167.524c2.486 2.602 4.077.936 4.077.936s5.446-7.994 9.679-21.658c7.275-23.504 9.367-35.814 9.367-35.814l2.026-4.481 1.345 3.554 1.05 59.129c1.583 1.879 4.183.353 4.183.353 7.776-32.17 11.122-64.488 11.147-65.145.18-5.728-.443-10.496-1.468-14.394-2.724-10.472-8.22-14.74-8.22-14.74-1.36.444-3.165.69-5.117.813-2.838.172-5.964.074-8.383-.082a112.813 112.813 0 0 1-4.159-.328c-1.5 2.905-2.92 9.544-4.035 15.986l-.172.993c-.82 4.867-1.584 9.504-1.805 12.228-3.527 42.872-9.515 62.65-9.515 62.65Z"/>
  <path fill="#FFAF2A" d="M72.17 28.034c1.517 9.389-5.045 15.363 6.955 15.478 12 .115 14.215 2.208 14.215 2.208s-2.215-3.956-1.657-13.976c.467-8.396-3.445-13.32-10.778-12.688-7.333.632-9.228 5.893-8.736 8.978Z"/>
  <path fill="#5655B9" d="M60.686 52.786c-3.658 5.59-7.694 11.252-9.711 14.042V76.98c.566.18 1.058.254 1.46.197 3.305-.534 12.164-13.033 12.164-13.033l7.513-21.55c-.008-.008-6.3 2.347-11.426 10.192Z"/>
  <path fill="#52D5BA" d="M87.36 64.472c-1.329 1.863-4.118 7.042-4.684 12.007 0 0-9.383 2.733-17.479-.813L64.6 64.144s-4.914-9.118 5.446-18.457c.607-.55 1.271-1.1 1.993-1.65.37-.287.746-.557 1.14-.836 0 0 5.151-1.387 9.392-.616 2.428.443 6.037-.714 8.817.394a4.975 4.975 0 0 1 2.133 1.592c4.15 5.244-2.608 14.895-6.16 19.901Z"/>
  <path fill="#FF8B66" d="M92.577 45.285s-10.581 5.26-15.806 4.826c-3.691-.312-5.807-2.914-6.726-4.424a7.39 7.39 0 0 1-.566-1.067s.5-.599 1.493-1.387c.303.238.664.51 1.074.805.37-.288.747-.558 1.14-.837 0 0 5.151-1.387 9.392-.616 2.428.443 6.037-.714 8.817.394.238.295.419.583.575.854.475.837.607 1.452.607 1.452Z"/>
  <path fill="#EF6E4B" d="M91.962 43.84c-5.422 1.7-13.969 2.635-13.969 2.635l-1.82 1.51v-1.51c-.813-.099-2.691-1.37-4.143-2.43.37-.287.746-.558 1.14-.837 0 0 5.151-1.386 9.392-.615 2.428.443 6.037-.714 8.817.394.246.295.427.582.582.853Zm4.199 71.301c-.066.591 1.468 1.239 1.468 1.239s.541 1.034 1.337 1.034c.796 0 2.42-2.692 1.148-4.079-1.27-1.387-3.74-.024-3.953 1.806Z"/>
  <path fill="#0890FE" d="M88.656 42.315s-6.57 10.06-7.677 21.813C79.87 75.88 91.962 99.646 91.962 99.646s1.714-.353 2.862-2.716c0 0-4.339-20.148-1.567-32.802 2.56-11.662 6.718-21.813-4.601-21.813Zm-12.484.27s-11.983 6.828-13.755 21.542c-1.772 14.707-1.255 24.054-1.255 24.054s-3.945-36.684 10.95-45.588c-.008-.008 2.789-.624 4.06-.008Z"/>
  <path fill="#FF8B66" d="M77.058 19.82s10.36-3.472 12.443 3.824c2.083 7.296-.025 14.92-5.594 14.739-6.882-.23-14.896-14.46-6.85-18.564Z"/>
  <path fill="#343434" d="M83.94 28.157c.032.468.295.83.59.813.295-.017.509-.419.484-.886-.033-.468-.295-.83-.59-.813-.304.025-.517.419-.484.886Z"/>
  <path fill="#ED7D66" d="M82.275 30.07c-.05.435.36.837.902.895.55.057 1.025-.247 1.074-.69.05-.435-.36-.837-.902-.894-.55-.058-1.034.254-1.075.69Z"/>
  <path fill="#343434" d="M83.653 28.035s.246-1.075.631-1.1c.386-.024 1.017.69 1.017.69l.697-.51-.672.263s-.582-.82-1.116-.656c-.525.172-.557 1.313-.557 1.313Zm4.617-.55c.033.467.296.828.591.812.295-.016.508-.419.484-.886-.033-.468-.295-.83-.59-.813-.304.025-.517.419-.485.887Z"/>
  <path fill="#343434" d="M87.983 27.37s.246-1.075.632-1.1c.386-.024 1.017.69 1.017.69l.697-.51-.672.263s-.583-.82-1.116-.656c-.525.164-.558 1.313-.558 1.313Zm-4.905-1.773a.223.223 0 0 0 .172-.099c.435-.673 1.264-.599 1.272-.59.115.016.221-.074.238-.19.016-.114-.074-.22-.189-.237-.04-.009-1.107-.107-1.681.788a.214.214 0 0 0 .065.295.198.198 0 0 0 .123.033Zm4.774-1.107a.18.18 0 0 0 .123-.05c.615-.509 1.362-.189 1.395-.18.106.049.237 0 .278-.115a.209.209 0 0 0-.106-.28c-.041-.016-1.026-.442-1.846.239a.211.211 0 0 0-.024.303.229.229 0 0 0 .18.082Z"/>
  <path fill="#DD774E" d="M88.008 28.822s1.845.017 1.673.665c-.18.648-1.247 1.494-1.247 1.494s-.836-1.346-.426-2.159Z"/>
  <path fill="#343434" d="M88.902 32.138s-1.567 1.01-4.298.123c0 0 .435 2.667 2.174 2.257 1.738-.41 2.124-2.38 2.124-2.38Z"/>
  <path fill="#FFAF2A" d="M81.184 23.57s-2.37 3.02-2.248 6.943c0 0-1.739-2.133-2.649-.279-.91 1.855 1.706 3.316 1.706 3.316s1.952 4.522.336 4.58c-1.615.065-6.816-7.535-5.864-10.596.951-3.06 3.855-6.105 8.719-3.964Z"/>
  <path fill="#EF6E4B" d="M79.141 33.155c.796 2.142 3.839 5.852 7.07 4.793 0 0-.213 4.095 1.124 5.252 0 0-4.626 2.29-6.43 2.495-2.076.238-2.157-1.666-2.002-2.52 1.14-6.138-.91-9.634-.91-9.634.87.583 1.148-.386 1.148-.386Z"/>
  <path fill="#FFAF2A" d="M83.259 20.927s2.05-.615 4.076 1.363c2.026 1.97 2.748 8.215 4.34 9.462 0 0 2.181-12.638-6.858-14.419-9.038-1.78-14.559 3.792-12.418 11.703 0 0 4.511.517 6.726-.78 2.215-1.297 4.93-4.546 4.134-7.329Z"/>
  <path fill="#5655B9" d="M47.915 57.866 49.67 68.61s1.001-1.354 2.535-3.496c1.755-2.446 6.669 6.393 6.669 6.393-2.404 2.823-4.971 5.424-6.44 5.662-3.305.534-6.02-2.503-6.553-4.407-1.46-5.227-.303-11.12.09-12.548.747-2.749 1.944-2.347 1.944-2.347Z"/>
  <path fill="#FF8B66" d="M44.938 59.031s.123-2.093 1.304-2.175c.632-.04 2.206 1.387 2.149 1.707-.099.526-1.034.222-1.034.222s1.403.894 1.534 1.469c.132.574-.795.46-.795.46s1.665 1.313.45 1.616c0 0 .517.575-.516.706 0 0 .008.968-.812.935-1.042-.04-2.206-2.29-2.28-4.94Zm55.529 50.192s2.937 3.931 2.633 4.817c-.303.895-2.633 1.921-2.633 1.921s-.443 1.608-1.5 1.444c0 0 .467-.952.13-1.937-.336-.984-1.935-1.28-1.935-1.28l-1.001.944s-.066-4.259.582-5.499c.657-1.231 3.724-.41 3.724-.41Z"/>
  <path fill="#5655B9" d="M95.382 45.26c-2.231-2.38-4.487 2.307-5.906 7.715-1.419 5.408.722 25.449.722 25.449l5.963 31.39s3.232 1.42 4.831 0c0 0-2.338-27.073-3.47-32.252 0 .008 2.067-27.804-2.14-32.301Z"/>
  <path fill="#52D5BA" d="M273.095 131.901c21.906 4.826 45.12-9.905 45.391-18.632.272-8.726-21.018 9.39-24.102.508-3.083-8.881 23.165-12.445 23.535-21.835.37-9.39-23.206 12.782-25.031 6.784-1.818-5.998 20.919-20.197 17.54-27.096-3.38-6.899-17.121 17.387-21.035 14.11-3.914-3.27 11.948-25.9 2.393-27.637-9.556-1.737-7.894 19.074-11.225 23.302-3.33 4.228-3.133-20.017-8.823-18.157-5.691 1.86 4.054 25.212.205 28.358-3.848 3.146-9.58-17.591-16.043-12.806-6.463 4.785 10.197 18.017 8.61 24.195-1.587 6.17-12.401-12.274-18.198-7.39-5.798 4.874 8.428 32.257 26.783 36.296Z"/>
  <path stroke="#4CA5A2" stroke-linecap="round" stroke-miterlimit="10" stroke-width="1.629" d="M289.442 64.838s-9.925 39.681-22.062 76.002"/>
  <path stroke="#4CA5A2" stroke-linecap="round" stroke-miterlimit="10" stroke-width="1.629" d="M309.17 96.226s-27.186 13.38-36.1 25.556c0 0 .329-21.705-13.552-36.551"/>
  <path stroke="#4CA5A2" stroke-linecap="round" stroke-miterlimit="10" stroke-width="1.629" d="M302.755 78.93s-20.278 19.28-26.634 33.692c0 0 1.653-26.055-2.574-39.829"/>
  <path stroke="#4CA5A2" stroke-linecap="round" stroke-miterlimit="10" stroke-width="1.629" d="M313.034 115.842s-36.765 6.071-41.387 12.134c0 0-10.18-22.737-22.819-28.808"/>
  <path fill="#52D5BA" d="M274.92 121.651c5.658-12.831 23.198-40.172 38.287-36.379 17.4 4.376-22.005 31.447-22.005 31.447s27.087-15.437 34.405-3.302c7.327 12.135-32.522 13.773-32.522 13.773s21.051-1.425 17.894 6.408c-3.15 7.833-36.947.819-40.409 8.3-3.454 7.472.469-11.455 4.35-20.247Z"/>
  <path stroke="#4CA5A2" stroke-linecap="round" stroke-miterlimit="10" stroke-width="1.629" d="M271.096 138.627c5.304-13.699 13.297-26.596 23.79-36.944 3.856-3.802 8.058-7.251 12.581-10.242m-36.182 47.465c11.381-14.01 28.683-23.015 46.486-23.458"/>
  <path stroke="#4CA5A2" stroke-linecap="round" stroke-miterlimit="10" stroke-width="1.629" d="M271.466 139.054c9.317-5.629 20.435-7.669 31.224-6.956"/>
  <path fill="#52D5BA" d="M266.689 137.53c1.949-5.702 8.675-9.848 13.897-11.987 12.787-5.235 33.493-9.627 43.188 3.597 3.084 4.212 4.046 9.898 2.5 14.88-2.821 9.102-13.018 13.24-21.701 14.494-11.611 1.671-28.016-.754-35.73-10.611-1.332-1.704-2.36-3.695-2.631-5.834a10.19 10.19 0 0 1 .477-4.539Z"/>
  <path stroke="#4CA5A2" stroke-linecap="round" stroke-miterlimit="10" stroke-width="1.629" d="M268.432 140.914s35.639-9.579 55.161-3.024"/>
  <path stroke="#4CA5A2" stroke-linecap="round" stroke-miterlimit="10" stroke-width="1.629" d="M315.657 147.461s-9.218-11.094-14.439-11.586c0 0 7.425-7.259 13.074-8.889"/>
  <path stroke="#4CA5A2" stroke-linecap="round" stroke-miterlimit="10" stroke-width="1.629" d="M300.996 122.822s-10.477 7.358-10.715 13.864c0 0 9.35 9.201 12.861 16.493m-20.468-26.383s-4.045 7.948-3.42 11.906c0 0 5.871 8.021 9.02 15.215"/>
  <path fill="#FFAF2A" d="M196 59c11.046 0 20-8.954 20-20s-8.954-20-20-20-20 8.954-20 20 8.954 20 20 20Z"/>
  <g clip-path="url(#a)">
    <path fill="#fff" d="M204.333 38.166h-7.5v-7.5c0-.5-.333-.833-.833-.833-.5 0-.833.333-.833.833v7.5h-7.5c-.5 0-.834.334-.834.834 0 .5.334.833.834.833h7.5v7.5c0 .5.333.833.833.833.5 0 .833-.333.833-.833v-7.5h7.5c.5 0 .834-.333.834-.833 0-.5-.334-.834-.834-.834Z"/>
  </g>
  <g filter="url(#b)">
    <path fill="#fff" d="M41.078 59.377c-.57-.007-1.028-.534-1.022-1.179l.193-21.032c.006-.644.473-1.16 1.043-1.154l10.52.12c.57.006 1.027.534 1.022 1.178l-.194 21.032c-.006.644-.473 1.161-1.043 1.154l-10.52-.12Z"/>
    <path fill="#343434" d="M51.718 36.587c.425 0 .768.391.768.875v21.076c0 .484-.343.875-.768.875H41.282c-.425 0-.768-.391-.768-.875V37.462c0-.484.343-.875.768-.875h10.436Zm0-.587H41.282c-.708 0-1.282.655-1.282 1.462v21.076c0 .807.574 1.462 1.282 1.462h10.436c.708 0 1.282-.655 1.282-1.462V37.462c0-.807-.574-1.462-1.282-1.462Z"/>
  </g>
  <g clip-path="url(#c)">
    <path fill="#FF4267" d="m51.506 51.182-7.874 3.264a.323.323 0 0 1-.42-.176l-2.044-4.929a.323.323 0 0 1 .173-.421l7.874-3.264a.323.323 0 0 1 .42.176l2.043 4.929a.323.323 0 0 1-.172.421Z"/>
    <path fill="#fff" d="m44.175 51.277-1.426.59a.03.03 0 0 1-.04-.015l-.436-1.054a.03.03 0 0 1 .016-.04l1.426-.59a.03.03 0 0 1 .04.016l.436 1.054a.03.03 0 0 1-.016.039Z"/>
    <path fill="#292949" d="m44.12 51.066-.188-.453c-.217.495-.808.939-1.181 1.181a.212.212 0 0 0 .168.003l1.086-.45a.215.215 0 0 0 .115-.28Z" opacity=".2"/>
    <path fill="#fff" d="m44.59 51.544-1.713.71.227.548 1.712-.71-.227-.547Zm1.91-.79-1.713.71.227.547 1.712-.71-.227-.547Zm1.91-.792-1.713.71.227.547 1.712-.71-.227-.547Zm1.91-.792-1.713.71.227.547 1.712-.71-.227-.547Zm.388.937-3.623 1.502.07.165 3.621-1.5-.069-.167Z"/>
  </g>
  <g clip-path="url(#d)">
    <path fill="#3629B7" d="m51.044 47.57-8.523-.023a.323.323 0 0 1-.32-.324l.014-5.335c0-.178.145-.323.322-.323l8.524.024c.176 0 .32.146.32.324l-.015 5.336a.323.323 0 0 1-.322.322Z"/>
    <path fill="#fff" d="m44.244 44.832-1.544-.004a.03.03 0 0 1-.03-.03l.003-1.141a.03.03 0 0 1 .03-.03l1.544.004a.03.03 0 0 1 .03.03l-.003 1.141a.03.03 0 0 1-.03.03Z"/>
    <path fill="#292949" d="m44.274 44.617.002-.491c-.392.374-1.108.555-1.546.634a.212.212 0 0 0 .155.068l1.175.003a.215.215 0 0 0 .214-.214Z" opacity=".2"/>
    <path fill="#fff" d="m44.523 45.24-1.854-.006-.001.593 1.854.005.001-.592Zm2.067.006-1.853-.005-.002.593 1.854.005.001-.593Zm2.068.005-1.854-.005-.001.593 1.854.005.001-.593Zm2.067.006-1.853-.005-.002.593 1.854.005.001-.593Zm-.003 1.014-3.92-.011-.001.18 3.92.01.001-.179Z"/>
  </g>
  <g filter="url(#e)">
    <circle cx="49.8" cy="56.8" r="1.2" fill="#FFAF2A"/>
  </g>
  <g clip-path="url(#f)">
    <path fill="#fff" d="M50.28 56.752h-.432v-.432c0-.029-.019-.048-.048-.048s-.048.02-.048.048v.432h-.432a.046.046 0 0 0-.048.048c0 .029.02.048.048.048h.432v.432c0 .029.02.048.048.048.029 0 .048-.019.048-.048v-.432h.432c.029 0 .048-.019.048-.048s-.019-.048-.048-.048Z"/>
  </g>
  <path fill="#343434" d="M42.6 36.772V36.4h7.6v.441c-.107.242-.511.333-.7.349-1.878.008-5.753.018-6.233 0-.48-.019-.645-.287-.667-.418Z"/>
  <path fill="#F7A219" d="m280.932 155.207.001.059c0 .717-.383 1.408-1.089 2.051a6.187 6.187 0 0 1-.574.463c-.587.424-1.318.824-2.175 1.195-.185.08-.377.159-.574.237-.663.261-1.39.505-2.174.731a36.684 36.684 0 0 1-3.323.78 47.49 47.49 0 0 1-2.175.358c-.19.028-.381.053-.574.079a57.122 57.122 0 0 1-2.749.289 61.436 61.436 0 0 1-2.748.164c-.715.027-1.44.043-2.175.047l-.384.001h-.19a67.491 67.491 0 0 1-4.36-.154 49.753 49.753 0 0 1-1.138-.09 55.123 55.123 0 0 1-4.072-.509 48.336 48.336 0 0 1-1.425-.259 38.1 38.1 0 0 1-2.749-.652 26.719 26.719 0 0 1-.907-.27 23.592 23.592 0 0 1-1.842-.67 13.097 13.097 0 0 1-1.929-.982 8.053 8.053 0 0 1-.533-.364c-.1-.074-.196-.15-.287-.226-.829-.691-1.282-1.439-1.282-2.22 0-.054.002-.109.007-.164l.002-4.42 1.273-.002.574-.001 2.175-.003.574-.001 1.697-.002.478-.001.574-.001 2.175-.004h.574l2.175-.004h.574l2.174-.004.574-.001 2.175-.003.574-.001 2.175-.003.574-.001 2.175-.003.574-.001 2.174-.004h.575l2.174-.004h.574l2.175-.003.574-.002 2.175-.003.574-.001h.142l2.033-.003.574-.001 2.174-.003.575-.001 1.081-.001.007 4.587h-.001v.001Z"/>
  <path fill="#F37E00" d="M241.362 150.678v7.236a6.637 6.637 0 0 1-.574-.43v-6.805l.574-.001Zm2.748-.005v8.613a25.434 25.434 0 0 1-.574-.229v-8.382l.574-.002Zm2.749-.004v9.483c-.136-.035-.27-.072-.404-.108a4.736 4.736 0 0 1-.17-.048v-9.326l.574-.001Zm2.749-.003v10.093a41.84 41.84 0 0 1-.574-.111v-9.982h.574Zm2.749-.005v10.522a33.182 33.182 0 0 1-.574-.076v-10.445l.574-.001Zm2.748-.003v10.807l-.574-.049v-10.758h.574Zm2.749-.005v10.966a54 54 0 0 1-.574-.022v-10.943l.574-.001Zm2.749-.004v11.01a48.9 48.9 0 0 1-.384.002l-.19-.001v-11.01l.574-.001Zm2.749-.004v10.943a53.93 53.93 0 0 1-.574.024v-10.966l.574-.001Zm2.748-.004v10.758l-.574.05v-10.807l.574-.001Zm2.749-.004v10.444c-.19.027-.381.053-.574.078v-10.521l.574-.001Zm2.749-.004v9.977c-.19.038-.381.076-.574.112v-10.088l.574-.001Zm2.749-.005v9.314c-.188.054-.379.108-.574.159v-9.471l.574-.002Zm2.749-.003v8.349c-.186.08-.377.159-.574.236v-8.585h.574Zm2.748-.004v6.695a6.187 6.187 0 0 1-.574.463v-7.158h.574Z"/>
  <path fill="#FDD462" d="M280.928 150.676c0 3.247-9.269 5.879-20.708 5.879-1.562 0-3.085-.049-4.548-.142a60.278 60.278 0 0 1-5.208-.55 42.509 42.509 0 0 1-4.003-.794 28.572 28.572 0 0 1-1.077-.292c-1.523-.444-2.801-.956-3.77-1.518a7.914 7.914 0 0 1-.533-.335c-1.011-.692-1.569-1.451-1.569-2.248 0-.072.005-.145.017-.218.402-3.145 9.512-5.66 20.691-5.66 2.751 0 5.377.152 7.778.428.464.054.919.112 1.366.174 1.951.273 3.727.631 5.271 1.056.34.094.669.191.986.291 1.128.356 2.105.751 2.902 1.177.821.44 1.452.913 1.861 1.41.299.363.479.739.528 1.124.012.073.016.145.016.218Z"/>
  <path fill="#fff" d="m280.385 149.333-24.713 7.08a60.278 60.278 0 0 1-5.208-.55l28.059-7.939c.822.439 1.453.912 1.862 1.409Zm-11.021-3.933-27.75 7.859a8.035 8.035 0 0 1-.532-.335l26.916-7.698c.464.053.92.111 1.366.174Zm6.258 1.346-29.161 8.323a31.208 31.208 0 0 1-1.077-.292l29.251-8.321c.341.093.669.19.987.29Z" opacity=".3"/>
  <path fill="#F37E00" d="M276.772 150.676c0 .072-.007.144-.016.216-.399 2.491-7.662 4.483-16.535 4.483-8.872 0-16.135-1.992-16.535-4.483a1.744 1.744 0 0 1-.016-.216c0-2.591 7.425-4.699 16.551-4.699 9.127 0 16.551 2.108 16.551 4.699Z"/>
  <path fill="#F7A219" d="M276.756 150.892c-.4 2.491-7.662 4.483-16.535 4.483-.199 0-.395-.002-.591-.004a53.924 53.924 0 0 1-5.617-.339c-1.745-.201-3.344-.485-4.734-.833a26.121 26.121 0 0 1-1.021-.278c-1.482-.441-2.669-.963-3.461-1.541a4.092 4.092 0 0 1-.504-.425c-.342-.34-.547-.696-.607-1.063.399-2.491 7.662-4.483 16.535-4.483a57.3 57.3 0 0 1 4.877.208c2.132.187 4.081.493 5.751.891.36.086.709.176 1.043.271 1.3.367 2.388.796 3.203 1.268.795.461 1.331.963 1.557 1.493.051.115.085.233.104.352Z"/>
  <path fill="#FBE6A1" d="m276.652 150.539-17.022 4.833a53.914 53.914 0 0 1-5.617-.34l21.082-5.985c.795.461 1.331.963 1.557 1.492Zm-11.554-3.922-20.302 5.763a4.154 4.154 0 0 1-.503-.425l19.209-5.453c.541.03 1.074.069 1.596.115Zm6.794 1.162-22.613 6.42a26.121 26.121 0 0 1-1.021-.278l22.59-6.413c.361.086.709.176 1.044.271Z" opacity=".2"/>
  <path fill="#F37E00" d="M262.522 153.342v.781h-3.493v-.745c-2.477-.042-4.88-.232-6.366-.493l1.882-1.209c1.636.274 3.815.45 5.723.45 1.66 0 2.255-.099 2.255-.268 0-.619-9.588-.119-9.588-1.955 0-.795 2.032-1.463 6.095-1.625v-.766h3.493v.752c1.833.05 3.617.183 5.029.408l-1.759 1.203a33.984 33.984 0 0 0-4.831-.366c-1.709 0-2.254.141-2.254.31 0 .591 9.587.098 9.587 1.912-.001.76-1.933 1.421-5.773 1.611Z"/>
  <path fill="#FDD462" d="M262.421 153.082v.781h-3.493v-.745c-2.478-.042-4.881-.232-6.367-.493l1.883-1.209c1.635.274 3.815.45 5.723.45 1.66 0 2.254-.099 2.254-.268 0-.619-9.587-.119-9.587-1.955 0-.795 2.031-1.463 6.094-1.625v-.766h3.493v.752c1.833.05 3.617.183 5.029.408l-1.759 1.203a33.973 33.973 0 0 0-4.831-.366c-1.709 0-2.254.141-2.254.31 0 .591 9.588.098 9.588 1.912-.001.76-1.933 1.422-5.773 1.611Z"/>
  <path fill="#F7A219" d="m282.234 147.955.001.058c0 .718-.384 1.408-1.089 2.052a6.648 6.648 0 0 1-.574.463c-.588.424-1.319.823-2.175 1.194-.185.081-.377.16-.574.237-.663.261-1.391.506-2.175.731a36.516 36.516 0 0 1-3.323.781 48.665 48.665 0 0 1-2.749.436c-.706.092-1.431.172-2.174.24-.191.017-.382.034-.574.049a61.648 61.648 0 0 1-2.749.164c-.715.027-1.44.043-2.175.047l-.384.001h-.189a67.554 67.554 0 0 1-4.361-.154 49.753 49.753 0 0 1-1.138-.09 55.533 55.533 0 0 1-4.071-.509 46.768 46.768 0 0 1-1.426-.259 38.295 38.295 0 0 1-2.578-.604l-.171-.048a27.352 27.352 0 0 1-.906-.27 23.592 23.592 0 0 1-1.842-.67 13.097 13.097 0 0 1-1.929-.982 8.053 8.053 0 0 1-.533-.364c-.1-.074-.196-.15-.287-.226-.829-.691-1.283-1.439-1.283-2.22 0-.054.003-.109.008-.164l.002-4.42 1.273-.002.574-.001 2.175-.003.574-.001 1.697-.003h.477l.574-.002 2.175-.003.575-.001 2.174-.003.574-.001 2.174-.003.574-.001 2.175-.003.574-.001 2.175-.003.574-.001 2.175-.003.574-.001 2.175-.004h.574l2.174-.004h.574l2.175-.003.574-.001 2.175-.004.574-.001h.142l2.033-.003.574-.001 2.174-.003.574-.001 1.081-.001.008 4.587v.002Z"/>
  <path fill="#F37E00" d="M242.663 143.425v7.237a6.039 6.039 0 0 1-.287-.204 5.734 5.734 0 0 1-.287-.226v-6.805l.574-.002Zm2.748-.003v8.612a22.882 22.882 0 0 1-.574-.229v-8.382l.574-.001Zm2.749-.005v9.483l-.404-.107-.17-.048v-9.326l.574-.002Zm2.749-.003v10.093a44.975 44.975 0 0 1-.574-.111v-9.982h.574Zm2.749-.004v10.522c-.193-.024-.384-.05-.574-.076V143.41h.574Zm2.749-.004v10.807a34.099 34.099 0 0 1-.574-.049v-10.758h.574Zm2.748-.005v10.967a53.964 53.964 0 0 1-.574-.023v-10.942l.574-.002Zm2.75-.004v11.011l-.385.001h-.189v-11.01l.574-.002Zm2.748-.003v10.942c-.19.009-.382.018-.574.025v-10.967h.574Zm2.749-.005v10.758c-.191.017-.382.034-.574.049V143.39l.574-.001Zm2.748-.003v10.443c-.19.028-.381.053-.574.079v-10.522h.574Zm2.749-.005v9.977c-.189.039-.38.076-.574.113v-10.089l.574-.001Zm2.749-.004v9.313c-.188.054-.379.108-.574.16v-9.472l.574-.001Zm2.749-.004v8.349c-.185.081-.377.159-.574.237v-8.585l.574-.001Zm2.749-.004v6.695a6.47 6.47 0 0 1-.574.464v-7.158l.574-.001Z"/>
  <path fill="#FDD462" d="M282.23 143.424c0 3.246-9.27 5.879-20.708 5.879-1.563 0-3.085-.05-4.549-.143a60.278 60.278 0 0 1-5.208-.55 42.267 42.267 0 0 1-4.003-.793 29.072 29.072 0 0 1-1.077-.293c-1.523-.444-2.8-.956-3.77-1.517a8.305 8.305 0 0 1-.532-.335c-1.012-.693-1.57-1.452-1.57-2.248 0-.073.006-.146.017-.219.402-3.145 9.513-5.66 20.692-5.66 2.75 0 5.376.152 7.777.429.464.053.92.111 1.366.174 1.951.273 3.727.63 5.271 1.056.34.093.669.19.986.29 1.128.356 2.105.751 2.902 1.178.821.439 1.453.912 1.862 1.409.298.363.478.74.527 1.125.012.072.017.145.017.218Z"/>
  <path fill="#fff" d="m281.686 142.081-24.713 7.079a60.278 60.278 0 0 1-5.208-.55l28.059-7.939c.822.44 1.453.912 1.862 1.41Zm-11.021-3.934-27.75 7.859a8.305 8.305 0 0 1-.532-.335l26.916-7.698c.464.053.92.111 1.366.174Zm6.257 1.346-29.16 8.323a31.208 31.208 0 0 1-1.077-.292l29.251-8.322c.341.094.669.191.986.291Z" opacity=".3"/>
  <path fill="#F37E00" d="M278.073 143.423c0 .072-.006.144-.016.216-.399 2.491-7.662 4.482-16.535 4.482-8.872 0-16.135-1.991-16.534-4.482a1.572 1.572 0 0 1-.017-.216c0-2.591 7.425-4.699 16.552-4.699 9.126 0 16.55 2.108 16.55 4.699Z"/>
  <path fill="#F7A219" d="M278.057 143.639c-.4 2.492-7.662 4.483-16.535 4.483a54.2 54.2 0 0 1-6.208-.342c-1.745-.202-3.344-.485-4.734-.834a24.469 24.469 0 0 1-1.021-.278c-1.482-.441-2.669-.963-3.461-1.541a3.924 3.924 0 0 1-.504-.425c-.342-.34-.547-.696-.607-1.063.399-2.491 7.662-4.483 16.535-4.483a57.3 57.3 0 0 1 4.877.208c2.132.187 4.08.493 5.75.891.361.086.709.176 1.044.272 1.3.367 2.388.795 3.203 1.268.795.461 1.33.963 1.557 1.492.051.116.085.234.104.352Z"/>
  <path fill="#FBE6A1" d="m277.953 143.287-17.022 4.832a53.914 53.914 0 0 1-5.617-.34l21.083-5.985c.794.461 1.33.964 1.556 1.493Zm-11.554-3.923-20.301 5.763a4.092 4.092 0 0 1-.504-.425l19.209-5.454c.541.031 1.075.07 1.596.116Zm6.795 1.163-22.614 6.419a24.469 24.469 0 0 1-1.021-.278l22.59-6.413c.361.086.71.176 1.045.272Z" opacity=".2"/>
  <path fill="#F37E00" d="M263.824 146.09v.78h-3.493v-.745c-2.477-.043-4.881-.232-6.367-.493l1.883-1.209c1.635.274 3.815.449 5.723.449 1.66 0 2.254-.098 2.254-.267 0-.619-9.587-.119-9.587-1.955 0-.795 2.031-1.463 6.094-1.625v-.766h3.493v.752c1.834.05 3.617.183 5.029.408l-1.759 1.203a33.96 33.96 0 0 0-4.83-.366c-1.71 0-2.255.14-2.255.309 0 .591 9.587.099 9.587 1.913 0 .761-1.932 1.422-5.772 1.612Z"/>
  <path fill="#FDD462" d="M263.722 145.83v.78h-3.493v-.746c-2.477-.042-4.88-.232-6.367-.492l1.883-1.21c1.635.275 3.815.45 5.723.45 1.66 0 2.254-.098 2.254-.267 0-.619-9.587-.119-9.587-1.955 0-.795 2.031-1.463 6.094-1.625v-.766h3.493v.752c1.833.049 3.617.183 5.029.408l-1.758 1.203a33.984 33.984 0 0 0-4.831-.366c-1.709 0-2.255.141-2.255.309 0 .591 9.588.099 9.588 1.913-.001.761-1.933 1.422-5.773 1.612Z"/>
  <path fill="#F7A219" d="m282.044 140.704.001.058c0 .718-.383 1.408-1.089 2.051a6.192 6.192 0 0 1-.574.464c-.587.424-1.319.823-2.175 1.194-.185.081-.377.159-.574.237-.663.261-1.391.506-2.174.731a36.7 36.7 0 0 1-3.323.781 48.904 48.904 0 0 1-2.749.436 56.953 56.953 0 0 1-2.749.29 64.105 64.105 0 0 1-4.923.21 48.9 48.9 0 0 1-.384.002l-.19-.001a67.491 67.491 0 0 1-4.36-.154 48.086 48.086 0 0 1-1.138-.09 57.113 57.113 0 0 1-2.749-.309 48.6 48.6 0 0 1-2.748-.459 38.1 38.1 0 0 1-2.175-.496c-.136-.035-.271-.072-.404-.108a25.201 25.201 0 0 1-2.345-.759 21.453 21.453 0 0 1-.574-.229 13.098 13.098 0 0 1-1.929-.981 7.999 7.999 0 0 1-.819-.591c-.83-.691-1.283-1.439-1.283-2.219 0-.055.002-.11.007-.165l.003-4.42 1.273-.001.574-.001 2.174-.003.574-.002 1.698-.002.477-.001.574-.001 2.175-.003.574-.001 2.175-.003.574-.001 2.174-.003.574-.001 2.175-.003.574-.001 2.175-.003.574-.001 2.175-.003.574-.001 2.174-.004h.575l2.174-.004h.574l2.175-.003.574-.001 2.175-.004.574-.001h.142l2.033-.003.574-.001 2.175-.003.574-.001 1.081-.001.008 4.587h-.002v.001Z"/>
  <path fill="#F37E00" d="M242.473 136.175v7.237a10.19 10.19 0 0 1-.287-.204c-.1-.074-.196-.15-.287-.226v-6.806l.574-.001Zm2.749-.003v8.612a25.434 25.434 0 0 1-.574-.229v-8.382l.574-.001Zm2.749-.005v9.483c-.136-.035-.271-.072-.404-.108l-.171-.047v-9.327l.575-.001Zm2.749-.004v10.093a32.43 32.43 0 0 1-.574-.11v-9.982l.574-.001Zm2.749-.004v10.522a33.182 33.182 0 0 1-.574-.076V136.16l.574-.001Zm2.748-.004v10.807a53.263 53.263 0 0 1-.574-.048v-10.758l.574-.001Zm2.749-.004v10.966a53.002 53.002 0 0 1-.574-.022v-10.943l.574-.001Zm2.749-.004v11.011l-.384.001-.19-.001v-11.01l.574-.001Zm2.749-.004v10.943a53.93 53.93 0 0 1-.574.024v-10.966l.574-.001Zm2.748-.004v10.758c-.19.017-.381.034-.574.049v-10.807h.574Zm2.749-.004v10.444c-.19.027-.381.053-.574.078v-10.521l.574-.001Zm2.749-.004v9.977c-.19.038-.381.076-.575.112v-10.088l.575-.001Zm2.749-.004v9.313c-.188.054-.379.108-.574.159v-9.471l.574-.001Zm2.749-.004v8.349c-.186.08-.378.159-.574.236v-8.584l.574-.001Zm2.748-.004v6.695a6.187 6.187 0 0 1-.574.463v-7.158h.574Z"/>
  <path fill="#FDD462" d="M282.04 136.172c0 3.247-9.27 5.879-20.708 5.879a71.89 71.89 0 0 1-4.549-.142 60.32 60.32 0 0 1-5.208-.55 42.637 42.637 0 0 1-4.003-.794 29.097 29.097 0 0 1-1.077-.292c-1.523-.444-2.8-.956-3.769-1.518a7.914 7.914 0 0 1-.533-.335c-1.011-.692-1.569-1.451-1.569-2.248 0-.072.005-.145.017-.218.401-3.145 9.512-5.66 20.691-5.66 2.751 0 5.377.152 7.778.428.463.054.919.112 1.365.174 1.951.273 3.728.631 5.271 1.056.341.094.67.191.987.291 1.128.355 2.104.751 2.901 1.177.822.44 1.453.913 1.862 1.41.298.363.479.739.527 1.124.012.073.017.146.017.218Z"/>
  <path fill="#fff" d="m281.496 134.83-24.713 7.079a60.362 60.362 0 0 1-5.208-.55l28.06-7.939c.821.44 1.452.913 1.861 1.41Zm-11.021-3.934-27.749 7.859a7.914 7.914 0 0 1-.533-.335l26.917-7.698c.463.054.919.111 1.365.174Zm6.258 1.346-29.161 8.324a29.072 29.072 0 0 1-1.077-.293l29.252-8.321c.34.094.668.191.986.29Z" opacity=".3"/>
  <path fill="#F37E00" d="M277.883 136.172c0 .073-.006.145-.016.216-.399 2.491-7.662 4.483-16.535 4.483-8.872 0-16.135-1.992-16.534-4.483a1.56 1.56 0 0 1-.017-.216c0-2.591 7.425-4.698 16.552-4.698 9.127 0 16.55 2.107 16.55 4.698Z"/>
  <path fill="#F7A219" d="M277.867 136.389c-.399 2.491-7.662 4.483-16.535 4.483a53.904 53.904 0 0 1-6.207-.343c-1.746-.201-3.344-.485-4.734-.833a25.649 25.649 0 0 1-1.021-.278c-1.483-.441-2.67-.964-3.462-1.542a3.924 3.924 0 0 1-.504-.425c-.341-.34-.547-.696-.607-1.062.4-2.492 7.663-4.484 16.535-4.484a57.3 57.3 0 0 1 4.877.208c2.132.187 4.081.493 5.751.891.36.086.708.177 1.043.272 1.3.367 2.388.795 3.203 1.268.795.46 1.331.963 1.557 1.492.051.116.086.234.104.353Z"/>
  <path fill="#FBE6A1" d="m277.763 136.036-17.022 4.832a53.887 53.887 0 0 1-5.616-.339l21.082-5.985c.794.46 1.33.963 1.556 1.492Zm-11.553-3.923-20.302 5.763a3.993 3.993 0 0 1-.503-.425l19.209-5.454c.54.032 1.074.07 1.596.116Zm6.794 1.162-22.614 6.42a26.121 26.121 0 0 1-1.021-.278l22.591-6.413c.36.086.709.176 1.044.271Z" opacity=".2"/>
  <path fill="#F37E00" d="M263.634 138.839v.78h-3.493v-.745c-2.477-.043-4.88-.232-6.367-.493l1.883-1.21c1.635.275 3.815.45 5.723.45 1.66 0 2.254-.098 2.254-.267 0-.619-9.587-.119-9.587-1.955 0-.795 2.031-1.463 6.094-1.625v-.766h3.493v.752c1.833.049 3.617.183 5.029.408l-1.759 1.203a33.96 33.96 0 0 0-4.83-.366c-1.71 0-2.255.141-2.255.309 0 .591 9.587.099 9.587 1.914 0 .76-1.932 1.421-5.772 1.611Z"/>
  <path fill="#FDD462" d="M263.532 138.579v.78h-3.493v-.745c-2.477-.042-4.88-.232-6.367-.493l1.883-1.209c1.635.274 3.815.45 5.723.45 1.66 0 2.254-.099 2.254-.268 0-.619-9.587-.119-9.587-1.955 0-.794 2.031-1.463 6.094-1.625v-.766h3.493v.752c1.834.05 3.617.183 5.029.408l-1.758 1.203a33.984 33.984 0 0 0-4.831-.366c-1.709 0-2.255.141-2.255.309 0 .591 9.588.099 9.588 1.913 0 .761-1.933 1.422-5.773 1.612Z"/>
  <path fill="#F7A219" d="M283.585 134.217v.059c0 .717-.383 1.407-1.089 2.051a6.187 6.187 0 0 1-.574.463c-.587.424-1.318.824-2.174 1.195-.186.08-.378.159-.574.236-.664.262-1.391.506-2.175.732a36.684 36.684 0 0 1-3.323.78c-.698.132-1.424.252-2.175.358-.19.028-.381.053-.574.079a56.953 56.953 0 0 1-2.749.289 61.436 61.436 0 0 1-2.748.164c-.715.027-1.44.043-2.175.047l-.384.001-.19-.001a67.463 67.463 0 0 1-2.749-.063 67.959 67.959 0 0 1-2.175-.133 57.387 57.387 0 0 1-3.323-.356 48.569 48.569 0 0 1-2.748-.46 37.265 37.265 0 0 1-2.749-.651 27.396 27.396 0 0 1-.907-.271 21.427 21.427 0 0 1-1.842-.67 13.098 13.098 0 0 1-1.929-.981 7.577 7.577 0 0 1-.82-.591c-.829-.69-1.283-1.439-1.283-2.219a1.8 1.8 0 0 1 .008-.164l.002-4.42 1.273-.002.574-.001 2.175-.003.574-.001 1.697-.003h.478l.574-.002 2.175-.003h.574l2.174-.004h.574l2.175-.004h.574l2.174-.004.574-.001 2.175-.003.574-.001 2.175-.003.574-.001 2.175-.003.574-.001 2.175-.003.574-.001 2.175-.003.574-.001 2.175-.003.574-.002h.142l2.033-.003h.574l2.174-.004h.574l1.081-.002.008 4.587v.001Z"/>
  <path fill="#F37E00" d="M244.014 129.688v7.237a6.637 6.637 0 0 1-.575-.43v-6.806l.575-.001Zm2.748-.004v8.612a21.453 21.453 0 0 1-.574-.229v-8.382l.574-.001Zm2.749-.004v9.483c-.136-.035-.271-.072-.404-.108a4.736 4.736 0 0 1-.17-.048v-9.326l.574-.001Zm2.749-.003v10.093a44.975 44.975 0 0 1-.574-.111v-9.982h.574Zm2.749-.005v10.522a33.182 33.182 0 0 1-.574-.076v-10.445l.574-.001Zm2.749-.004v10.807a49.305 49.305 0 0 1-.574-.048v-10.758l.574-.001Zm2.748-.004v10.966a54 54 0 0 1-.574-.022v-10.943l.574-.001Zm2.749-.004v11.01l-.384.001h-.19v-11.01l.574-.001Zm2.749-.004v10.943a53.93 53.93 0 0 1-.574.024v-10.966l.574-.001Zm2.748-.004v10.758c-.19.017-.381.034-.574.049v-10.807h.574Zm2.749-.004v10.444c-.19.027-.381.053-.574.078v-10.521l.574-.001Zm2.749-.005v9.978c-.19.038-.381.076-.574.112v-10.088l.574-.002Zm2.749-.004v9.314a31.15 31.15 0 0 1-.574.159v-9.472l.574-.001Zm2.749-.003v8.349c-.186.08-.378.159-.574.236v-8.585h.574Zm2.748-.004v6.695a6.187 6.187 0 0 1-.574.463v-7.158h.574Z"/>
  <path fill="#FDD462" d="M283.58 129.686c0 3.247-9.269 5.879-20.708 5.879-1.562 0-3.085-.05-4.548-.143a60.278 60.278 0 0 1-5.208-.55 42.267 42.267 0 0 1-4.003-.793 28.546 28.546 0 0 1-1.077-.293c-1.523-.443-2.8-.955-3.77-1.518a7.913 7.913 0 0 1-.533-.334c-1.011-.693-1.569-1.452-1.569-2.248 0-.073.005-.146.017-.219.402-3.145 9.512-5.66 20.691-5.66 2.752 0 5.377.152 7.778.429.464.053.92.111 1.366.174 1.951.273 3.727.63 5.271 1.055.34.094.669.191.986.291 1.128.356 2.105.751 2.902 1.177.821.44 1.452.913 1.862 1.41.298.363.478.739.527 1.125.012.072.016.145.016.218Z"/>
  <path fill="#fff" d="m283.037 128.343-24.713 7.08a60.32 60.32 0 0 1-5.208-.55l28.06-7.939c.821.439 1.452.912 1.861 1.409Zm-11.021-3.933-27.749 7.859a7.914 7.914 0 0 1-.533-.335l26.917-7.698c.463.053.918.111 1.365.174Zm6.257 1.346-29.16 8.323a28.546 28.546 0 0 1-1.077-.293l29.251-8.321c.34.094.669.191.986.291Z" opacity=".3"/>
  <path fill="#F37E00" d="M279.424 129.686c0 .072-.007.145-.016.216-.4 2.491-7.663 4.483-16.535 4.483-8.873 0-16.136-1.992-16.535-4.483a1.744 1.744 0 0 1-.016-.216c0-2.591 7.424-4.698 16.551-4.698 9.127 0 16.551 2.107 16.551 4.698Z"/>
  <path fill="#F7A219" d="M279.408 129.902c-.4 2.491-7.663 4.483-16.535 4.483a53.924 53.924 0 0 1-6.208-.343c-1.745-.201-3.344-.485-4.734-.833a26.121 26.121 0 0 1-1.021-.278c-1.482-.441-2.669-.963-3.462-1.541a4.066 4.066 0 0 1-.503-.425c-.342-.34-.547-.696-.607-1.063.399-2.491 7.662-4.483 16.535-4.483a57.3 57.3 0 0 1 4.877.208c2.132.187 4.081.493 5.75.891.361.086.709.176 1.044.271 1.3.368 2.388.796 3.203 1.268.795.461 1.33.963 1.557 1.492.051.116.085.234.104.353Z"/>
  <path fill="#FBE6A1" d="m279.304 129.549-17.022 4.832a53.924 53.924 0 0 1-5.617-.339l21.083-5.985c.794.461 1.329.963 1.556 1.492Zm-11.554-3.922-20.302 5.763a4.154 4.154 0 0 1-.503-.425l19.209-5.453c.541.03 1.074.069 1.596.115Zm6.794 1.162-22.613 6.42a24.054 24.054 0 0 1-1.021-.278l22.59-6.413c.361.086.709.177 1.044.271Z" opacity=".2"/>
  <path fill="#F37E00" d="M265.174 132.352v.78h-3.493v-.746c-2.477-.042-4.88-.232-6.367-.492l1.883-1.21c1.635.275 3.815.45 5.723.45 1.66 0 2.255-.098 2.255-.267 0-.619-9.588-.119-9.588-1.955 0-.795 2.032-1.463 6.095-1.625v-.766h3.493v.752c1.833.049 3.616.183 5.028.408l-1.758 1.203a33.984 33.984 0 0 0-4.831-.366c-1.71 0-2.255.141-2.255.309 0 .591 9.588.099 9.588 1.913 0 .761-1.933 1.422-5.773 1.612Z"/>
  <path fill="#FDD462" d="M265.073 132.092v.781h-3.493v-.746c-2.478-.042-4.881-.232-6.367-.492l1.883-1.21c1.635.275 3.815.45 5.722.45 1.66 0 2.255-.098 2.255-.267 0-.619-9.587-.119-9.587-1.955 0-.795 2.031-1.463 6.094-1.625v-.767h3.493v.753c1.833.049 3.617.183 5.029.408l-1.759 1.203a33.973 33.973 0 0 0-4.831-.366c-1.709 0-2.254.14-2.254.309 0 .591 9.587.099 9.587 1.913 0 .76-1.932 1.421-5.772 1.611Z"/>
  <path fill="#F7A219" d="m280.427 126.995.001.059c0 .717-.383 1.407-1.089 2.051a6.187 6.187 0 0 1-.574.463c-.587.424-1.318.824-2.174 1.195-.186.08-.377.159-.574.236-.664.262-1.391.506-2.175.732a36.87 36.87 0 0 1-3.323.78 47.49 47.49 0 0 1-2.175.358c-.19.028-.381.053-.574.079a56.953 56.953 0 0 1-2.749.289 61.367 61.367 0 0 1-2.749.164 70.24 70.24 0 0 1-2.558.048l-.19-.001a67.516 67.516 0 0 1-2.749-.063 67.959 67.959 0 0 1-2.175-.133 57.113 57.113 0 0 1-3.322-.357 44.548 44.548 0 0 1-2.749-.459 37.265 37.265 0 0 1-2.749-.651 27.396 27.396 0 0 1-.907-.271 21.427 21.427 0 0 1-1.842-.67 13.134 13.134 0 0 1-1.928-.981 6.989 6.989 0 0 1-.246-.161 6.85 6.85 0 0 1-.574-.43c-.83-.69-1.283-1.439-1.283-2.219 0-.055.002-.11.008-.164l.002-4.42 1.273-.002.574-.001 2.174-.003.575-.001 1.697-.003.477-.001.574-.001 2.175-.003.574-.001 2.175-.003.574-.001 2.175-.003.574-.001 2.174-.003.574-.001 2.176-.003.574-.001 2.174-.003.574-.001 2.175-.003.574-.001 2.175-.003.574-.001 2.174-.003.575-.002 2.175-.003.574-.001h.141l2.033-.003.574-.001 2.175-.003.574-.001 1.081-.002.008 4.588h-.002v.001Z"/>
  <path fill="#F37E00" d="M240.856 122.466v7.236a8.478 8.478 0 0 1-.287-.203 8.987 8.987 0 0 1-.287-.226v-6.806l.574-.001Zm2.749-.004v8.612a21.453 21.453 0 0 1-.574-.229v-8.382l.574-.001Zm2.748-.004v9.483l-.403-.108-.171-.048v-9.326l.574-.001Zm2.75-.004v10.093a65.624 65.624 0 0 1-.574-.11v-9.982l.574-.001Zm2.748-.004v10.522a33.182 33.182 0 0 1-.574-.076v-10.445l.574-.001Zm2.749-.004v10.807a51.208 51.208 0 0 1-.574-.048v-10.758l.574-.001Zm2.749-.004v10.966a52.041 52.041 0 0 1-.574-.022v-10.943l.574-.001Zm2.749-.004v11.01a48.9 48.9 0 0 1-.384.002l-.19-.001v-11.01l.574-.001Zm2.749-.004v10.943a53.93 53.93 0 0 1-.574.024v-10.966l.574-.001Zm2.748-.004v10.758l-.574.049V122.43h.574Zm2.749-.004v10.443c-.19.028-.381.053-.574.079v-10.521l.574-.001Zm2.748-.005v9.977c-.189.039-.38.077-.574.113v-10.089l.574-.001Zm2.75-.004v9.314a31.15 31.15 0 0 1-.574.159v-9.472l.574-.001Zm2.748-.003v8.349c-.185.08-.377.159-.574.236v-8.585h.574Zm2.749-.004v6.695a6.323 6.323 0 0 1-.574.463v-7.158h.574Z"/>
  <path fill="#FDD462" d="M280.423 122.464c0 3.247-9.27 5.879-20.708 5.879a71.89 71.89 0 0 1-4.549-.142 60.32 60.32 0 0 1-5.208-.55 42.637 42.637 0 0 1-4.003-.794 31.208 31.208 0 0 1-1.077-.292c-1.523-.444-2.8-.956-3.769-1.518a7.914 7.914 0 0 1-.533-.335c-1.011-.692-1.569-1.452-1.569-2.248 0-.072.005-.145.017-.218.401-3.145 9.512-5.661 20.691-5.661 2.751 0 5.377.153 7.778.429.464.054.919.112 1.366.174 1.95.273 3.727.631 5.27 1.056.341.094.67.191.987.291 1.128.355 2.104.751 2.901 1.177.822.44 1.453.913 1.862 1.41.299.363.479.739.528 1.124.012.073.016.146.016.218Z"/>
  <path fill="#fff" d="m279.879 121.121-24.713 7.079a60.32 60.32 0 0 1-5.208-.55l28.06-7.939c.821.44 1.452.913 1.861 1.41Zm-11.02-3.933-27.75 7.859a8.337 8.337 0 0 1-.533-.335l26.917-7.698c.464.053.919.111 1.366.174Zm6.257 1.346-29.16 8.323a29.097 29.097 0 0 1-1.077-.292l29.251-8.321c.34.094.669.19.986.29Z" opacity=".3"/>
  <path fill="#F37E00" d="M276.267 122.464c0 .073-.007.145-.016.216-.4 2.492-7.663 4.483-16.535 4.483-8.873 0-16.136-1.992-16.535-4.483a1.73 1.73 0 0 1-.016-.216c0-2.591 7.424-4.698 16.551-4.698 9.126 0 16.551 2.107 16.551 4.698Z"/>
  <path fill="#F7A219" d="M276.251 122.68c-.4 2.492-7.663 4.483-16.535 4.483a54.17 54.17 0 0 1-6.208-.343c-1.746-.201-3.344-.484-4.734-.833a26.121 26.121 0 0 1-1.021-.278c-1.482-.441-2.67-.963-3.462-1.541a4.066 4.066 0 0 1-.503-.425c-.342-.34-.548-.696-.608-1.063.4-2.491 7.663-4.483 16.535-4.483a57.31 57.31 0 0 1 4.878.208c2.132.187 4.08.493 5.75.891.361.086.709.176 1.044.272 1.3.367 2.388.795 3.203 1.268.794.461 1.33.963 1.556 1.492.051.115.086.233.105.352Z"/>
  <path fill="#FBE6A1" d="m276.147 122.327-17.023 4.833a54.17 54.17 0 0 1-5.616-.34l21.082-5.985c.795.461 1.33.963 1.557 1.492Zm-11.554-3.922-20.302 5.763a3.993 3.993 0 0 1-.503-.425l19.209-5.453c.541.031 1.074.069 1.596.115Zm6.794 1.162-22.614 6.42a26.063 26.063 0 0 1-1.02-.278l22.59-6.413c.36.086.709.176 1.044.271Z" opacity=".2"/>
  <path fill="#F37E00" d="M262.017 125.13v.781h-3.493v-.746c-2.477-.042-4.88-.232-6.367-.492l1.883-1.21c1.635.275 3.815.45 5.723.45 1.66 0 2.254-.098 2.254-.267 0-.619-9.587-.119-9.587-1.955 0-.795 2.031-1.463 6.094-1.625v-.766h3.493v.752c1.833.049 3.617.183 5.029.408l-1.759 1.203a33.96 33.96 0 0 0-4.83-.366c-1.71 0-2.255.141-2.255.309 0 .591 9.587.099 9.587 1.913 0 .76-1.932 1.421-5.772 1.611Z"/>
  <path fill="#FDD462" d="M261.915 124.871v.78h-3.493v-.745c-2.477-.042-4.88-.232-6.366-.492l1.882-1.21c1.635.274 3.816.45 5.723.45 1.66 0 2.255-.099 2.255-.267 0-.619-9.588-.12-9.588-1.956 0-.794 2.032-1.462 6.095-1.624v-.767h3.493v.753c1.833.049 3.617.182 5.029.408l-1.759 1.202a33.976 33.976 0 0 0-4.831-.365c-1.709 0-2.254.14-2.254.309 0 .591 9.587.098 9.587 1.913 0 .76-1.933 1.421-5.773 1.611Z"/>
  <path fill="#F7A219" d="M282.814 119.714v.058c0 .718-.383 1.408-1.088 2.051a6.47 6.47 0 0 1-.574.464c-.588.424-1.319.823-2.175 1.194-.185.081-.377.159-.574.237-.663.261-1.391.506-2.174.731a36.091 36.091 0 0 1-3.324.781 48.855 48.855 0 0 1-2.748.436c-.706.092-1.432.172-2.175.24a64 64 0 0 1-5.498.26 48.9 48.9 0 0 1-.384.002l-.189-.001a67.437 67.437 0 0 1-2.175-.041 67.872 67.872 0 0 1-3.323-.203 55.38 55.38 0 0 1-4.072-.509 46.888 46.888 0 0 1-1.426-.259 38.295 38.295 0 0 1-2.175-.496c-.136-.035-.27-.072-.403-.108a25.201 25.201 0 0 1-2.345-.759 21.538 21.538 0 0 1-.575-.229 13.134 13.134 0 0 1-1.928-.981 8.06 8.06 0 0 1-.82-.591c-.829-.691-1.282-1.439-1.282-2.219 0-.055.002-.11.007-.165l.002-4.42 1.273-.001.574-.001 2.175-.003.574-.002 1.697-.002.478-.001.574-.001 2.175-.003.574-.001 2.175-.003.574-.001 2.174-.003.574-.001 2.175-.003.574-.001 2.175-.003.574-.001 2.175-.003.574-.001 2.175-.004h.574l2.174-.004h.574l2.175-.003.574-.001 2.175-.004.574-.001h.142l2.033-.003.574-.001 2.175-.003.574-.001 1.081-.002.008 4.588h-.002v.001Z"/>
  <path fill="#F37E00" d="M243.243 115.186v7.236a6.85 6.85 0 0 1-.574-.43v-6.805l.574-.001Zm2.749-.004v8.612a25.54 25.54 0 0 1-.575-.229v-8.382l.575-.001Zm2.748-.005v9.483c-.136-.035-.271-.072-.404-.108a8.429 8.429 0 0 1-.17-.047v-9.327l.574-.001Zm2.749-.003v10.093a44.975 44.975 0 0 1-.574-.111v-9.981l.574-.001Zm2.749-.004v10.522c-.193-.024-.384-.05-.574-.076V115.17h.574Zm2.749-.004v10.807a34.099 34.099 0 0 1-.574-.049v-10.758h.574Zm2.748-.005v10.966a53.002 53.002 0 0 1-.574-.022v-10.943l.574-.001Zm2.75-.004v11.011l-.384.001-.19-.001v-11.01l.574-.001Zm2.748-.003v10.942c-.19.009-.382.018-.574.025v-10.967h.574Zm2.749-.005v10.758c-.191.018-.382.034-.575.05V115.15l.575-.001Zm2.748-.004v10.444c-.19.027-.381.053-.574.078v-10.521l.574-.001Zm2.749-.004v9.977c-.189.039-.38.077-.574.113v-10.089l.574-.001Zm2.749-.004v9.313c-.188.054-.379.108-.574.16v-9.472l.574-.001Zm2.749-.004v8.349c-.186.081-.378.16-.574.237v-8.585l.574-.001Zm2.749-.004v6.696a6.648 6.648 0 0 1-.574.463v-7.158l.574-.001Z"/>
  <path fill="#FDD462" d="M282.81 115.183c0 3.246-9.27 5.878-20.708 5.878a71.89 71.89 0 0 1-4.549-.142 60.278 60.278 0 0 1-5.208-.55 42.204 42.204 0 0 1-4.003-.793 30.574 30.574 0 0 1-1.077-.293c-1.523-.444-2.8-.956-3.77-1.517a8.305 8.305 0 0 1-.532-.335c-1.011-.693-1.569-1.452-1.569-2.248 0-.073.005-.146.016-.219.402-3.145 9.513-5.66 20.692-5.66 2.75 0 5.376.152 7.777.429.464.053.92.111 1.366.174 1.951.273 3.727.63 5.271 1.056.34.093.669.19.986.29 1.128.356 2.105.751 2.902 1.178.821.439 1.453.912 1.862 1.409.298.363.478.739.527 1.125.012.072.017.145.017.218Z"/>
  <path fill="#fff" d="m282.266 113.84-24.713 7.079a60.362 60.362 0 0 1-5.208-.55l28.06-7.939c.821.439 1.452.912 1.861 1.41Zm-11.021-3.934-27.749 7.859a8.336 8.336 0 0 1-.533-.334l26.917-7.699c.463.054.919.112 1.365.174Zm6.257 1.347-29.16 8.323a30.574 30.574 0 0 1-1.077-.293l29.251-8.321c.34.094.669.19.986.291Z" opacity=".3"/>
  <path fill="#F37E00" d="M278.653 115.183c0 .072-.007.144-.016.215-.4 2.492-7.663 4.483-16.535 4.483s-16.135-1.991-16.535-4.483a1.714 1.714 0 0 1-.016-.215c0-2.591 7.425-4.699 16.551-4.699 9.126 0 16.551 2.108 16.551 4.699Z"/>
  <path fill="#F7A219" d="M278.637 115.398c-.4 2.492-7.663 4.483-16.535 4.483a54.183 54.183 0 0 1-6.208-.342c-1.745-.202-3.344-.485-4.734-.834a24.469 24.469 0 0 1-1.021-.278c-1.482-.441-2.669-.963-3.462-1.541a3.98 3.98 0 0 1-.503-.425c-.342-.34-.547-.696-.607-1.063.399-2.491 7.662-4.483 16.535-4.483a57.3 57.3 0 0 1 4.877.208c2.131.187 4.08.493 5.75.891.361.086.709.176 1.044.272 1.3.367 2.388.795 3.203 1.267.794.461 1.33.963 1.556 1.493.052.116.086.234.105.352Z"/>
  <path fill="#FBE6A1" d="m278.533 115.046-17.022 4.832a53.887 53.887 0 0 1-5.616-.339l21.082-5.985c.794.46 1.33.963 1.556 1.492Zm-11.554-3.923-20.301 5.763a3.993 3.993 0 0 1-.504-.425l19.209-5.453c.541.031 1.074.07 1.596.115Zm6.795 1.163-22.614 6.42a26.121 26.121 0 0 1-1.021-.278l22.591-6.413c.36.085.708.176 1.044.271Z" opacity=".2"/>
  <path fill="#F37E00" d="M264.403 117.849v.78h-3.493v-.745c-2.477-.042-4.88-.232-6.366-.493l1.882-1.209c1.635.274 3.816.45 5.723.45 1.66 0 2.255-.099 2.255-.268 0-.619-9.587-.119-9.587-1.955 0-.795 2.031-1.463 6.094-1.625v-.766h3.493v.752c1.833.05 3.617.183 5.029.408l-1.759 1.203a33.984 33.984 0 0 0-4.831-.366c-1.709 0-2.254.141-2.254.31 0 .59 9.587.098 9.587 1.912 0 .761-1.932 1.422-5.773 1.612Z"/>
  <path fill="#FDD462" d="M264.302 117.589v.781h-3.493v-.746c-2.478-.042-4.881-.232-6.367-.493l1.883-1.209c1.635.274 3.815.45 5.722.45 1.66 0 2.255-.099 2.255-.267 0-.619-9.587-.12-9.587-1.956 0-.794 2.031-1.463 6.094-1.624v-.767h3.493v.753c1.833.049 3.617.182 5.029.407l-1.759 1.203a33.973 33.973 0 0 0-4.831-.366c-1.709 0-2.254.141-2.254.31 0 .591 9.587.098 9.587 1.913 0 .76-1.932 1.421-5.772 1.611Z"/>
  <path fill="#F7A219" d="M283.099 112.41v.059c0 .717-.383 1.407-1.089 2.051a6.187 6.187 0 0 1-.574.463c-.587.424-1.318.824-2.174 1.195-.186.08-.378.159-.574.236-.664.262-1.391.506-2.175.732a36.684 36.684 0 0 1-3.323.78 47.49 47.49 0 0 1-2.749.437 59.047 59.047 0 0 1-4.923.429c-.191.008-.382.017-.574.024-.715.026-1.44.043-2.175.047l-.384.001-.19-.001a67.463 67.463 0 0 1-2.749-.063 67.959 67.959 0 0 1-2.175-.133 57.387 57.387 0 0 1-3.323-.357 48.6 48.6 0 0 1-2.748-.459 37.265 37.265 0 0 1-2.175-.496c-.136-.035-.271-.072-.404-.108a27.396 27.396 0 0 1-1.077-.318 21.427 21.427 0 0 1-1.842-.67 13.098 13.098 0 0 1-1.929-.981 6.486 6.486 0 0 1-.245-.161 6.039 6.039 0 0 1-.287-.204 5.734 5.734 0 0 1-.287-.226c-.83-.691-1.283-1.439-1.283-2.219 0-.055.003-.11.008-.164l.002-4.42 1.273-.002.574-.001 2.175-.003.574-.002 1.697-.002.477-.001.575-.001 2.175-.003h.574l2.174-.004.575-.001 2.174-.003.574-.001 2.174-.003.574-.001 2.175-.003.575-.001 2.174-.003.574-.001 2.175-.003.574-.001 2.175-.004h.574l2.174-.003.574-.001 2.176-.003.574-.001h.141l2.033-.003.574-.001 2.175-.004h.574l1.081-.002.008 4.587h-.001v.001Z"/>
  <path fill="#F37E00" d="M243.528 107.881v7.236a6.85 6.85 0 0 1-.574-.429v-6.806l.574-.001Zm2.748-.004v8.613a25.434 25.434 0 0 1-.574-.229v-8.382l.574-.002Zm2.749-.004v9.483c-.136-.035-.271-.072-.404-.108-.057-.015-.114-.032-.17-.048v-9.326l.574-.001Zm2.749-.004v10.093a65.624 65.624 0 0 1-.574-.11v-9.982l.574-.001Zm2.749-.004v10.522a33.182 33.182 0 0 1-.574-.076v-10.445l.574-.001Zm2.748-.004v10.807a53.263 53.263 0 0 1-.574-.048v-10.758l.574-.001Zm2.749-.004v10.966a52.041 52.041 0 0 1-.574-.022v-10.943l.574-.001Zm2.749-.004v11.01l-.384.001h-.19v-11.01l.574-.001Zm2.749-.004v10.943a53.93 53.93 0 0 1-.574.024V107.85l.574-.001Zm2.748-.004v10.758c-.19.017-.381.034-.574.049v-10.807h.574Zm2.749-.004v10.444c-.19.027-.381.053-.574.078v-10.521l.574-.001Zm2.749-.005v9.978c-.19.038-.381.076-.574.112v-10.088l.574-.002Zm2.749-.004v9.314a31.15 31.15 0 0 1-.574.159v-9.472l.574-.001Zm2.749-.003v8.349c-.185.08-.377.159-.574.236v-8.585h.574Zm2.748-.004v6.695a6.187 6.187 0 0 1-.574.463v-7.158h.574Z"/>
  <path fill="#FDD462" d="M283.095 107.879c0 3.247-9.27 5.879-20.708 5.879a71.89 71.89 0 0 1-4.549-.142 60.675 60.675 0 0 1-5.208-.55 42.509 42.509 0 0 1-4.003-.794 31.208 31.208 0 0 1-1.077-.292c-1.523-.444-2.8-.956-3.77-1.518a8.305 8.305 0 0 1-.532-.335c-1.012-.693-1.57-1.452-1.57-2.248 0-.073.006-.146.017-.219.402-3.145 9.513-5.66 20.692-5.66 2.75 0 5.376.152 7.777.429.464.053.92.111 1.366.174 1.951.273 3.727.63 5.271 1.056.34.093.669.19.986.29 1.128.356 2.105.751 2.902 1.178.821.439 1.453.912 1.862 1.409.298.363.478.739.527 1.125.012.073.017.146.017.218Z"/>
  <path fill="#fff" d="m282.551 106.537-24.713 7.079a60.278 60.278 0 0 1-5.208-.55l28.059-7.939c.822.439 1.453.912 1.862 1.41Zm-11.021-3.934-27.75 7.859a8.305 8.305 0 0 1-.532-.334l26.916-7.699c.464.054.92.112 1.366.174Zm6.257 1.346-29.16 8.323a29.072 29.072 0 0 1-1.077-.293l29.251-8.321c.34.094.669.191.986.291Z" opacity=".3"/>
  <path fill="#F37E00" d="M278.938 107.88c0 .072-.007.144-.016.215-.399 2.492-7.662 4.483-16.535 4.483-8.872 0-16.135-1.992-16.535-4.483a1.714 1.714 0 0 1-.016-.215c0-2.591 7.425-4.699 16.551-4.699 9.127 0 16.551 2.108 16.551 4.699Z"/>
  <path fill="#F7A219" d="M278.922 108.095c-.4 2.492-7.662 4.483-16.535 4.483a53.914 53.914 0 0 1-6.208-.343c-1.745-.201-3.344-.484-4.734-.833a24.469 24.469 0 0 1-1.021-.278c-1.482-.441-2.669-.963-3.461-1.541a3.993 3.993 0 0 1-.504-.425c-.342-.34-.547-.696-.607-1.063.399-2.491 7.662-4.483 16.535-4.483a57.3 57.3 0 0 1 4.877.208c2.132.187 4.081.493 5.751.891.36.086.709.176 1.043.271 1.3.368 2.388.796 3.203 1.268.795.461 1.331.963 1.557 1.493.051.116.085.234.104.352Z"/>
  <path fill="#FBE6A1" d="m278.818 107.743-17.022 4.832a53.914 53.914 0 0 1-5.617-.34l21.083-5.985c.794.461 1.33.963 1.556 1.493Zm-11.554-3.923-20.301 5.763a4.092 4.092 0 0 1-.504-.425l19.209-5.454c.541.031 1.075.07 1.596.116Zm6.795 1.162-22.614 6.42a24.469 24.469 0 0 1-1.021-.278l22.59-6.413c.361.086.709.176 1.045.271Z" opacity=".2"/>
  <path fill="#F37E00" d="M264.689 110.546v.78h-3.493v-.746c-2.478-.042-4.881-.232-6.367-.492l1.883-1.21c1.635.274 3.815.45 5.723.45 1.66 0 2.254-.098 2.254-.267 0-.619-9.587-.119-9.587-1.955 0-.795 2.031-1.463 6.094-1.625v-.766h3.493v.752c1.834.049 3.617.183 5.029.408l-1.759 1.203a33.96 33.96 0 0 0-4.83-.366c-1.71 0-2.255.141-2.255.309 0 .591 9.587.099 9.587 1.913 0 .761-1.932 1.422-5.772 1.612Z"/>
  <path fill="#FDD462" d="M264.587 110.285v.781h-3.493v-.746c-2.477-.042-4.88-.232-6.367-.492l1.883-1.21c1.635.274 3.815.45 5.723.45 1.66 0 2.254-.098 2.254-.267 0-.619-9.587-.119-9.587-1.955 0-.795 2.031-1.463 6.094-1.625v-.766h3.493v.752c1.833.049 3.617.183 5.029.408l-1.758 1.203a33.984 33.984 0 0 0-4.831-.366c-1.709 0-2.255.141-2.255.309 0 .591 9.587.099 9.587 1.913 0 .76-1.932 1.421-5.772 1.611Zm24.399 34.33c-.431 10.436-9.243 18.549-19.685 18.119a18.972 18.972 0 0 1-4.134-.629 18.799 18.799 0 0 1-4.682-1.963 18.966 18.966 0 0 1-4.494-3.682 18.948 18.948 0 0 1-3.682-6.117 18.842 18.842 0 0 1-1.09-7.988c.783-10.096 9.435-17.838 19.641-17.418a18.89 18.89 0 0 1 8.267 2.282 18.944 18.944 0 0 1 5.535 4.562 18.96 18.96 0 0 1 2.492 3.895 18.761 18.761 0 0 1 1.846 8.236c.001.235-.005.469-.014.703Z"/>
  <path fill="#fff" d="m288.668 140.278-23.501 21.827a18.757 18.757 0 0 1-4.681-1.964l26.669-24.465a18.797 18.797 0 0 1 1.513 4.602Zm-9.541-13.059-26.376 24.22a18.3 18.3 0 0 1-.442-1.096l25.595-23.735c.416.19.824.393 1.223.611Zm5.534 4.563-27.725 25.659a18.611 18.611 0 0 1-.945-.981l27.809-25.649c.298.314.585.637.861.971Z" opacity=".3"/>
  <path fill="#F37E00" d="M285.191 144.459c-.01.232-.025.463-.043.693-.695 7.994-7.59 14.123-15.691 13.789-8.1-.334-14.466-7.01-14.501-15.033.001-.23.005-.463.014-.694.344-8.33 7.401-14.826 15.734-14.482 8.331.343 14.83 7.398 14.487 15.727Z"/>
  <path fill="#F7A219" d="M285.148 145.152c-.695 7.994-7.59 14.123-15.691 13.789a14.988 14.988 0 0 1-5.621-1.336 15.113 15.113 0 0 1-4.212-2.857 15.127 15.127 0 0 1-4.254-7.401 14.98 14.98 0 0 1-.414-3.439c.696-7.993 7.59-14.125 15.69-13.791a15.18 15.18 0 0 1 4.425.853 15.1 15.1 0 0 1 6.049 3.993 15.154 15.154 0 0 1 2.756 4.196 15.021 15.021 0 0 1 1.272 5.993Z"/>
  <path fill="#FBE6A1" d="m285.1 144.014-16.181 14.894a15.01 15.01 0 0 1-5.083-1.303l20.041-18.447a15.046 15.046 0 0 1 1.223 4.856Zm-10.028-13.044-19.299 17.761a14.168 14.168 0 0 1-.403-1.384l18.26-16.808c.489.119.971.264 1.442.431Zm6.048 3.992-21.496 19.787a15.48 15.48 0 0 1-.895-.933l21.474-19.766c.318.29.624.594.917.912Z" opacity=".2"/>
  <path fill="#F37E00" d="m271.828 152.492-.103 2.51-3.189-.131.099-2.397c-2.256-.229-4.425-.929-5.747-1.822l1.879-3.818c1.456.944 3.424 1.591 5.165 1.663 1.515.062 2.071-.232 2.093-.775.083-1.989-8.736-.745-8.493-6.646.105-2.554 2.048-4.626 5.779-4.993l.102-2.464 3.189.131-.1 2.419c1.667.228 3.278.724 4.537 1.501l-1.765 3.8c-1.528-.856-2.982-1.301-4.362-1.358-1.56-.064-2.077.368-2.099.91-.078 1.899 8.74.677 8.499 6.51-.101 2.442-1.953 4.494-5.484 4.96Z"/>
  <path fill="#FDD462" d="m271.77 151.654-.103 2.509-3.189-.131.098-2.396c-2.256-.229-4.424-.93-5.747-1.822l1.88-3.818c1.456.943 3.423 1.59 5.165 1.662 1.515.062 2.071-.232 2.093-.774.082-1.99-8.737-.745-8.493-6.646.105-2.555 2.048-4.626 5.779-4.993l.102-2.465 3.189.132-.1 2.419c1.667.227 3.278.724 4.537 1.5l-1.765 3.8c-1.528-.855-2.983-1.301-4.362-1.357-1.561-.065-2.077.367-2.099.909-.079 1.9 8.74.678 8.499 6.511-.101 2.441-1.953 4.494-5.484 4.96Z"/>
  <path fill="#F7A219" d="m235.932 163.622.001.058c0 .718-.383 1.408-1.089 2.052a6.356 6.356 0 0 1-.574.463c-.587.424-1.318.824-2.175 1.195-.185.08-.377.159-.574.236-.663.261-1.39.505-2.174.731a35.928 35.928 0 0 1-3.323.781 47.49 47.49 0 0 1-2.749.436c-.706.092-1.431.173-2.174.24l-.575.05a61.46 61.46 0 0 1-2.748.164 70.372 70.372 0 0 1-2.559.048l-.19-.001a67.516 67.516 0 0 1-2.749-.063 67.959 67.959 0 0 1-2.175-.133 57.113 57.113 0 0 1-3.323-.357 44.978 44.978 0 0 1-2.748-.459 37.265 37.265 0 0 1-2.749-.651 26.695 26.695 0 0 1-2.175-.711 21.427 21.427 0 0 1-.574-.23 13.098 13.098 0 0 1-1.929-.981 8.478 8.478 0 0 1-.533-.364 7.01 7.01 0 0 1-.287-.227c-.829-.69-1.282-1.439-1.282-2.219 0-.055.002-.11.007-.164l.002-4.42 1.273-.002.574-.001 2.175-.003.574-.001 1.697-.003.478-.001.574-.001 2.175-.003.574-.001 2.175-.003.574-.001 2.174-.004h.574l2.175-.003.574-.001 2.175-.003.574-.002 2.175-.003.574-.001 2.174-.003.575-.001 2.174-.003.574-.001 2.175-.003.574-.001 2.175-.003.574-.001h.142l2.033-.003.574-.001 2.174-.004h.575l1.081-.002.007 4.587h-.001v.002Z"/>
  <path fill="#F37E00" d="M196.362 159.092v7.237a6.196 6.196 0 0 1-.574-.43v-6.806l.574-.001Zm2.748-.004v8.613a21.427 21.427 0 0 1-.574-.23v-8.382l.574-.001Zm2.749-.005v9.483a39.373 39.373 0 0 1-.574-.155v-9.326l.574-.002Zm2.749-.003v10.093a30.78 30.78 0 0 1-.574-.11v-9.982l.574-.001Zm2.749-.004v10.522a33.182 33.182 0 0 1-.574-.076v-10.446h.574Zm2.748-.004v10.807a53.263 53.263 0 0 1-.574-.048v-10.758l.574-.001Zm2.749-.004v10.966a53.964 53.964 0 0 1-.574-.023v-10.942l.574-.001Zm2.749-.005v11.011l-.384.001h-.19v-11.01l.574-.002Zm2.749-.003v10.943a53.93 53.93 0 0 1-.574.024v-10.966l.574-.001Zm2.748-.004v10.758c-.19.017-.381.034-.574.049v-10.807h.574Zm2.749-.004v10.443c-.19.028-.381.053-.574.079v-10.522h.574Zm2.749-.005v9.977c-.19.039-.381.077-.574.113v-10.089l.574-.001Zm2.749-.004v9.313c-.188.054-.379.108-.574.16v-9.472l.574-.001Zm2.749-.004v8.349c-.186.081-.377.16-.574.237v-8.585l.574-.001Zm2.748-.004v6.696a6.356 6.356 0 0 1-.574.463v-7.158l.574-.001Z"/>
  <path fill="#FDD462" d="M235.928 159.091c0 3.247-9.269 5.879-20.708 5.879-1.562 0-3.085-.049-4.548-.143a60.278 60.278 0 0 1-5.208-.55 42.204 42.204 0 0 1-4.003-.793 30.605 30.605 0 0 1-1.077-.292c-1.523-.444-2.801-.956-3.77-1.518a8.337 8.337 0 0 1-.533-.335c-1.011-.693-1.569-1.452-1.569-2.248 0-.073.005-.146.017-.218.402-3.146 9.512-5.661 20.691-5.661 2.751 0 5.377.152 7.778.429.464.053.919.111 1.366.174 1.951.273 3.727.63 5.271 1.056.34.093.669.19.986.29 1.128.356 2.105.751 2.902 1.178.821.439 1.452.912 1.861 1.409.299.364.479.74.528 1.125.012.072.016.145.016.218Z"/>
  <path fill="#fff" d="m235.385 157.748-24.713 7.079a60.278 60.278 0 0 1-5.208-.55l28.059-7.939c.822.44 1.453.913 1.862 1.41Zm-11.021-3.934-27.75 7.859a7.641 7.641 0 0 1-.532-.335l26.916-7.698c.464.054.92.111 1.366.174Zm6.258 1.347-29.161 8.323a31.178 31.178 0 0 1-1.077-.293l29.251-8.321c.341.094.669.19.987.291Z" opacity=".3"/>
  <path fill="#F37E00" d="M231.772 159.091c0 .072-.007.144-.016.215-.399 2.492-7.662 4.483-16.535 4.483-8.872 0-16.135-1.992-16.535-4.483a1.728 1.728 0 0 1-.016-.215c0-2.591 7.425-4.699 16.551-4.699 9.127 0 16.551 2.108 16.551 4.699Z"/>
  <path fill="#F7A219" d="M231.756 159.306c-.4 2.492-7.662 4.483-16.535 4.483a54.2 54.2 0 0 1-6.208-.342c-1.745-.202-3.344-.485-4.734-.834a24.469 24.469 0 0 1-1.021-.278c-1.482-.441-2.669-.962-3.461-1.541a4.002 4.002 0 0 1-.504-.424c-.342-.341-.547-.697-.607-1.063.399-2.491 7.662-4.484 16.535-4.484a57.3 57.3 0 0 1 4.877.208c2.132.187 4.081.494 5.751.892.36.085.709.176 1.043.271 1.3.367 2.388.795 3.203 1.268.795.461 1.331.963 1.557 1.492.051.116.085.234.104.352Z"/>
  <path fill="#FBE6A1" d="m231.652 158.954-17.022 4.832a54.2 54.2 0 0 1-5.617-.339l21.082-5.985c.795.461 1.331.963 1.557 1.492Zm-11.554-3.923-20.302 5.763a4.062 4.062 0 0 1-.503-.424l19.209-5.454c.541.031 1.074.07 1.596.115Zm6.794 1.163-22.613 6.419a24.469 24.469 0 0 1-1.021-.278l22.59-6.412c.361.085.709.175 1.044.271Z" opacity=".2"/>
  <path fill="#F37E00" d="M217.522 161.757v.78h-3.493v-.745c-2.477-.042-4.88-.232-6.366-.492l1.882-1.21c1.636.275 3.815.45 5.723.45 1.66 0 2.255-.098 2.255-.267 0-.619-9.588-.12-9.588-1.955 0-.795 2.032-1.463 6.095-1.625v-.767h3.493v.753c1.833.049 3.617.183 5.029.408l-1.759 1.203a33.984 33.984 0 0 0-4.831-.366c-1.709 0-2.254.14-2.254.309 0 .591 9.587.099 9.587 1.913-.001.76-1.933 1.421-5.773 1.611Z"/>
  <path fill="#FDD462" d="M217.421 161.497v.781h-3.493v-.746c-2.478-.042-4.881-.232-6.367-.492l1.883-1.21c1.635.274 3.815.45 5.723.45 1.66 0 2.254-.098 2.254-.267 0-.619-9.587-.119-9.587-1.955 0-.795 2.031-1.463 6.094-1.625v-.766h3.493v.752c1.833.049 3.617.183 5.029.408l-1.759 1.203a33.973 33.973 0 0 0-4.831-.366c-1.709 0-2.254.14-2.254.309 0 .591 9.588.099 9.588 1.913-.001.76-1.933 1.421-5.773 1.611Z"/>
  <path fill="#F7A219" d="m237.234 156.369.001.059c0 .717-.384 1.407-1.089 2.051a6.464 6.464 0 0 1-.574.463c-.588.424-1.319.824-2.175 1.195-.185.08-.377.159-.574.236-.663.262-1.391.506-2.175.732a36.5 36.5 0 0 1-3.323.78 47.264 47.264 0 0 1-2.749.437 57.122 57.122 0 0 1-2.748.289c-.711.058-1.437.105-2.175.139-.191.009-.382.018-.574.025a70.372 70.372 0 0 1-2.559.048l-.189-.001a67.579 67.579 0 0 1-2.176-.04l-.574-.023a68.26 68.26 0 0 1-2.175-.133 57.552 57.552 0 0 1-3.322-.357 43.986 43.986 0 0 1-2.174-.349 37.452 37.452 0 0 1-3.324-.761 27.33 27.33 0 0 1-2.174-.711 20.166 20.166 0 0 1-.574-.23 13.098 13.098 0 0 1-1.929-.981 8.06 8.06 0 0 1-.82-.591c-.829-.69-1.283-1.439-1.283-2.219 0-.055.003-.11.008-.164l.002-4.42 1.273-.002.574-.001 2.175-.003.574-.002 1.697-.002.477-.001.574-.001 2.175-.003.575-.001 2.174-.003.574-.001 2.174-.004h.574l2.175-.003.574-.002 2.175-.003.574-.001 2.175-.003.574-.001 2.175-.003.574-.001 2.174-.003.574-.001 2.175-.003.574-.001 2.175-.003.574-.001h.142l2.033-.003.574-.001 2.174-.004h.574l1.081-.002.008 4.587v.002Z"/>
  <path fill="#F37E00" d="M197.663 151.84v7.237a7.925 7.925 0 0 1-.574-.43v-6.806l.574-.001Zm2.748-.004v8.613a27.468 27.468 0 0 1-.574-.229v-8.382l.574-.002Zm2.749-.004v9.483c-.136-.035-.27-.072-.404-.108a8.429 8.429 0 0 1-.17-.047v-9.327l.574-.001Zm2.749-.004v10.093a45.023 45.023 0 0 1-.574-.11v-9.982l.574-.001Zm2.749-.004v10.522a33.182 33.182 0 0 1-.574-.076v-10.445l.574-.001Zm2.749-.004v10.807a49.305 49.305 0 0 1-.574-.048v-10.758l.574-.001Zm2.748-.004v10.966a54 54 0 0 1-.574-.022v-10.943l.574-.001Zm2.75-.004v11.01a49.41 49.41 0 0 1-.385.002l-.189-.001v-11.01l.574-.001Zm2.748-.004v10.943c-.19.009-.382.017-.574.024v-10.966l.574-.001Zm2.749-.004v10.758c-.191.017-.382.034-.574.049v-10.807h.574Zm2.748-.004v10.444c-.19.027-.381.053-.574.078v-10.521l.574-.001Zm2.749-.004v9.977c-.189.038-.38.076-.574.112v-10.088l.574-.001Zm2.749-.004v9.313c-.188.054-.379.108-.574.159v-9.471l.574-.001Zm2.749-.004v8.349c-.185.08-.377.159-.574.236v-8.585h.574Zm2.749-.004v6.695a6.464 6.464 0 0 1-.574.463v-7.158h.574Z"/>
  <path fill="#FDD462" d="M237.23 151.838c0 3.247-9.27 5.879-20.708 5.879a71.89 71.89 0 0 1-4.549-.142 60.278 60.278 0 0 1-5.208-.55 42.573 42.573 0 0 1-4.003-.794 29.097 29.097 0 0 1-1.077-.292c-1.523-.444-2.8-.956-3.77-1.518a8.305 8.305 0 0 1-.532-.334c-1.012-.693-1.57-1.452-1.57-2.249 0-.073.006-.145.017-.218.402-3.146 9.513-5.66 20.692-5.66 2.75 0 5.376.152 7.777.428.464.054.92.112 1.366.175 1.951.272 3.727.63 5.271 1.055.34.094.669.191.986.291 1.128.356 2.105.751 2.902 1.177.821.44 1.453.913 1.862 1.41.298.363.478.739.527 1.124.012.073.017.145.017.218Z"/>
  <path fill="#fff" d="m236.686 150.495-24.713 7.079a60.278 60.278 0 0 1-5.208-.55l28.059-7.939c.822.44 1.453.913 1.862 1.41Zm-11.021-3.934-27.75 7.859a8.305 8.305 0 0 1-.532-.334l26.916-7.698c.464.053.92.111 1.366.173Zm6.257 1.347-29.16 8.323a31.178 31.178 0 0 1-1.077-.293l29.251-8.321c.341.094.669.191.986.291Z" opacity=".3"/>
  <path fill="#F37E00" d="M233.073 151.837c0 .073-.006.145-.016.216-.399 2.491-7.662 4.483-16.535 4.483-8.872 0-16.135-1.992-16.534-4.483a1.56 1.56 0 0 1-.017-.216c0-2.591 7.425-4.698 16.552-4.698 9.126 0 16.55 2.108 16.55 4.698Z"/>
  <path fill="#F7A219" d="M233.057 152.054c-.4 2.491-7.662 4.483-16.535 4.483a54.19 54.19 0 0 1-6.208-.343c-1.745-.201-3.344-.484-4.734-.833a26.121 26.121 0 0 1-1.021-.278c-1.482-.441-2.669-.963-3.461-1.541a4.006 4.006 0 0 1-.504-.425c-.342-.34-.547-.697-.607-1.063.399-2.491 7.662-4.484 16.535-4.484a57.3 57.3 0 0 1 3.281.093c.541.031 1.074.07 1.596.116 2.132.187 4.08.493 5.75.891.361.086.709.176 1.044.271 1.3.367 2.388.795 3.203 1.268.795.461 1.33.963 1.557 1.493.051.115.085.233.104.352Z"/>
  <path fill="#FBE6A1" d="m232.953 151.701-17.022 4.832a53.924 53.924 0 0 1-5.617-.339l21.083-5.985c.794.461 1.33.963 1.556 1.492Zm-11.554-3.922-20.301 5.762a3.924 3.924 0 0 1-.504-.425l19.209-5.453c.541.031 1.075.07 1.596.116Zm6.795 1.162-22.614 6.42a26.121 26.121 0 0 1-1.021-.278l22.59-6.413c.361.086.71.176 1.045.271Z" opacity=".2"/>
  <path fill="#F37E00" d="M218.824 154.504v.781h-3.493v-.746c-2.477-.042-4.881-.232-6.367-.492l1.883-1.21c1.635.274 3.815.45 5.723.45 1.66 0 2.254-.099 2.254-.267 0-.619-9.587-.12-9.587-1.955 0-.795 2.031-1.463 6.094-1.625v-.767h3.493v.753c1.834.049 3.617.183 5.029.408l-1.759 1.202a33.96 33.96 0 0 0-4.83-.366c-1.71 0-2.255.141-2.255.31 0 .591 9.587.098 9.587 1.913 0 .76-1.932 1.421-5.772 1.611Z"/>
  <path fill="#FDD462" d="M218.722 154.244v.781h-3.493v-.746c-2.477-.042-4.88-.232-6.367-.492l1.883-1.21c1.635.274 3.815.45 5.723.45 1.66 0 2.254-.099 2.254-.267 0-.619-9.587-.12-9.587-1.956 0-.794 2.031-1.462 6.094-1.624v-.767h3.493v.753c1.833.049 3.617.182 5.029.408l-1.758 1.202a33.976 33.976 0 0 0-4.831-.365c-1.709 0-2.255.14-2.255.309 0 .591 9.588.098 9.588 1.913-.001.76-1.933 1.421-5.773 1.611Z"/>
  <path fill="#F7A219" d="m237.044 149.118.001.059c0 .717-.383 1.407-1.089 2.051a6.187 6.187 0 0 1-.574.463c-.587.424-1.319.824-2.175 1.195-.185.08-.377.159-.574.236a24.21 24.21 0 0 1-2.174.732 36.684 36.684 0 0 1-3.323.78 47.49 47.49 0 0 1-2.175.358c-.19.028-.381.053-.574.079a56.953 56.953 0 0 1-2.749.289 61.59 61.59 0 0 1-2.174.14c-.191.008-.382.017-.574.024-.715.027-1.44.043-2.175.047l-.384.001-.19-.001a64.746 64.746 0 0 1-5.498-.244 57.113 57.113 0 0 1-2.749-.308 52.855 52.855 0 0 1-2.174-.349 37.249 37.249 0 0 1-3.323-.762 30.066 30.066 0 0 1-.907-.27 23.592 23.592 0 0 1-1.842-.67 13.195 13.195 0 0 1-1.929-.982 7.992 7.992 0 0 1-.819-.59c-.83-.691-1.283-1.439-1.283-2.22 0-.054.002-.109.007-.164l.003-4.42 1.273-.002.574-.001 2.174-.003.574-.001 1.698-.002.477-.001.574-.001 2.175-.003.574-.001 2.175-.003.574-.001 2.174-.004h.574l2.175-.003.574-.001 2.175-.003.574-.002 2.175-.003.574-.001 2.174-.003.575-.001 2.174-.003.574-.001 2.175-.003.574-.001 2.175-.003.574-.001h.142l2.033-.003.574-.001 2.175-.003.574-.001 1.081-.002.008 4.587h-.002v.001Z"/>
  <path fill="#F37E00" d="M197.473 144.59v7.236a7.01 7.01 0 0 1-.574-.43v-6.805l.574-.001Zm2.749-.004v8.613a21.427 21.427 0 0 1-.574-.23v-8.382l.574-.001Zm2.749-.005v9.484a75.237 75.237 0 0 1-.575-.156v-9.326l.575-.002Zm2.749-.003v10.093a73.61 73.61 0 0 1-.574-.11v-9.982l.574-.001Zm2.749-.004v10.522c-.193-.024-.384-.05-.574-.076v-10.445l.574-.001Zm2.748-.004v10.807a35.986 35.986 0 0 1-.574-.049V144.57h.574Zm2.749-.004v10.966a35.742 35.742 0 0 1-.574-.023v-10.942l.574-.001Zm2.749-.004v11.01l-.384.001h-.19v-11.01l.574-.001Zm2.749-.004V155.5c-.191.009-.382.018-.574.025v-10.967h.574Zm2.748-.005v10.758c-.19.018-.381.034-.574.05v-10.807l.574-.001Zm2.749-.003v10.443c-.19.028-.381.053-.574.079V144.55h.574Zm2.749-.005v9.977c-.19.039-.381.077-.575.113v-10.089l.575-.001Zm2.749-.004v9.313c-.188.054-.379.108-.574.16v-9.472l.574-.001Zm2.749-.003v8.349c-.186.08-.378.159-.574.236v-8.585h.574Zm2.748-.005v6.696a6.356 6.356 0 0 1-.574.463v-7.158l.574-.001Z"/>
  <path fill="#FDD462" d="M237.04 144.587c0 3.247-9.27 5.879-20.708 5.879-1.563 0-3.085-.05-4.549-.143a60.32 60.32 0 0 1-5.208-.55 42.33 42.33 0 0 1-4.003-.793 29.072 29.072 0 0 1-1.077-.293c-1.523-.444-2.8-.955-3.769-1.517a8.337 8.337 0 0 1-.533-.335c-1.011-.693-1.569-1.452-1.569-2.248 0-.073.005-.146.017-.218.401-3.146 9.512-5.661 20.691-5.661 2.751 0 5.377.152 7.778.429.463.053.919.111 1.365.174 1.951.273 3.728.63 5.271 1.056.341.093.67.19.987.29 1.128.356 2.104.751 2.901 1.178.822.439 1.453.912 1.862 1.409.298.363.479.739.527 1.125.012.072.017.145.017.218Z"/>
  <path fill="#fff" d="m236.496 143.244-24.713 7.08a60.362 60.362 0 0 1-5.208-.55l28.06-7.939c.821.439 1.452.912 1.861 1.409Zm-11.021-3.933-27.749 7.859a8.337 8.337 0 0 1-.533-.335l26.917-7.698c.463.053.919.111 1.365.174Zm6.258 1.346-29.161 8.323a29.097 29.097 0 0 1-1.077-.292l29.252-8.321c.34.093.668.19.986.29Z" opacity=".3"/>
  <path fill="#F37E00" d="M232.883 144.587c0 .072-.006.144-.016.216-.399 2.491-7.662 4.483-16.535 4.483-8.872 0-16.135-1.992-16.534-4.483a1.572 1.572 0 0 1-.017-.216c0-2.591 7.425-4.699 16.552-4.699 9.127 0 16.55 2.108 16.55 4.699Z"/>
  <path fill="#F7A219" d="M232.867 144.803c-.399 2.491-7.662 4.483-16.535 4.483a53.894 53.894 0 0 1-6.207-.343c-1.746-.201-3.344-.484-4.734-.833a24.054 24.054 0 0 1-1.021-.278c-1.483-.441-2.67-.963-3.462-1.541a4.006 4.006 0 0 1-.504-.425c-.341-.34-.547-.696-.607-1.063.4-2.491 7.663-4.483 16.535-4.483a57.3 57.3 0 0 1 4.877.208c2.132.187 4.081.493 5.751.891.36.086.708.176 1.043.271 1.3.368 2.388.796 3.203 1.268.795.461 1.331.963 1.557 1.492.051.116.086.235.104.353Z"/>
  <path fill="#FBE6A1" d="m232.763 144.45-17.022 4.833a54.153 54.153 0 0 1-5.616-.34l21.082-5.985c.794.461 1.33.963 1.556 1.492Zm-11.553-3.922-20.302 5.763a4.079 4.079 0 0 1-.503-.425l19.209-5.454c.54.031 1.074.07 1.596.116Zm6.794 1.162-22.614 6.42a26.121 26.121 0 0 1-1.021-.278l22.591-6.413c.36.085.709.176 1.044.271Z" opacity=".2"/>
  <path fill="#F37E00" d="M218.634 147.253v.781h-3.493v-.746c-2.477-.042-4.88-.232-6.367-.492l1.883-1.21c1.635.275 3.815.45 5.723.45 1.66 0 2.254-.098 2.254-.267 0-.619-9.587-.12-9.587-1.955 0-.795 2.031-1.463 6.094-1.625v-.767h3.493v.753c1.833.049 3.617.183 5.029.408l-1.759 1.203a33.814 33.814 0 0 0-4.83-.366c-1.71 0-2.255.14-2.255.309 0 .591 9.587.099 9.587 1.913 0 .76-1.932 1.421-5.772 1.611Z"/>
  <path fill="#FDD462" d="M218.532 146.993v.781h-3.493v-.746c-2.477-.042-4.88-.232-6.367-.492l1.883-1.21c1.635.275 3.815.45 5.723.45 1.66 0 2.254-.098 2.254-.267 0-.619-9.587-.119-9.587-1.955 0-.795 2.031-1.463 6.094-1.625v-.767h3.493v.753c1.834.049 3.617.183 5.029.408l-1.758 1.202a33.984 33.984 0 0 0-4.831-.366c-1.709 0-2.255.141-2.255.31 0 .591 9.588.098 9.588 1.913 0 .76-1.933 1.421-5.773 1.611Z"/>
  <path fill="#F7A219" d="M238.585 142.632v.058c0 .718-.383 1.408-1.089 2.052a6.187 6.187 0 0 1-.574.463c-.587.424-1.318.824-2.174 1.195-.186.08-.378.159-.574.236a23.93 23.93 0 0 1-2.175.731 35.928 35.928 0 0 1-3.323.781 47.264 47.264 0 0 1-2.749.437 56.98 56.98 0 0 1-2.749.289 59.167 59.167 0 0 1-2.748.164c-.715.026-1.44.042-2.175.046l-.384.001h-.19a67.437 67.437 0 0 1-4.36-.154 46.527 46.527 0 0 1-1.138-.09 55.38 55.38 0 0 1-4.072-.509 48.336 48.336 0 0 1-1.425-.259 38.1 38.1 0 0 1-2.175-.496c-.136-.035-.271-.072-.404-.108a25.201 25.201 0 0 1-2.345-.759 21.453 21.453 0 0 1-.574-.229 13.098 13.098 0 0 1-1.929-.981 8.06 8.06 0 0 1-.82-.591c-.829-.691-1.283-1.439-1.283-2.219 0-.055.003-.11.008-.165l.002-4.42 1.273-.001.574-.001 2.175-.003.574-.002 1.697-.002.478-.001.574-.001 2.175-.003.574-.001 2.174-.003.574-.001 2.175-.003.574-.001 2.174-.003.574-.001 2.175-.003.574-.001 2.175-.004h.574l2.175-.004h.574l2.175-.004h.574l2.175-.003.574-.002 2.175-.003.574-.001h.142l2.033-.003.574-.001 2.174-.003.574-.001 1.081-.002.008 4.588v.001Z"/>
  <path fill="#F37E00" d="M199.014 138.103v7.237a6.822 6.822 0 0 1-.575-.43v-6.806l.575-.001Zm2.748-.004v8.612a25.434 25.434 0 0 1-.574-.229V138.1l.574-.001Zm2.749-.005v9.483a33.562 33.562 0 0 1-.574-.155v-9.326l.574-.002Zm2.749-.003v10.093a45.023 45.023 0 0 1-.574-.11v-9.982l.574-.001Zm2.749-.004v10.522c-.193-.024-.384-.05-.574-.076v-10.446h.574Zm2.749-.004v10.807a49.212 49.212 0 0 1-.574-.049v-10.758h.574Zm2.748-.004v10.966a53.964 53.964 0 0 1-.574-.023V138.08l.574-.001Zm2.749-.005v11.011l-.384.001-.19-.001v-11.01l.574-.001Zm2.749-.003v10.943a53.93 53.93 0 0 1-.574.024v-10.966l.574-.001Zm2.748-.005v10.758l-.574.05v-10.807l.574-.001Zm2.749-.003v10.443c-.19.028-.381.053-.574.079v-10.522h.574Zm2.749-.005v9.977c-.19.039-.381.077-.574.113v-10.089l.574-.001Zm2.749-.004v9.313c-.188.054-.379.108-.574.16v-9.472l.574-.001Zm2.749-.004v8.349c-.186.081-.378.16-.574.237v-8.585l.574-.001Zm2.748-.004v6.696a6.356 6.356 0 0 1-.574.463v-7.158l.574-.001Z"/>
  <path fill="#FDD462" d="M238.58 138.101c0 3.246-9.269 5.878-20.708 5.878-1.562 0-3.085-.049-4.548-.142a60.278 60.278 0 0 1-5.208-.55 42.908 42.908 0 0 1-4.003-.793 30.574 30.574 0 0 1-1.077-.293c-1.523-.444-2.8-.956-3.77-1.518a7.914 7.914 0 0 1-.533-.335c-1.011-.692-1.569-1.452-1.569-2.248 0-.072.005-.145.017-.218.402-3.145 9.512-5.661 20.691-5.661 2.752 0 5.377.153 7.778.429.464.054.92.112 1.366.174 1.951.273 3.727.631 5.271 1.056.34.094.669.191.986.291 1.128.355 2.105.751 2.902 1.177.821.44 1.452.913 1.862 1.41.298.363.478.739.527 1.124.012.073.016.146.016.219Z"/>
  <path fill="#fff" d="m238.037 136.758-24.713 7.079a60.32 60.32 0 0 1-5.208-.55l28.06-7.939c.821.44 1.452.913 1.861 1.41Zm-11.021-3.933-27.749 7.859a8.337 8.337 0 0 1-.533-.335l26.917-7.698c.463.053.918.111 1.365.174Zm6.257 1.346-29.16 8.323a30.574 30.574 0 0 1-1.077-.293l29.251-8.321c.34.093.669.19.986.291Z" opacity=".3"/>
  <path fill="#F37E00" d="M234.424 138.101c0 .072-.007.144-.016.215-.4 2.492-7.663 4.483-16.535 4.483-8.873 0-16.136-1.991-16.535-4.483a1.714 1.714 0 0 1-.016-.215c0-2.591 7.424-4.699 16.551-4.699 9.127 0 16.551 2.108 16.551 4.699Z"/>
  <path fill="#F7A219" d="M234.408 138.317c-.4 2.491-7.663 4.483-16.535 4.483-.199 0-.395-.002-.591-.004a53.924 53.924 0 0 1-5.617-.339c-1.745-.202-3.344-.485-4.734-.834a26.145 26.145 0 0 1-1.021-.277c-1.482-.442-2.669-.963-3.462-1.542a4.062 4.062 0 0 1-.503-.424c-.342-.34-.547-.697-.607-1.063.399-2.491 7.662-4.484 16.535-4.484a57.3 57.3 0 0 1 3.281.093c.54.031 1.074.07 1.596.116 2.132.186 4.081.493 5.75.891.361.086.709.176 1.044.271 1.3.367 2.388.795 3.203 1.268.795.461 1.33.963 1.557 1.492.051.116.085.234.104.353Z"/>
  <path fill="#FBE6A1" d="m234.304 137.964-17.022 4.832a53.924 53.924 0 0 1-5.617-.339l21.083-5.985c.794.461 1.329.963 1.556 1.492Zm-11.554-3.922-20.302 5.762a4.062 4.062 0 0 1-.503-.424l19.209-5.454c.541.031 1.074.07 1.596.116Zm6.794 1.162-22.613 6.42a25.649 25.649 0 0 1-1.021-.278l22.59-6.413c.361.086.709.176 1.044.271Z" opacity=".2"/>
  <path fill="#F37E00" d="M220.174 140.766v.781h-3.493v-.746c-2.477-.042-4.88-.232-6.367-.492l1.883-1.21c1.635.274 3.815.45 5.723.45 1.66 0 2.255-.099 2.255-.267 0-.619-9.588-.12-9.588-1.956 0-.794 2.032-1.462 6.095-1.624v-.767h3.493v.753c1.833.049 3.616.182 5.028.408l-1.758 1.202a33.976 33.976 0 0 0-4.831-.365c-1.71 0-2.255.14-2.255.309 0 .591 9.588.099 9.588 1.913 0 .76-1.933 1.421-5.773 1.611Z"/>
  <path fill="#FDD462" d="M220.073 140.507v.78h-3.493v-.745c-2.478-.042-4.881-.232-6.367-.493l1.883-1.209c1.635.274 3.815.45 5.722.45 1.66 0 2.255-.099 2.255-.267 0-.619-9.587-.12-9.587-1.956 0-.795 2.031-1.463 6.094-1.624v-.767h3.493v.753c1.833.049 3.617.182 5.029.407l-1.759 1.203a33.973 33.973 0 0 0-4.831-.366c-1.709 0-2.254.141-2.254.31 0 .591 9.587.098 9.587 1.913 0 .76-1.932 1.421-5.772 1.611Z"/>
  <path fill="#F7A219" d="m235.427 135.41.001.058c0 .718-.383 1.408-1.089 2.052a6.356 6.356 0 0 1-.574.463c-.587.424-1.318.824-2.174 1.195-.186.08-.377.159-.574.236-.664.261-1.391.506-2.175.731a36.106 36.106 0 0 1-3.323.781 47.49 47.49 0 0 1-2.749.436 55.002 55.002 0 0 1-2.749.29 63.835 63.835 0 0 1-4.923.21l-.384.001h-.19a67.491 67.491 0 0 1-4.36-.154 49.753 49.753 0 0 1-1.138-.09 55.123 55.123 0 0 1-4.072-.509 48.336 48.336 0 0 1-1.425-.259 38.1 38.1 0 0 1-2.175-.496l-.404-.108-.17-.048a27.42 27.42 0 0 1-.907-.27 23.592 23.592 0 0 1-1.842-.67 13.134 13.134 0 0 1-1.928-.981 6.989 6.989 0 0 1-.246-.161 6.854 6.854 0 0 1-.574-.43c-.83-.691-1.283-1.439-1.283-2.219 0-.055.002-.11.008-.165l.002-4.42 1.273-.001.574-.002 2.174-.003.575-.001 1.697-.002.477-.001.574-.001 2.175-.003.574-.001 2.175-.004h.574l2.175-.004h.574l2.174-.003.574-.001 2.176-.004.574-.001 2.174-.003h.574l2.175-.004h.574l2.175-.004.574-.001 2.174-.003.575-.001 2.175-.003.574-.001h.141l2.033-.004h.574l2.175-.004h.574l1.081-.002.008 4.587h-.002v.002Z"/>
  <path fill="#F37E00" d="M195.856 130.88v7.237a8.485 8.485 0 0 1-.574-.43v-6.805l.574-.002Zm2.749-.003v8.612a25.434 25.434 0 0 1-.574-.229v-8.382l.574-.001Zm2.748-.005v9.483a21.424 21.424 0 0 1-.574-.155v-9.326l.574-.002Zm2.75-.003v10.092a30.78 30.78 0 0 1-.574-.11v-9.982h.574Zm2.748-.004v10.522c-.193-.025-.384-.05-.574-.077v-10.445h.574Zm2.749-.005v10.807a51.208 51.208 0 0 1-.574-.048v-10.758l.574-.001Zm2.749-.004v10.967a98.275 98.275 0 0 1-.574-.023v-10.943l.574-.001Zm2.749-.004v11.011l-.384.001-.19-.001v-11.01l.574-.001Zm2.749-.003v10.942c-.191.009-.382.018-.574.025v-10.967h.574Zm2.748-.005v10.758c-.191.017-.382.034-.574.049v-10.807h.574Zm2.749-.004v10.444l-.574.079v-10.522l.574-.001Zm2.748-.004v9.977c-.189.039-.38.076-.574.113v-10.089l.574-.001Zm2.75-.004v9.313c-.188.054-.379.108-.574.16v-9.472l.574-.001Zm2.748-.004v8.349c-.185.081-.377.159-.574.237v-8.585l.574-.001Zm2.749-.004v6.695a6.504 6.504 0 0 1-.574.464v-7.159h.574Z"/>
  <path fill="#FDD462" d="M235.423 130.879c0 3.246-9.27 5.879-20.708 5.879-1.563 0-3.085-.05-4.549-.143a60.32 60.32 0 0 1-5.208-.55 42.33 42.33 0 0 1-4.003-.793 33.65 33.65 0 0 1-1.077-.292c-1.523-.444-2.8-.956-3.769-1.518a8.337 8.337 0 0 1-.533-.335c-1.011-.693-1.569-1.452-1.569-2.248 0-.073.005-.146.017-.219.401-3.145 9.512-5.66 20.691-5.66 2.751 0 5.377.152 7.778.429.464.053.919.111 1.366.174 1.95.273 3.727.63 5.27 1.056.341.093.67.19.987.29 1.128.356 2.104.751 2.901 1.178.822.439 1.453.912 1.862 1.409.299.363.479.739.528 1.125.012.072.016.145.016.218Z"/>
  <path fill="#fff" d="m234.879 129.536-24.713 7.079a60.32 60.32 0 0 1-5.208-.55l28.06-7.939c.821.44 1.452.913 1.861 1.41Zm-11.02-3.934-27.75 7.859a7.913 7.913 0 0 1-.533-.334l26.917-7.698c.464.053.919.111 1.366.173Zm6.257 1.347-29.16 8.323a31.208 31.208 0 0 1-1.077-.292l29.251-8.322c.34.094.669.191.986.291Z" opacity=".3"/>
  <path fill="#F37E00" d="M231.267 130.879c0 .072-.007.144-.016.216-.4 2.491-7.663 4.483-16.535 4.483-8.873 0-16.136-1.992-16.535-4.483a1.744 1.744 0 0 1-.016-.216c0-2.591 7.424-4.699 16.551-4.699 9.126 0 16.551 2.108 16.551 4.699Z"/>
  <path fill="#F7A219" d="M231.251 131.095c-.4 2.491-7.663 4.483-16.535 4.483-.199 0-.395-.002-.592-.004a53.904 53.904 0 0 1-5.616-.339c-1.746-.201-3.344-.485-4.734-.833a26.121 26.121 0 0 1-1.021-.278c-1.482-.441-2.67-.963-3.462-1.541a4.154 4.154 0 0 1-.503-.425c-.342-.34-.548-.696-.608-1.063.4-2.491 7.663-4.484 16.535-4.484 1.123 0 2.22.033 3.282.093.541.031 1.074.07 1.596.116 2.132.187 4.08.493 5.75.891.361.086.709.176 1.044.271 1.3.367 2.388.795 3.203 1.268.794.461 1.33.963 1.556 1.493.051.115.086.233.105.352Z"/>
  <path fill="#FBE6A1" d="m231.147 130.742-17.023 4.832a53.904 53.904 0 0 1-5.616-.339l21.082-5.985c.795.461 1.33.963 1.557 1.492Zm-11.554-3.922-20.302 5.762a3.99 3.99 0 0 1-.503-.424l19.209-5.454c.541.031 1.074.07 1.596.116Zm6.794 1.162-22.614 6.42a26.063 26.063 0 0 1-1.02-.278l22.59-6.413c.36.085.709.176 1.044.271Z" opacity=".2"/>
  <path fill="#F37E00" d="M217.017 133.545v.78h-3.493v-.745c-2.477-.042-4.88-.232-6.367-.492l1.883-1.21c1.635.274 3.815.45 5.723.45 1.66 0 2.254-.099 2.254-.267 0-.619-9.587-.12-9.587-1.956 0-.794 2.031-1.462 6.094-1.624v-.767h3.493v.753c1.833.049 3.617.182 5.029.408l-1.759 1.202a33.952 33.952 0 0 0-4.83-.365c-1.71 0-2.255.14-2.255.309 0 .591 9.587.098 9.587 1.913 0 .76-1.932 1.421-5.772 1.611Z"/>
  <path fill="#FDD462" d="M216.915 133.285v.781h-3.493v-.745c-2.477-.043-4.88-.232-6.366-.493l1.882-1.21c1.635.275 3.816.45 5.723.45 1.66 0 2.255-.098 2.255-.267 0-.619-9.588-.119-9.588-1.955 0-.795 2.032-1.463 6.095-1.625v-.766h3.493v.752c1.833.05 3.617.183 5.029.408l-1.759 1.203a33.984 33.984 0 0 0-4.831-.366c-1.709 0-2.254.141-2.254.309 0 .591 9.587.099 9.587 1.913 0 .76-1.933 1.421-5.773 1.611Z"/>
  <path fill="#fff" d="M171.8 146.305c-14.021 3.148-21.196-3.375-22.164-4.338 0 0-.02-.097-.057-.058-.038-.038-.057.058-.057.058-.954.976-8.036 7.588-22.1 4.616 0 0-1.976 25.443 6.284 35.766 8.821 11.026 16.224 14.33 16.261 14.301.037.028 7.457-3.305 16.057-14.503 8.047-10.477 5.776-35.842 5.776-35.842Z"/>
  <path fill="#0890FE" d="M169.765 148.935c-12.724 2.803-19.234-3.003-20.112-3.86 0 0-.018-.086-.052-.052-.034-.034-.051.052-.051.052-.866.869-7.293 6.756-20.056 4.112 0 0-1.796 22.651 5.698 31.841 8.004 9.815 14.719 13.361 14.752 13.335.034.026 6.769-3.548 14.575-13.519 7.303-9.328 5.246-31.909 5.246-31.909Z"/>
  <path fill="#000" d="M149.56 147.309s.018-.091.054-.055c.035-.036.054.054.054.054.902.881 7.476 6.743 20.295 4.203-.078-2.307-.21-3.75-.21-3.75-12.724 2.803-19.234-3.003-20.112-3.86 0 0-.018-.086-.052-.052-.034-.034-.051.052-.051.052-.866.869-7.293 6.756-20.055 4.112 0 0-.115 1.444-.165 3.751 12.86 2.384 19.353-3.563 20.242-4.455Z" opacity=".02"/>
  <path fill="#3629B7" d="M166.031 155.249c-9.613 2.158-15.68-2.539-16.344-3.199 0 0-.014-.067-.039-.04-.026-.026-.039.04-.039.04-.654.669-6.593 5.428-16.235 3.39 0 0-.271 17.218 5.391 24.295 6.048 7.559 11.124 9.825 11.149 9.805.026.019 5.112-2.266 11.009-9.943 5.516-7.183 5.108-24.348 5.108-24.348Z"/>
  <path fill="#fff" d="M142.557 170.694c.145.231 1.025 1.185 2.173 2.51 1.372 1.584 2.918 3.368 3.099 3.57.333.372.578.116 1.075-.856.689-1.346 2.108-4.296 4.103-6.988 1.996-2.692 4.988-5.662 5.701-6.219.712-.557 1.045-.928.57-1.114-.475-.186-4.185 2.378-6.349 4.669-2.325 2.46-4.843 6.477-5.467 6.571-.5.076-2.919-1.697-3.605-2.113-.796-.484-1.678-.631-1.3-.03Z"/>
  <defs>
    <clipPath id="a">
      <path fill="#fff" d="M186 29h20v20h-20z"/>
    </clipPath>
    <clipPath id="c">
      <path fill="#fff" d="m40.2 49.657 8.379-5.457 4.068 6.245-8.38 5.458z"/>
    </clipPath>
    <clipPath id="d">
      <path fill="#fff" d="M41.202 41.808 51.037 40l1.347 7.332-9.836 1.806z"/>
    </clipPath>
    <clipPath id="f">
      <path fill="#fff" d="M49.224 56.224h1.152v1.152h-1.152z"/>
    </clipPath>
    <filter id="b" width="43" height="54" x="25" y="25" color-interpolation-filters="sRGB" filterUnits="userSpaceOnUse">
      <feFlood flood-opacity="0" result="BackgroundImageFix"/>
      <feColorMatrix in="SourceAlpha" result="hardAlpha" values="0 0 0 0 0 0 0 0 0 0 0 0 0 0 0 0 0 0 127 0"/>
      <feOffset dy="4"/>
      <feGaussianBlur stdDeviation="7.5"/>
      <feColorMatrix values="0 0 0 0 0 0 0 0 0 0 0 0 0 0 0 0 0 0 0.1 0"/>
      <feBlend in2="BackgroundImageFix" result="effect1_dropShadow_252_2154"/>
      <feBlend in="SourceGraphic" in2="effect1_dropShadow_252_2154" result="shape"/>
    </filter>
    <filter id="e" width="62.4" height="62.4" x="18.6" y="29.6" color-interpolation-filters="sRGB" filterUnits="userSpaceOnUse">
      <feFlood flood-opacity="0" result="BackgroundImageFix"/>
      <feColorMatrix in="SourceAlpha" result="hardAlpha" values="0 0 0 0 0 0 0 0 0 0 0 0 0 0 0 0 0 0 127 0"/>
      <feOffset dy="4"/>
      <feGaussianBlur stdDeviation="15"/>
      <feColorMatrix values="0 0 0 0 0.211765 0 0 0 0 0.160784 0 0 0 0 0.717647 0 0 0 0.07 0"/>
      <feBlend in2="BackgroundImageFix" result="effect1_dropShadow_252_2154"/>
      <feBlend in="SourceGraphic" in2="effect1_dropShadow_252_2154" result="shape"/>
    </filter>
  </defs>
</svg>
