<svg xmlns="http://www.w3.org/2000/svg" width="327" height="216" fill="none" viewBox="0 0 327 216">
  <ellipse cx="163.5" cy="179" fill="#F2F1F9" rx="163.5" ry="37"/>
  <path fill="#52D5BA" d="M273.095 166.901c21.906 4.826 45.12-9.905 45.391-18.632.272-8.726-21.018 9.39-24.102.508-3.083-8.881 23.165-12.445 23.535-21.835.37-9.39-23.206 12.782-25.031 6.784-1.818-5.998 20.919-20.197 17.54-27.096-3.38-6.899-17.121 17.387-21.035 14.109-3.914-3.269 11.948-25.9 2.393-27.636-9.556-1.737-7.894 19.074-11.225 23.302-3.33 4.228-3.133-20.017-8.823-18.157-5.691 1.86 4.054 25.212.205 28.358-3.848 3.146-9.58-17.592-16.043-12.807-6.463 4.785 10.197 18.018 8.61 24.196-1.587 6.17-12.401-12.274-18.198-7.391-5.798 4.875 8.428 32.258 26.783 36.297Z"/>
  <path stroke="#4CA5A2" stroke-linecap="round" stroke-miterlimit="10" stroke-width="1.629" d="M289.442 99.838s-9.925 39.681-22.062 76.002"/>
  <path stroke="#4CA5A2" stroke-linecap="round" stroke-miterlimit="10" stroke-width="1.629" d="M309.17 131.226s-27.186 13.38-36.1 25.556c0 0 .329-21.705-13.552-36.551"/>
  <path stroke="#4CA5A2" stroke-linecap="round" stroke-miterlimit="10" stroke-width="1.629" d="M302.755 113.93s-20.278 19.28-26.634 33.692c0 0 1.653-26.055-2.574-39.828"/>
  <path stroke="#4CA5A2" stroke-linecap="round" stroke-miterlimit="10" stroke-width="1.629" d="M313.034 150.842s-36.765 6.071-41.387 12.134c0 0-10.18-22.737-22.819-28.808"/>
  <path fill="#52D5BA" d="M274.92 156.651c5.658-12.831 23.198-40.172 38.287-36.379 17.4 4.376-22.005 31.447-22.005 31.447s27.087-15.437 34.405-3.302c7.327 12.135-32.522 13.773-32.522 13.773s21.051-1.425 17.894 6.408c-3.15 7.833-36.947.819-40.409 8.3-3.454 7.472.469-11.455 4.35-20.247Z"/>
  <path stroke="#4CA5A2" stroke-linecap="round" stroke-miterlimit="10" stroke-width="1.629" d="M271.096 173.627c5.304-13.699 13.297-26.596 23.79-36.944 3.856-3.802 8.058-7.251 12.581-10.242m-36.182 47.465c11.381-14.01 28.683-23.015 46.486-23.458"/>
  <path stroke="#4CA5A2" stroke-linecap="round" stroke-miterlimit="10" stroke-width="1.629" d="M271.466 174.054c9.317-5.629 20.435-7.669 31.224-6.956"/>
  <path fill="#52D5BA" d="M266.689 172.53c1.949-5.702 8.675-9.848 13.897-11.987 12.787-5.235 33.493-9.627 43.188 3.597 3.084 4.212 4.046 9.898 2.5 14.88-2.821 9.102-13.018 13.24-21.701 14.494-11.611 1.671-28.016-.754-35.73-10.611-1.332-1.704-2.36-3.695-2.631-5.834a10.19 10.19 0 0 1 .477-4.539Z"/>
  <path stroke="#4CA5A2" stroke-linecap="round" stroke-miterlimit="10" stroke-width="1.629" d="M268.432 175.914s35.639-9.579 55.161-3.024"/>
  <path stroke="#4CA5A2" stroke-linecap="round" stroke-miterlimit="10" stroke-width="1.629" d="M315.657 182.461s-9.218-11.094-14.439-11.586c0 0 7.425-7.259 13.074-8.889"/>
  <path stroke="#4CA5A2" stroke-linecap="round" stroke-miterlimit="10" stroke-width="1.629" d="M300.996 157.822s-10.477 7.358-10.715 13.864c0 0 9.35 9.201 12.861 16.493m-20.468-26.383s-4.045 7.948-3.42 11.906c0 0 5.871 8.021 9.02 15.215"/>
  <path fill="#52D5BA" d="M92.769 149.021c-21.851 4.833-45.006-9.922-45.277-18.662-.27-8.741 20.965 9.404 24.04.508 3.077-8.896-23.105-12.466-23.474-21.87-.37-9.405 23.147 12.802 24.968 6.795 1.812-6.008-20.867-20.23-17.496-27.14 3.371-6.91 17.077 17.415 20.982 14.132 3.904-3.274-11.918-25.941-2.387-27.681 9.53-1.74 7.874 19.105 11.196 23.34 3.322 4.234 3.125-20.05 8.801-18.186 5.676 1.863-4.044 25.252-.205 28.403 3.839 3.151 9.556-17.62 16.003-12.827 6.447 4.793-10.171 18.046-8.588 24.234 1.583 6.18 12.369-12.293 18.151-7.402 5.783 4.883-8.407 32.31-26.714 36.356Z"/>
  <path stroke="#4CA5A2" stroke-linecap="round" stroke-miterlimit="10" stroke-width="1.629" d="M76.463 81.849s9.9 39.745 22.006 76.125"/>
  <path stroke="#4CA5A2" stroke-linecap="round" stroke-miterlimit="10" stroke-width="1.629" d="M56.785 113.289s27.117 13.401 36.008 25.596c0 0-.328-21.739 13.518-36.61"/>
  <path stroke="#4CA5A2" stroke-linecap="round" stroke-miterlimit="10" stroke-width="1.629" d="M63.183 95.964S83.41 115.275 89.75 129.71c0 0-1.648-26.097 2.568-39.893"/>
  <path stroke="#4CA5A2" stroke-linecap="round" stroke-miterlimit="10" stroke-width="1.629" d="M52.93 132.935s36.673 6.081 41.282 12.154c0 0 10.155-22.773 22.762-28.855"/>
  <path fill="#52D5BA" d="M90.948 138.754c-5.643-12.852-23.139-40.237-38.19-36.438-17.356 4.374 21.95 31.489 21.95 31.489s-27.019-15.461-34.319-3.307c-7.308 12.154 32.44 13.796 32.44 13.796s-20.998-1.428-17.848 6.417c3.141 7.846 36.853.813 40.306 8.314 3.445 7.492-.468-11.465-4.34-20.271Z"/>
  <path stroke="#4CA5A2" stroke-linecap="round" stroke-miterlimit="10" stroke-width="1.629" d="M94.762 155.758c-5.29-13.721-13.263-26.639-23.73-37.004-3.846-3.807-8.038-7.262-12.549-10.258m36.09 47.541c-11.352-14.034-28.61-23.053-46.367-23.496"/>
  <path stroke="#4CA5A2" stroke-linecap="round" stroke-miterlimit="10" stroke-width="1.629" d="M94.393 156.184c-9.293-5.638-20.383-7.681-31.144-6.967"/>
  <path fill="#52D5BA" d="M99.158 154.658c-1.944-5.711-8.653-9.864-13.862-12.006-12.754-5.244-33.408-9.643-43.078 3.603-3.076 4.218-4.035 9.913-2.493 14.903 2.813 9.118 12.984 13.262 21.645 14.518 11.582 1.674 27.946-.755 35.64-10.628 1.328-1.707 2.353-3.701 2.624-5.843.197-1.609 0-3.127-.476-4.547Z"/>
  <path stroke="#4CA5A2" stroke-linecap="round" stroke-miterlimit="10" stroke-width="1.629" d="M97.42 158.048s-35.55-9.593-55.022-3.028"/>
  <path stroke="#4CA5A2" stroke-linecap="round" stroke-miterlimit="10" stroke-width="1.629" d="M50.314 164.605s9.194-11.112 14.403-11.604c0 0-7.407-7.271-13.042-8.904"/>
  <path stroke="#4CA5A2" stroke-linecap="round" stroke-miterlimit="10" stroke-width="1.629" d="M64.938 139.919s10.45 7.37 10.688 13.886c0 0-9.326 9.216-12.828 16.52m20.415-26.418s4.036 7.961 3.412 11.925c0 0-5.856 8.034-8.998 15.239"/>
  <path fill="#FFAF2A" d="M267.43 166.259a.92.92 0 0 1-.916-.905v-7.969c0-4.175-3.372-7.561-7.529-7.561s-7.529 3.401-7.529 7.561v7.969a.91.91 0 0 1-.915.905h-5.059a.908.908 0 0 1-.901-.905v-7.969c0-7.985 6.468-14.48 14.419-14.48 7.95 0 14.419 6.495 14.419 14.48v7.969a.911.911 0 0 1-.916.905h-5.073Z"/>
  <path fill="#fff" d="M259 143.81c7.442 0 13.503 6.087 13.503 13.56v7.97h-5.058v-7.97c0-4.671-3.779-8.481-8.445-8.481-4.651 0-8.445 3.796-8.445 8.481v7.97h-5.058v-7.97c0-7.473 6.047-13.56 13.503-13.56Zm0-1.81c-8.445 0-15.32 6.904-15.32 15.385v7.969c0 1.007.814 1.825 1.817 1.825h5.058a1.822 1.822 0 0 0 1.817-1.825v-7.969c0-3.664 2.965-6.656 6.628-6.656 3.648 0 6.628 2.992 6.628 6.656v7.969c0 1.007.814 1.825 1.817 1.825h5.058a1.822 1.822 0 0 0 1.817-1.825v-7.969c0-8.496-6.875-15.385-15.32-15.385Z"/>
  <path fill="#FFAF2A" d="M242.11 199.51a2.214 2.214 0 0 1-2.209-2.219v-30.638c0-1.226.989-2.218 2.209-2.218h33.779c1.221 0 2.21.992 2.21 2.218v30.623a2.213 2.213 0 0 1-2.21 2.219H242.11v.015Z"/>
  <path fill="#fff" d="M275.89 165.354c.712 0 1.293.584 1.293 1.314v30.623c0 .715-.581 1.314-1.293 1.314h-33.78a1.293 1.293 0 0 1-1.293-1.314v-30.638c0-.715.581-1.313 1.293-1.313h33.78v.014Zm0-1.824h-33.78a3.12 3.12 0 0 0-3.11 3.123v30.623a3.12 3.12 0 0 0 3.11 3.124h33.78a3.12 3.12 0 0 0 3.11-3.124v-30.623a3.12 3.12 0 0 0-3.11-3.123Z"/>
  <path fill="#FFAF2A" d="M275.89 165.354h-6.599v24.143c0 .715-.582 1.299-1.308 1.299h-27.181v6.48c0 .716.582 1.314 1.294 1.314h33.779c.712 0 1.294-.584 1.294-1.314v-30.623a1.278 1.278 0 0 0-1.279-1.299Z"/>
  <path fill="#FFAF2A" d="M275.89 165.354h-2.471v27.792c0 .73-.582 1.299-1.308 1.299h-31.309v2.846c0 .715.582 1.314 1.294 1.314h33.779c.712 0 1.294-.584 1.294-1.314v-30.638a1.278 1.278 0 0 0-1.279-1.299Z"/>
  <path fill="#FFAF2A" stroke="#fff" stroke-linecap="round" stroke-linejoin="round" stroke-miterlimit="10" stroke-width="1.249" d="M264.451 180.286a5.467 5.467 0 0 0-5.466-5.473c-3.008 0-5.465 2.452-5.465 5.473a5.478 5.478 0 0 0 3.518 5.124v2.569c0 1.08.872 1.956 1.947 1.956a1.952 1.952 0 0 0 1.948-1.956v-2.569a5.478 5.478 0 0 0 3.518-5.124Z"/>
  <path fill="#3629B7" d="m156.307 172.025-55.312-.254c-6.653-.03-12.02-5.447-11.995-12.1l.588-138.67c.03-6.659 5.447-12.03 12.105-12l55.312.253c6.653.03 12.02 5.447 11.995 12.1l-.588 138.671c-.025 6.657-5.447 12.03-12.105 12Z"/>
  <path fill="#fff" d="m156.925 14.043-10.724-.05c-1.441-.004-2.612 1.207-2.617 2.712l-.01 1.943c-.005 1.505-1.176 2.716-2.616 2.711l-20.906-.095c-1.44-.005-2.596-1.23-2.591-2.735l.01-1.944c.005-1.505-1.156-2.726-2.592-2.736l-3.772-.02-9.384-.045c-4.66-.02-8.457 3.743-8.477 8.402l-.573 135.352a8.433 8.433 0 0 0 8.397 8.472l55.202.254c4.66.02 8.457-3.743 8.477-8.402l.573-135.352c.025-4.654-3.737-8.447-8.397-8.467Z"/>
  <circle cx="129" cy="91" r="15" fill="#3629B7"/>
  <path fill="#fff" d="M121.085 92.485c.136.215.963 1.103 2.041 2.338a914.116 914.116 0 0 0 2.912 3.326c.312.346.542.108 1.009-.798.647-1.254 1.98-4.001 3.855-6.51 1.874-2.508 4.685-5.275 5.354-5.794.669-.52.982-.865.536-1.038-.447-.173-3.931 2.215-5.964 4.35-2.184 2.292-4.549 6.034-5.135 6.122-.47.07-2.742-1.58-3.386-1.969-.748-.45-1.577-.588-1.222-.027Z"/>
  <path fill="#FF4267" d="m214.566 181.829-5.011-3.946 7.32-9.44 7.387 5.691-.416.614c-1.872 2.719-9.722 13.685-11.601 15.015-2.097 1.492 2.321-7.934 2.321-7.934Z"/>
  <path fill="#263238" d="M211.611 189.626c-.088-.068 2.601-3.639 6.006-7.974 3.404-4.335 6.236-7.79 6.325-7.722.088.068-2.601 3.64-6.005 7.974-3.405 4.335-6.237 7.797-6.326 7.722Zm3.847-6.829c-.02.116-.34.156-.728.15-.388-.007-.708-.055-.729-.164-.013-.109.307-.245.729-.245.422.007.742.15.728.259Zm-.143.858c-.034.109-.395.103-.817.041-.422-.061-.776-.143-.776-.258 0-.109.375-.211.831-.15.456.068.796.265.762.367Z"/>
  <path fill="#263238" d="M221.681 176.738c-.054.014-.17-.198-.306-.566-.13-.368-.286-.906-.266-1.54.021-.634.273-1.186.552-1.499.279-.314.544-.389.565-.348.034.055-.15.204-.334.518a2.908 2.908 0 0 0-.374 1.343c-.021.559.081 1.07.136 1.451.061.375.082.627.027.641Zm-7.189 5.35c-.041-.109.163-.286.428-.457.266-.17.518-.279.6-.197.075.082-.075.347-.382.538-.299.197-.606.218-.646.116Zm-.368-.531c-.082-.075.047-.382.293-.682.245-.3.51-.491.606-.429.095.061-.035.368-.293.681-.252.32-.524.511-.606.43Z"/>
  <path fill="#263238" d="M191.386 119.271s-11.213 29.82-9.701 35.391c1.511 5.572 31.749 27.693 31.749 27.693l8.21-11.827s-23.585-18.682-23.656-19.715c-.077-1.032 9.364-25.807 9.364-25.807l-15.966-5.735Z"/>
  <path fill="#455A64" d="M212.913 173.262c-.005.005-.041-.015-.107-.056-.082-.051-.179-.117-.296-.194l-1.124-.772c-.97-.68-2.364-1.671-4.064-2.929a235.331 235.331 0 0 1-12.923-10.304 246.694 246.694 0 0 1-3.554-3.098c-.567-.506-1.123-1.007-1.67-1.492-.541-.491-1.097-.987-1.44-1.636-.362-.654-.347-1.421-.209-2.07.133-.659.296-1.278.455-1.881.321-1.201.643-2.315.939-3.332.582-2.014 1.062-3.65 1.399-4.81.153-.552.276-.992.368-1.314.035-.138.071-.25.097-.342.025-.077.035-.118.041-.113.005 0 0 .041-.016.123-.02.092-.041.209-.071.348-.067.306-.174.751-.317 1.323-.291 1.15-.745 2.801-1.312 4.836-.281 1.017-.592 2.136-.904 3.337-.153.603-.316 1.227-.439 1.871-.122.639-.133 1.319.199 1.912.317.593.853 1.073 1.394 1.559.546.485 1.103.981 1.675 1.487a241.14 241.14 0 0 0 3.554 3.087 280.769 280.769 0 0 0 12.862 10.361c1.68 1.252 3.043 2.275 4.008 3 .459.343.822.614 1.093.813.112.087.204.159.28.215.057.041.087.066.082.071Z"/>
  <path fill="#455A64" d="M210.176 176.866c-.061-.046 1.496-2.198 3.477-4.805 1.981-2.607 3.636-4.687 3.697-4.641.061.046-1.496 2.198-3.482 4.805-1.976 2.606-3.631 4.682-3.692 4.641Z"/>
  <path fill="#263238" d="M211.187 62.561c1.001 2.004 1.527 3.742 3.513 4.774.894.466 1.986.731 2.527 1.585.588.93.312 2.274 1.052 3.087 1.078 1.18 3.289.225 4.499 1.263 1.082.93.735 2.923 1.899 3.741.659.46 1.552.358 2.298.65 1.225.475 1.807 1.89 1.966 3.194.127 1.042.071 2.141-.388 3.092-.455.95-1.354 1.728-2.4 1.835-1.389.148-2.967-.813-4.09.015-.398.297-.633.757-.94 1.145a3.566 3.566 0 0 1-2.976 1.334 3.57 3.57 0 0 1-2.788-1.697c-.776-1.293-.725-3.082-1.864-4.073-.592-.522-1.399-.706-2.139-.982-.741-.276-1.502-.736-1.726-1.492-.215-.736-.644-1.206-1.067-1.84-.567-.849-1.328.189-2.079-.23-.75-.42-.464-1.237-.531-2.101"/>
  <path fill="#E5BAAB" d="m197.978 91.532-9.691-3.246s-4.284 12.349-5.597 12.472c-7.271.665-15.052-1.748-17.779-2.704a20.912 20.912 0 0 1-.944-1.145 4.369 4.369 0 0 1-.684-1.308c-.184-.573-.404-1.34-.389-1.8.016-.567-.663-.858-.98-.45-.316.41-.393 1.969.322 3.645.72 1.677-1.823.343-2.757-.128-.935-.47-3.896-1.789-4.264-1.615-.546.256-.373.884.572 1.334.955.455 3.681 1.989 3.411 2.469-.266.475-4.994-1.983-4.994-1.983s-.924-.69-1.256-.143c-.597.986 4.616 3.225 5.116 3.429.347.138.072.675-.296.506-.378-.173-4.657-2.56-5.274-1.564-.475.767 4.273 1.886 4.886 2.873.613.986-3.513-1.217-3.937-.465-.158.281-.24.511 2.318 1.431 1.241.45 3.575.997 5.688 1.457l-.01.025s25.505 11.419 31.004.409c5.831-11.669 5.535-13.499 5.535-13.499Z"/>
  <path fill="#FF4267" d="m207.562 81.31 4.233.076 3.359 9.645-2.736 11.051c-.802 3.23 2.828 9.686 2.736 13.248l-23.743 3.849-.5-15.875-.01-.532-8.216-4.105 2.712-6.65c4.171-9.782 11.457-10.375 11.457-10.375l10.708-.333Z"/>
  <path fill="#455A64" d="M191.044 102.655c-.01.015-.199-.062-.511-.271a4.093 4.093 0 0 1-1.097-1.135c-.373-.557-.634-1.375-.562-2.27.036-.884.316-1.87.924-2.708a4.963 4.963 0 0 1 1.685-1.508l-.071.097c.194-1.457.372-2.71.51-3.599.138-.889.23-1.405.261-1.405.03.005-.011.531-.103 1.426-.091.894-.234 2.152-.413 3.609l-.005.06-.067.037a4.832 4.832 0 0 0-1.572 1.43 4.898 4.898 0 0 0-.894 2.567 3.53 3.53 0 0 0 .47 2.152c.327.557.725.914.996 1.15.286.245.459.352.449.368Z"/>
  <path fill="#455A64" d="M191.937 91.951c-.066.031-.301-.306-.521-.756-.219-.45-.347-.843-.275-.88.066-.03.301.308.521.757.219.45.347.844.275.88Z"/>
  <path fill="#E5BAAB" d="m207.276 81.448.73-16.704-6.628-5.025-6.025 2.95s-.199 7.57 0 10.85c.2 3.282 3.508 3.635 3.508 3.635s-.076 1.922-.153 3.946a4.29 4.29 0 0 0 4.325 4.452 4.289 4.289 0 0 0 4.243-4.104Z"/>
  <path fill="#263238" d="M196.012 68.183c0 .23.189.418.419.418a.42.42 0 0 0 .419-.418.42.42 0 0 0-.419-.419.42.42 0 0 0-.419.419Zm-.403-.455c.056.056.362-.21.817-.235.449-.03.791.194.837.133.026-.026-.031-.128-.184-.23a1.113 1.113 0 0 0-.674-.178 1.099 1.099 0 0 0-.648.255c-.133.122-.179.23-.148.255Zm5.269.455c0 .23.189.418.419.418a.42.42 0 0 0 .419-.418.42.42 0 0 0-.419-.419.42.42 0 0 0-.419.419Zm-.26-.455c.056.056.362-.21.817-.235.449-.03.791.194.837.133.026-.026-.031-.128-.184-.23a1.113 1.113 0 0 0-.674-.178 1.099 1.099 0 0 0-.648.255c-.133.122-.174.23-.148.255Z"/>
  <path fill="#fff" d="M200.48 71.976c-.562.281-1.557.68-2.185.752 0 0 .556.797 1.496.424.975-.383.689-1.176.689-1.176Z"/>
  <path fill="#D78776" d="M198.861 77.154s2.211.026 4.346-1.467c0 0-.986 2.413-4.274 2.275l-.072-.808Z"/>
  <path fill="#263238" d="M217.549 74.18a2.347 2.347 0 0 1-1.189-.272c-.47-.23-.93-.664-1.297-1.257-.373-.588-.659-1.319-.971-2.08a50.448 50.448 0 0 1-1.388-3.977c-.051-.164-.092-.312-.138-.455a4.458 4.458 0 0 0-.087-.45c-1.787-6.844-7.802-8.122-8.992-8.122-1.276 0-3.508-.7-6.76 2.679a7.42 7.42 0 0 0-1.236 1.702c-.837 1.053-1.281 2.218-1.45 3.092-.199 1.002-.112 1.63-.076 1.63.061 0 .071-.618.326-1.569a8.046 8.046 0 0 1 .628-1.615c-.474 2.122.332 3.783.332 3.783l1.164-.322 4.177-1.421c-.378-1.293.179-2.903.495-3.655l.031-.03c.955 4.911 5.52 5.366 5.52 5.366l.771 10.75c5.55-1.186 5.427-8.623 5.392-10.136.25.853.577 1.83.99 2.852.312.761.608 1.503 1.016 2.116.399.618.924 1.078 1.44 1.298.516.23.991.246 1.297.194.306-.06.455-.158.449-.173.006-.005-.153.05-.444.071Z"/>
  <path fill="#263238" d="M198.984 71.547c0-.026-.281-.057-.741-.092-.117-.005-.229-.02-.25-.108-.03-.087.016-.22.067-.363.097-.296.199-.608.311-.935.215-.67.398-1.273.526-1.717.128-.445.189-.721.169-.726-.026-.005-.133.255-.292.69a48.89 48.89 0 0 0-.577 1.697c-.102.327-.204.644-.296.94-.04.138-.107.297-.046.47a.281.281 0 0 0 .194.164c.072.02.138.015.194.015.46 0 .741-.01.741-.035Z"/>
  <path fill="#E5BAAB" d="M208.353 71.409c-.02-.547-.02-1.11.174-1.62.199-.512.633-.962 1.179-1.018.628-.066 1.231.455 1.333 1.079.097.623-.26 1.267-.812 1.58-.546.306-1.246.3-1.823.05"/>
  <path fill="#D78776" d="M209.308 70.933c.021-.036.179.046.409-.026.235-.056.469-.322.49-.7.015-.184-.026-.353-.118-.44-.092-.087-.24-.112-.357-.107-.245.02-.419.087-.434.046-.01-.025.112-.153.403-.235a.657.657 0 0 1 .552.107c.194.159.24.42.224.65a1.014 1.014 0 0 1-.245.613.757.757 0 0 1-.485.255c-.316.031-.464-.143-.439-.163Z"/>
  <path fill="#FF4267" d="M204.284 201.467v-4.784l8.951-.057.071 6.998-.556.041c-2.472.153-12.566.603-14.221.112-1.838-.547 5.755-2.31 5.755-2.31Z"/>
  <path fill="#263238" d="M198.325 203.342c0-.086 3.35-.153 7.48-.153 4.131 0 7.481.067 7.481.153 0 .082-3.35.154-7.481.154-4.13 0-7.48-.072-7.48-.154Zm5.806-.9c-.077.041-.25-.133-.429-.362-.179-.23-.296-.445-.24-.506.056-.061.291.066.48.317.194.255.26.51.189.551Zm-.572.318c-.082.031-.24-.184-.404-.46-.163-.276-.275-.521-.209-.578.066-.051.296.123.47.419.178.302.219.588.143.619Z"/>
  <path fill="#263238" d="M210.584 203.307c-.035-.026.036-.194.195-.445.158-.25.403-.587.786-.869.383-.281.827-.393 1.138-.368.317.021.48.144.465.174-.015.046-.189.005-.459.041a2.128 2.128 0 0 0-.965.399c-.337.245-.598.542-.792.751-.199.22-.332.343-.368.317Zm-6.484-1.763c.041-.072.245-.036.47.04.224.082.403.179.393.261-.01.081-.24.117-.495.025-.256-.081-.409-.255-.368-.326Zm.143-.461c.01-.081.25-.148.536-.148.291.005.526.077.531.158.005.082-.235.148-.536.148-.301-.005-.541-.076-.531-.158Z"/>
  <path fill="#455A64" d="m196.288 118.453-4.907.818 2.823 3.476c.812 16.372.613 32.227 1.364 40.134.112 1.201 5.177 38.867 4.677 37.982l14.909.624-4.452-37.824 2.109-33.597a17.813 17.813 0 0 0 1.869-13.12l-.368-1.513"/>
  <path fill="#263238" d="M206.566 59.33c-.74-.285-1.343-.935-1.532-1.706-.188-.772.072-1.646.674-2.163.608-.516 1.542-.618 2.222-.21.556.333.893.941 1.102 1.555.143.409.24.853.133 1.273-.158.628-.75 1.073-1.373 1.242-.623.168-1.287.112-1.93.05"/>
  <path fill="#263238" d="M219.724 68.44c-.03-.006.118-.241.031-.67a1.503 1.503 0 0 0-.358-.685c-.199-.225-.505-.404-.878-.506-.373-.103-.801-.123-1.261-.092-.46.03-.96.112-1.501.122-.536.01-1.139-.061-1.66-.393-.546-.333-.811-.966-.99-1.539a8.165 8.165 0 0 0-1.634-2.934 8.721 8.721 0 0 0-2.114-1.768c-1.368-.803-2.379-.93-2.359-.992 0-.01.061-.005.179.016.117.02.291.04.505.102.439.102 1.057.322 1.767.705a8.348 8.348 0 0 1 2.206 1.769 8.234 8.234 0 0 1 1.705 3.015c.184.573.419 1.114.878 1.4.45.292 1.006.374 1.512.369.515-.005 1.016-.077 1.491-.097.475-.026.929.005 1.327.133.399.117.73.332.94.593.214.255.311.536.347.766.031.23-.005.414-.046.527-.036.112-.082.163-.087.158Z"/>
  <path fill="#E0E0E0" d="M210.294 71.378c.015-.025.245.169.245.614a.976.976 0 0 1-.312.685 1.076 1.076 0 0 1-.883.276 1.068 1.068 0 0 1-.751-.542.954.954 0 0 1-.071-.746c.138-.42.419-.532.424-.501.03.03-.174.194-.235.547a.8.8 0 0 0 .107.577c.112.19.327.358.577.399.25.04.5-.051.674-.194a.853.853 0 0 0 .286-.517c.041-.357-.102-.577-.061-.598Z"/>
  <path fill="#E8505B" d="M208.971 59.975c-.066.056-.72-.772-1.843-1.36-1.119-.603-2.17-.68-2.16-.762-.01-.066 1.108-.112 2.287.522 1.185.618 1.777 1.574 1.716 1.6Z"/>
  <path fill="#E0E0E0" d="M210.876 70.755c0-.036.143-.046.234.122.041.077.062.2.006.322a.407.407 0 0 1-.348.215.417.417 0 0 1-.434-.465c.026-.174.123-.235.148-.21.036.02.016.103.046.205.031.107.103.204.235.194.128-.005.179-.092.169-.2-.005-.096-.067-.148-.056-.183Z"/>
  <path fill="#fff" d="M212.12 91.755c-19.629 4.37-29.675-4.686-31.029-6.024 0 0-.029-.134-.081-.08-.052-.054-.079.08-.079.08-1.335 1.355-11.25 10.536-30.941 6.41 0 0-2.765 35.329 8.798 49.664 12.35 15.31 22.714 19.897 22.766 19.857.052.04 10.439-4.588 22.48-20.138 11.265-14.548 8.086-49.77 8.086-49.77Z"/>
  <path fill="#3629B7" d="M209.27 95.406c-17.813 3.893-26.928-4.17-28.157-5.36 0 0-.025-.12-.073-.072-.047-.047-.071.073-.071.073-1.212 1.206-10.21 9.38-28.078 5.709 0 0-2.514 31.453 7.977 44.213 11.205 13.629 20.606 18.554 20.653 18.518.047.035 9.477-4.927 20.405-18.772 10.224-12.953 7.344-44.31 7.344-44.31Z"/>
  <path fill="#000" d="M180.984 93.144s.025-.125.075-.075c.049-.05.076.075.076.075 1.263 1.222 10.466 9.363 28.413 5.836-.11-3.204-.294-5.208-.294-5.208-17.813 3.893-26.928-4.17-28.157-5.36 0 0-.025-.12-.073-.071-.047-.048-.071.072-.071.072-1.213 1.206-10.211 9.38-28.078 5.709 0 0-.16 2.005-.231 5.208 18.004 3.311 27.095-4.947 28.34-6.186Z" opacity=".02"/>
  <path fill="#5655B9" d="M204.044 104.176c-13.459 2.996-21.953-3.525-22.882-4.442 0 0-.019-.093-.055-.055-.036-.037-.054.055-.054.055-.915.929-9.23 7.537-22.73 4.708 0 0-.379 23.908 7.549 33.735 8.467 10.496 15.572 13.642 15.608 13.614.036.027 7.157-3.146 15.412-13.806 7.723-9.974 7.152-33.809 7.152-33.809Z"/>
  <path fill="#455A64" d="M207.383 80.931c.016 0 .062.194.056.552 0 .358-.066.884-.296 1.487a4.517 4.517 0 0 1-1.317 1.83c-.659.558-1.578.93-2.568.997-.991.056-1.951-.204-2.671-.68a4.622 4.622 0 0 1-1.527-1.656 4.328 4.328 0 0 1-.474-1.441c-.046-.358-.021-.557-.011-.557.062-.016.026.812.654 1.901.317.532.802 1.11 1.491 1.539.684.434 1.583.67 2.517.618.935-.061 1.797-.404 2.426-.915a4.602 4.602 0 0 0 1.296-1.707c.496-1.155.363-1.973.424-1.968Z"/>
  <path fill="#263238" d="M206.311 198.068a.541.541 0 0 1-.031-.138 27.751 27.751 0 0 0-.061-.409c-.051-.379-.117-.905-.204-1.569a359.18 359.18 0 0 1-.679-5.786 667.433 667.433 0 0 1-3.074-38.3 372.918 372.918 0 0 1-.255-5.816c-.021-.67-.036-1.202-.046-1.585 0-.169-.005-.301-.005-.414 0-.092.005-.138.005-.143.005 0 .01.046.02.138.01.107.021.245.031.409.025.383.056.91.097 1.579.081 1.396.199 3.374.342 5.812.291 4.907.74 11.684 1.343 19.162a993.165 993.165 0 0 0 1.731 19.127c.25 2.428.449 4.401.592 5.791l.153 1.574.036.409c.01.113.01.159.005.159Z"/>
  <path fill="#E5BAAB" d="m217.549 98.264-8.757-5.766s-4.284 12.349-5.596 12.472c-7.271.664-15.052-1.748-17.779-2.704a20.54 20.54 0 0 1-.944-1.145 4.395 4.395 0 0 1-.685-1.309c-.183-.572-.403-1.339-.388-1.799.016-.567-.663-.859-.98-.45-.317.41-.393 1.968.322 3.645.72 1.676-1.823.342-2.758-.128-.934-.47-3.896-1.789-4.263-1.615-.546.255-.373.884.572 1.334.955.455 3.681 1.988 3.411 2.469-.266.475-4.994-1.984-4.994-1.984s-.924-.69-1.256-.143c-.598.987 4.616 3.226 5.116 3.43.347.138.071.675-.296.506-.378-.174-4.657-2.561-5.275-1.564-.474.767 4.274 1.886 4.887 2.873.613.986-3.513-1.217-3.937-.466-.158.282-.24.512 2.318 1.432 1.241.449 3.574.996 5.688 1.456l-.01.026s26.071 11.684 31.004.409c5.244-11.991 4.6-10.98 4.6-10.98Z"/>
  <path fill="#FF4267" d="M211.795 81.381s7.97.94 7.123 10.427c-.858 9.676-4.856 16.822-4.856 16.822l-10.447-5.49c2.344-4.754 4.141-9.67 5.269-14.792l2.911-6.967Z"/>
  <path fill="#455A64" d="M208.277 91.133c.02.006-.016.184-.087.496a23.5 23.5 0 0 1-.358 1.324 51.629 51.629 0 0 1-1.465 4.278 50.493 50.493 0 0 1-1.838 4.13c-.261.517-.48.931-.643 1.212-.159.281-.256.434-.276.424-.036-.021.265-.665.74-1.717a93.23 93.23 0 0 0 1.757-4.146 90.988 90.988 0 0 0 1.537-4.232c.372-1.099.597-1.779.633-1.769Z"/>
  <path fill="#455A64" d="M208.277 91.133c.02.006-.016.184-.087.496a23.5 23.5 0 0 1-.358 1.324 51.616 51.616 0 0 1-1.465 4.278 50.497 50.497 0 0 1-1.838 4.13c-.261.516-.48.931-.643 1.212-.159.281-.256.434-.276.424-.036-.021.265-.665.74-1.718a92.668 92.668 0 0 0 1.757-4.145 90.986 90.986 0 0 0 1.537-4.232c.372-1.099.597-1.779.633-1.769Z"/>
  <g clip-path="url(#a)">
    <path fill="#FFAF2A" d="M92 190.719c0-1.113.277-2.168.835-3.123 1.333-2.285 4.123-3.596 7.655-3.596 6.211 0 13.356 3.907 16.265 8.894 1.566 2.685 1.736 5.352.478 7.51-1.334 2.286-4.124 3.596-7.656 3.596-6.211 0-13.355-3.907-16.264-8.894-.874-1.496-1.313-2.987-1.313-4.387Zm21.592 6.552c0-.8-.406-1.645-.709-2.165-2.113-3.622-7.788-6.682-12.393-6.682-1.864 0-3.278.517-3.784 1.384-.576.986.052 2.357.477 3.086 2.113 3.622 7.788 6.681 12.393 6.681 1.864 0 3.279-.517 3.784-1.383.166-.283.232-.599.232-.921Z"/>
    <path fill="#FFAF2A" d="M108.583 200.367c3.488 0 4.778-2.175 4.778-2.175-.506.866-1.92 1.383-3.784 1.383-4.605 0-10.28-3.059-12.393-6.681-.425-.729-1.053-2.099-.478-3.086 0 0-1.151 1.836.247 4.372 2.024 3.671 7.025 6.187 11.63 6.187Zm43.606-3.489c1.276 0 2.311-1.024 2.311-2.288 0-1.263-1.035-2.287-2.311-2.287h-36.763c-.341 0-.683.223-.943.67-.521.893-.521 2.342 0 3.235.26.446.602.67.943.67h36.763Z"/>
    <path fill="#FFAF2A" d="M143.975 195.051c.852 0 1.887-.592 2.312-1.321.217-.371.232-.705.084-.945l.002-.001-3.285-5.645-.082-.136a1.773 1.773 0 0 0-.257-.326 1.893 1.893 0 0 0-1.34-.552 1.9 1.9 0 0 0-1.663.972 1.872 1.872 0 0 0 0 1.785l.063.108 3.305 5.68.001-.001c.141.236.438.382.86.382Zm-9.204 0c.851 0 1.886-.592 2.312-1.321.216-.371.231-.705.084-.945l.002-.001-3.839-6.616-.082-.136a1.712 1.712 0 0 0-.256-.325 1.893 1.893 0 0 0-1.341-.553c-.716 0-1.34.394-1.662.972a1.861 1.861 0 0 0 0 1.786c.019.036.042.071.062.107l3.858 6.651.002-.001c.141.236.437.382.86.382Z"/>
  </g>
  <path fill="#F2F1F9" d="m240.072 62.907 8.855.001a9.327 9.327 0 0 1-.564-.846l-1.111-1.925c-1.976-3.423-.374-6.2 3.579-6.199 1.6 0 3.34.461 4.977 1.23-2-4.586.451-8.14 5.921-8.14 5.915 0 13.107 4.152 16.065 9.275l1.662 2.879c.766 1.326 1.166 2.585 1.245 3.726h7.355c2.193 0 4.86 1.539 5.956 3.438 1.097 1.9.208 3.439-1.986 3.439h-47.983c-2.193 0-4.859-1.539-5.956-3.438-1.096-1.9-.208-3.439 1.985-3.44Zm-62.93-46.726 5.485.001a5.56 5.56 0 0 1-.35-.524l-.688-1.192c-1.224-2.12-.231-3.84 2.217-3.84.991 0 2.069.285 3.083.761-1.239-2.84.279-5.041 3.667-5.041 3.664 0 8.119 2.572 9.951 5.745l1.029 1.783c.475.821.723 1.601.772 2.308h4.556c1.358 0 3.01.953 3.689 2.13.679 1.176.129 2.13-1.23 2.13h-29.721c-1.359 0-3.011-.954-3.69-2.13-.679-1.177-.129-2.13 1.23-2.13ZM35.828 66.499h6.682a6.904 6.904 0 0 1-.425-.638l-.839-1.453c-1.492-2.584-.282-4.678 2.702-4.678 1.208 0 2.521.348 3.755.927-1.51-3.46.341-6.142 4.47-6.142 4.464 0 9.892 3.133 12.124 7l1.254 2.171c.578 1.002.88 1.952.94 2.814h5.55c1.654-.001 3.667 1.161 4.495 2.595.827 1.433.156 2.595-1.498 2.595l-36.214-.001c-1.654 0-3.667-1.162-4.495-2.595-.827-1.434-.156-2.595 1.499-2.595Z"/>
  <defs>
    <clipPath id="a">
      <path fill="#fff" d="M154.5 184v20H92v-20z"/>
    </clipPath>
  </defs>
</svg>
