<svg xmlns="http://www.w3.org/2000/svg" width="327" height="226" fill="none" viewBox="0 0 327 226">
  <path stroke="#ADBBF9" stroke-dasharray="3.5 3.5" stroke-linejoin="round" stroke-miterlimit="10" d="M126.571 170.136c-2.892-10.019-11.167-17.721-21.841-17.983-6.206-.151-12.226 2.517-17.513 5.563-7.135 4.108-15.545 9.067-24.086 7.824-5.468-.801-11.945-3.877-13.23-10.236-1.356-6.726 4.062-11.342 9.856-14.046 4.966-2.321 11.93-7.864 14.164-13.17 8.847-21.049-15.891-45.074-8.912-69.063 7.305-25.108 41.142-29.352 58.148-12.305a49.927 49.927 0 0 1 4.544 5.226c3.469 4.622 5.513 10.915 10.338 14.384 6.246 4.49 14.34 3.05 21.073.387 12.859-5.095 16.263-8.458 28.835-13.945 9.043-3.947 20.185-7.467 30.342-3.962 7.281 2.512 15.324 7.033 19.396 13.572 7.572 12.164 4.173 25.269 16.143 42.567 5.422 7.839 14.043 10.034 20.912 15.698 17.804 14.681 11.855 45.633-7.567 56.22-15.946 8.695-35.578 6.711-52.87 4.481a202.707 202.707 0 0 1-3.972-.549"/>
  <path fill="#fff" stroke="#ADBBF9" stroke-linejoin="round" stroke-miterlimit="10" d="M72.304 75.603a17.58 17.58 0 0 0-.085-1.072c-.347-3.127-2.48-2.84-3.811-2.744-1.33.096-2.983.146-3.615-1.309-.277-.634-.266-1.395-.447-2.08-.402-1.515-1.748-2.426-3.033-2.426-1.285-.005-2.5.735-3.55 1.651-.547.474-1.165 1.032-1.812.851-.417-.115-.743-.513-1.005-.936-1.52-2.477-1.51-6.082-3.178-8.413-1.837-2.572-5.277-2.623-7.602-.755-2.324 1.868-3.66 5.196-4.272 8.554-.196 1.092-.372 2.29-1.04 3.03-.959 1.063-2.43.71-3.71.57-1.486-.167-3.073.075-4.278 1.167-.984.891-1.622 2.452-1.501 3.917h42.939v-.005Zm86.004-54.146h42.267s-1.692-1.974-3.61-2.648c-2.415-.846-3.414 1.535-4.941-1.546-.853-1.727-1.451-4.002-3.7-4.591-3.515-.922-4.409 1.988-6.086 1.203-1.471-.69-1.426-3.459-2.907-5.77-1.451-2.26-4.986-3.65-7.401-2.472-4.408 2.155-3.836 5.579-5.277 6.706-1.426 1.113-4.689-2.809-8.345 1.435-2.515 2.925 0 7.683 0 7.683Z"/>
  <path stroke="#ADBBF9" stroke-linejoin="round" stroke-miterlimit="10" d="M202.428 6.892a1.854 1.854 0 0 1-1.853 1.858 1.854 1.854 0 0 1-1.853-1.858c0-1.027.829-1.858 1.853-1.858s1.853.831 1.853 1.858ZM324.654 156.77a1.854 1.854 0 1 1-3.706 0c0-1.027.829-1.858 1.853-1.858a1.851 1.851 0 0 1 1.853 1.858Zm-88.58-77.058a1.854 1.854 0 0 1-1.853 1.857 1.854 1.854 0 0 1-1.853-1.858 1.854 1.854 0 1 1 3.706.001ZM6.69 101.763a1.853 1.853 0 1 1-3.705 0 1.853 1.853 0 1 1 3.705 0ZM82.346 32.05a1.854 1.854 0 1 1-3.705 0 1.854 1.854 0 1 1 3.705 0Zm21.972-8.458a1.26 1.26 0 1 1-2.521 0 1.26 1.26 0 1 1 2.521 0Zm205.328 89.488a1.26 1.26 0 1 1-2.521 0 1.26 1.26 0 1 1 2.521 0Zm-91.593-40.578a1.263 1.263 0 0 0 0-2.527c-.696 0-1.26.566-1.26 1.263 0 .698.564 1.264 1.26 1.264ZM268.9 39.43a1.26 1.26 0 1 1-2.52 0 1.26 1.26 0 1 1 2.52 0Zm-28.888-8.463a1.26 1.26 0 1 1-2.52 0 1.26 1.26 0 1 1 2.52 0Zm26.202 101.073a1.26 1.26 0 1 1-2.52 0c0-.7.562-1.264 1.26-1.264a1.256 1.256 0 0 1 1.26 1.264ZM70.542 144.143a1.26 1.26 0 1 1-2.52 0 1.26 1.26 0 1 1 2.52 0Zm3.786-57.756a1.26 1.26 0 1 1-2.52 0 1.26 1.26 0 1 1 2.52 0Z"/>
  <path fill="#E4E9F9" d="M317.403 94.996h-1.687a.55.55 0 0 1-.547-.549v-1.691a.55.55 0 0 1 .547-.549h1.687a.55.55 0 0 1 .548.549v1.691a.55.55 0 0 1-.548.55Zm-259.65 58.189h-1.687a.55.55 0 0 1-.547-.549v-1.691a.55.55 0 0 1 .547-.549h1.687a.55.55 0 0 1 .548.549v1.691a.543.543 0 0 1-.548.549ZM54.82 50.21h-1.686a.55.55 0 0 1-.548-.55v-1.69a.55.55 0 0 1 .548-.549h1.687a.55.55 0 0 1 .547.549v1.691a.55.55 0 0 1-.547.55Zm186.485 61.053h-1.687a.55.55 0 0 1-.547-.549v-1.692c0-.302.246-.548.547-.548h1.687c.301 0 .547.246.547.548v1.692a.55.55 0 0 1-.547.549Z"/>
  <path fill="#fff" stroke="#ADBBF9" stroke-linejoin="round" stroke-miterlimit="10" d="M202.879 91.205c.015-.242.036-.498.071-.77.281-2.246 2.033-2.04 3.128-1.969 1.089.07 2.445.106 2.967-.941.226-.453.216-1.002.367-1.49.331-1.088 1.436-1.742 2.49-1.742 1.054 0 2.049.528 2.912 1.183 2.802 2.13 3.605-3.474 4.936-5.1 1.511-1.848 4.323-2.88 6.231-1.54 1.908 1.339 3.007 3.725 3.505 6.136.16.786.22 1.742.853 2.175 1.853 1.27 4.238-1.193 6.477.72.783.67.934 2.286.834 3.338h-34.771Z"/>
  <path fill="#fff" d="M64.572 206.289c-6.296-9.521-19.477-33.581-8.049-41.857 6.271-4.547 14.586-.408 18.608 9.616 3.816 9.52 5.277 20.767 6.869 32.105"/>
  <path fill="#ADBBF9" d="M64.707 206.214c-3.012-4.627-5.723-9.48-7.973-14.525-2.435-5.467-4.674-11.554-4.514-17.636.146-5.442 3.445-11.015 9.42-11.252 7.546-.297 12.035 7.597 14.189 13.719 3.354 9.545 4.564 19.72 5.965 29.694.04.271.447.156.407-.111-1.361-9.697-2.551-19.554-5.68-28.873-2.078-6.188-5.899-13.649-13.094-14.726-5.332-.801-9.977 3.131-11.177 8.181-1.38 5.81.558 12.184 2.646 17.581 2.46 6.358 5.76 12.445 9.54 18.109.11.161.382.005.271-.161Z"/>
  <path stroke="#ADBBF9" stroke-linejoin="round" stroke-miterlimit="10" d="m59.757 163.008 14.842 43.311"/>
  <path fill="#fff" d="M39.332 206.299c-5.433-7.044-17.303-24.841-7.447-30.963 5.413-3.363 12.081-.302 15.55 7.114 3.294 7.043 4.554 15.365 5.925 23.748"/>
  <path fill="#ADBBF9" d="M39.467 206.219c-2.516-3.323-4.866-6.797-6.864-10.457-2.129-3.902-4.213-8.327-4.308-12.858-.096-4.501 2.887-8.312 7.526-8.695 5.82-.483 9.907 4.733 11.96 9.536 3.048 7.118 4.133 14.922 5.378 22.514.045.267.452.156.407-.111-1.22-7.471-2.305-15.129-5.227-22.167-1.964-4.727-5.538-9.706-11.077-10.175-4.132-.347-8.209 2.357-9.118 6.47-.959 4.334.859 9.017 2.692 12.868 2.244 4.727 5.176 9.153 8.39 13.271.105.131.346-.055.24-.196Z"/>
  <path stroke="#ADBBF9" stroke-linejoin="round" stroke-miterlimit="10" d="m34.677 174.28 12.804 32.039"/>
  <path fill="#fff" d="M102.837 206.199c-14.877-27.066-24.492-53.895-12.482-66.642 11.895-12.632 24.342 2.336 27.369 15.597 3.711 16.241 4.248 33.827 4.173 51.045"/>
  <path stroke="#ADBBF9" stroke-linejoin="round" stroke-miterlimit="10" d="M102.837 206.199c-14.877-27.066-24.492-53.895-12.482-66.642 11.895-12.632 24.342 2.336 27.369 15.597 3.711 16.241 4.248 33.827 4.173 51.045m-27.139-69.93 17.875 69.889"/>
  <path fill="#fff" d="M80.508 206.284c-5.91-14.319-19.205-43.277-9.83-52.233 5.994-5.725 16.825 1.293 22.393 13.804 5.292 11.882 6.879 24.11 10.052 38.257"/>
  <path fill="#ADBBF9" d="M80.66 206.244c-2.807-6.882-5.764-13.694-8.23-20.707-2.475-7.038-4.95-14.661-4.8-22.212.056-2.774.543-5.73 2.215-8.015 1.928-2.628 5.03-3.57 8.139-2.774 3.65.936 6.748 3.559 9.183 6.338 3.319 3.786 5.543 8.292 7.32 12.974 4.188 11.046 5.87 22.847 8.436 34.325.06.267.467.156.406-.11-2.44-10.94-4.082-22.152-7.852-32.745-2.822-7.934-7.331-17.006-15.525-20.526-2.636-1.132-5.724-1.419-8.235.192-2.254 1.45-3.52 3.942-4.072 6.509-.682 3.192-.452 6.535.02 9.737.593 4.038 1.657 7.995 2.877 11.882 2.712 8.619 6.327 16.9 9.811 25.217.086.177.382.101.307-.085Z"/>
  <path fill="#fff" d="M195.836 206.203c-5.016-57.62 7.19-78.669 20.545-79.611 6.327-.448 24.854 3.207 2.486 79.576"/>
  <path fill="#ADBBF9" d="M195.931 206.204c-1.235-18.971-2.5-38.686 2.38-57.293 2.114-8.065 6.08-18.472 14.747-21.447 3.419-1.173 7.305-.957 10.202 1.359 5.122 4.098 5.915 12.073 6.111 18.119.216 6.782-.517 13.588-1.562 20.279-1.566 10.074-3.926 20.018-6.592 29.855-.819 3.021-1.672 6.036-2.501 9.057-.05.186.236.267.291.081a289.993 289.993 0 0 0 8.25-33.389c1.366-7.406 2.42-14.923 2.53-22.464.066-4.587-.185-9.299-1.461-13.729-.753-2.608-1.908-5.206-3.816-7.18-2.455-2.542-5.884-3.458-9.319-2.91-8.385 1.335-13.124 9.918-15.695 17.198-2.415 6.837-3.585 14.087-4.263 21.286-.994 10.543-.869 21.18-.246 31.738.186 3.151.407 6.303.743 9.445.02.12.211.125.201-.005Z"/>
  <path stroke="#ADBBF9" stroke-linejoin="round" stroke-miterlimit="10" d="m218.982 126.724-11.799 79.444"/>
  <path fill="#E4E9F9" fill-rule="evenodd" d="m86.935 54.435 2.46-.62.333 1.34-1.914.483c.28.524.447.896.501 1.115.063.252.092.709.087 1.368l.133.01a44.354 44.354 0 0 1 .952.093c.731.1 1.25.113 1.555.036a.897.897 0 0 0 .552-.402c.071-.111.143-.26.215-.448a8.39 8.39 0 0 0 .226-.686l1.749.538c-.172.877-.434 1.529-.785 1.955-.355.44-.849.739-1.481.898-.458.116-1.196.13-2.213.043-.998-.122-1.679-.136-2.044-.044-.3.075-.52.207-.658.393-.14.187-.261.538-.365 1.054l-1.841-.419c.305-.945.579-1.57.822-1.877.28-.368.703-.658 1.27-.871a4.24 4.24 0 0 0-.095-1.226 2.37 2.37 0 0 0-.559-1.03l-2.158.544-.332-1.342 1.48-.373c-.79-.925-1.279-1.764-1.464-2.515-.27-1.092-.091-2.125.537-3.1.638-.976 1.541-1.612 2.708-1.906 1.172-.296 2.23-.152 3.173.432.946.571 1.57 1.463 1.869 2.676l-1.7 1.171c-.226-.916-.478-1.534-.754-1.855-.54-.639-1.257-.846-2.151-.62-.66.166-1.149.52-1.467 1.06-.319.535-.396 1.138-.23 1.807.138.56.625 1.288 1.46 2.184a.959.959 0 0 1 .052.053l.077.081Zm124.017-39.773 2.462-.62.331 1.34-1.913.484c.28.523.447.895.501 1.114.062.253.091.709.086 1.369l.133.01a42.295 42.295 0 0 1 .952.092c.732.101 1.25.113 1.556.036a.898.898 0 0 0 .552-.402c.071-.11.142-.26.215-.447.072-.188.148-.416.226-.687l1.748.538c-.171.877-.433 1.529-.785 1.956-.355.439-.848.738-1.48.898-.458.115-1.196.13-2.214.042-.997-.121-1.678-.136-2.043-.044-.3.076-.52.207-.659.393-.139.187-.261.538-.365 1.054l-1.841-.419c.305-.945.579-1.57.822-1.877.28-.367.703-.658 1.27-.87a4.26 4.26 0 0 0-.094-1.227 2.373 2.373 0 0 0-.559-1.03l-2.159.544-.331-1.341 1.48-.373c-.791-.926-1.279-1.764-1.465-2.516-.269-1.092-.09-2.125.537-3.1.639-.976 1.542-1.612 2.708-1.906 1.172-.296 2.23-.152 3.174.432.946.572 1.569 1.464 1.868 2.676l-1.699 1.172c-.227-.916-.478-1.535-.754-1.856-.54-.638-1.258-.845-2.151-.62-.66.167-1.149.52-1.467 1.06-.319.536-.396 1.138-.231 1.807.138.56.625 1.288 1.461 2.185.015.013.032.03.052.052l.076.081Z" clip-rule="evenodd"/>
  <path fill="#fff" d="M235.305 206.208c4.093-34.245 17.87-53.985 30.317-48.628 10.183 4.38 4.931 23.445-10.936 48.603"/>
  <path fill="#ADBBF9" d="M235.401 206.234c1.541-10.09 3.339-20.078 7.22-29.573 2.576-6.293 6.086-13.075 11.714-17.163 3.811-2.769 9.214-3.776 13.135-.589 4.579 3.716 3.329 11.056 2.044 15.995-2.923 11.232-9.088 21.331-14.958 31.204-.1.171.156.312.261.151 3.409-5.135 6.447-10.568 9.163-16.101 2.119-4.314 4.042-8.76 5.413-13.371 1.526-5.12 3.213-12.461-.562-17.062-3.028-3.685-8.501-3.917-12.513-1.898-5.744 2.895-9.534 9.062-12.241 14.66-2.294 4.743-4.012 9.752-5.377 14.837-1.652 6.157-2.932 12.526-3.495 18.879-.005.116.181.141.196.031Z"/>
  <g filter="url(#a)">
    <path fill="#fff" d="M107.231 201.2c-4.404-.051-7.938-4.136-7.892-9.126l1.499-162.9c.046-4.99 3.654-8.995 8.059-8.945l81.257.926c4.405.05 7.938 4.136 7.892 9.126l-1.499 162.9c-.046 4.99-3.654 8.995-8.059 8.944l-81.257-.925Z"/>
    <path fill="#3629B7" d="M189.433 24.684c3.278 0 5.926 3.03 5.926 6.78v163.237c0 3.75-2.648 6.781-5.926 6.781h-80.62c-3.278 0-5.927-3.031-5.927-6.781V31.465c0-3.75 2.649-6.781 5.927-6.781h80.62Zm0-4.546h-80.62c-5.463 0-9.9 5.076-9.9 11.327V194.7c0 6.25 4.437 11.327 9.9 11.327h80.62c5.463 0 9.9-5.077 9.9-11.327V31.465c0-6.25-4.437-11.327-9.9-11.327Z"/>
  </g>
  <path fill="#3629B7" d="M118.997 26.115v-2.878h58.707v3.418c-.824 1.87-3.948 2.578-5.407 2.698-14.505.06-44.442.144-48.15 0-3.708-.144-4.978-2.219-5.15-3.238Z"/>
  <path stroke="#ADBBF9" stroke-linejoin="round" stroke-miterlimit="10" d="m265.622 157.58-20.365 48.608M73.92 152.274l18.197 54.045"/>
  <path fill="#fff" d="M236.827 206.273c8.043-17.102 24.271-56.15 12.05-69.994-6.708-7.603-18.989 1.731-25.501 18.496-6.186 15.919-10.816 32.312-14.652 51.272"/>
  <path fill="#ADBBF9" d="M236.957 206.349c4.213-8.885 7.999-18.008 11.056-27.357 3.149-9.636 6.026-20.088 5.388-30.328-.392-6.278-3.364-16.458-11.553-15.154-4.434.71-8.149 4.204-10.901 7.532-4.037 4.888-6.643 10.597-8.857 16.493-5.91 15.733-10.233 31.994-13.577 48.457-.055.267.357.383.407.111 2.857-14.067 6.412-27.992 11.096-41.565 2.185-6.324 4.369-12.768 7.883-18.487 2.656-4.319 6.146-8.72 10.76-11.046 3.58-1.802 7.507-1.585 10.218 1.576 2.546 2.971 3.635 6.933 4.022 10.754.989 9.717-1.592 19.77-4.434 28.979-3.163 10.235-7.255 20.173-11.774 29.879-.085.182.181.338.266.156Z"/>
  <path stroke="#ADBBF9" stroke-linejoin="round" stroke-miterlimit="10" d="m245.257 133.893-21.515 72.426"/>
  <path fill="#fff" d="M251.031 206.209c10.605-21.558 19.813-27.262 28.459-25.54 6.723 1.339 7.773 11.297-6.437 25.525"/>
  <path fill="#ADBBF9" d="M251.112 206.259c3.283-5.865 6.251-11.826 10.619-16.997 2.696-3.192 5.925-6.227 9.886-7.743 2.762-1.052 6.402-1.48 9.184-.236 3.103 1.384 3.62 4.928 3.007 7.944-1.36 6.686-6.432 12.022-10.86 16.866-.131.146.07.347.216.216 4.514-4.194 9.012-9.752 10.74-15.793.843-2.95.959-6.701-1.662-8.811-2.285-1.832-5.94-1.777-8.651-1.173-3.942.881-7.316 3.404-10.093 6.248-2.239 2.291-4.177 4.874-5.939 7.542-2.471 3.736-4.821 7.718-6.603 11.841-.06.106.095.207.156.096Z"/>
  <path stroke="#ADBBF9" stroke-linejoin="round" stroke-miterlimit="10" d="m278.651 180.814-16.203 25.379"/>
  <path stroke="#849CF4" stroke-miterlimit="10" d="M23.159 206.344h279.944"/>
  <path fill="#FFCBBD" d="m287.679 192.334.873 14.368-.467 4.521-17.086-.091a.78.78 0 0 1-.778-.785c0-.322.201-.614.502-.73l7.622-3.514-1.723-14.953"/>
  <path fill="#FF4267" d="M269.447 210.941c.181-.569.512-1.203.849-1.349l8.084-3.489c4.453 1.812 10.222.428 10.222.428l.442 6.102a.364.364 0 0 1-.366.362l-19.09-.101c-.402-.005-.146-1.938-.141-1.953Z"/>
  <path stroke="#B22B19" stroke-miterlimit="10" stroke-width=".75" d="M276.627 206.45a9.855 9.855 0 0 1 1.14 1.918m-2.159-1.309c.467.65.658 1.027.939 1.632m-1.797-1.183c.316.427.632 1.022.878 1.495m13.306 2.673-19.572-.106m19.396-2.814s-4.534.03-4.941 2.89m-11.87-2.769s1.306 1.863 1.562 2.719"/>
  <path fill="#3629B7" d="M274.253 137.115s-2.455 20.224-1.517 34.909c.939 14.686 2.295 31.728 2.295 31.728h14.852s-1.923-25.218-1.712-37.019c.236-13.08 4.223-29.613 4.223-29.613"/>
  <path stroke="#121649" stroke-miterlimit="10" stroke-width=".75" d="M286.87 203.747s-1.923-25.218-1.712-37.019c.236-13.08 4.223-29.613 4.223-29.613"/>
  <path fill="#FFCBBD" d="m307.19 173.086 13.773 4.441 4.157 1.812-5.252 16.302a.775.775 0 0 1-.984.503.79.79 0 0 1-.542-.704l-1.034-8.348-14.3-4.662"/>
  <path fill="#FF4267" d="M319.216 197.071c-.487-.343-.989-.856-1.024-1.219l-.874-8.78c3.068-3.71 3.494-9.641 3.494-9.641l5.935 1.425c.191.06.296.267.236.458l-5.869 18.215c-.126.378-1.883-.448-1.898-.458Z"/>
  <path stroke="#B22B19" stroke-miterlimit="10" stroke-width=".75" d="M317.117 188.849a9.775 9.775 0 0 1 2.169-.508m-1.898 1.667c.763-.252 1.175-.318 1.833-.403m-1.667 1.36c.502-.177 1.165-.293 1.687-.389m6.567-11.906-6.02 18.668m3.193-19.383s-1.34 4.339 1.256 5.593m-6.227 10.502s2.164-.685 3.058-.67"/>
  <path fill="#3629B7" d="M298.434 137.764s1.336 5.75 1.336 8.217c0 1.812-.718 3.046-1.1 4.37a7.325 7.325 0 0 0-.281 1.737c-.115 2.643-.266 10.064 1.386 13.593 2.028 4.334 18.919 10.089 18.919 10.089l-4.283 12.934s-25.858-6.515-29.081-14.449c-4.499-11.071-3.214-36.486-3.214-36.486"/>
  <path stroke="#121649" stroke-miterlimit="10" stroke-width=".75" d="M288.442 177.955c-1.491-1.183-2.601-2.427-3.118-3.706-4.498-11.07-3.213-36.485-3.213-36.485m14.129-.478s1.516 7.235 1.516 9.702c0 1.847-.748 3.146-1.125 4.445a7.596 7.596 0 0 0-.276 1.611c-.16 2.613-.447 10.18 1.401 13.649 2.556 4.803 20.25 11.126 20.25 11.126"/>
  <path stroke="#121649" stroke-miterlimit="10" stroke-width=".75" d="M280.002 139.179s-.226 5.221.502 5.845a11.231 11.231 0 0 0 1.436 1.042m34.619 28.939-4.714 12.999m-37.015 13.18h14.867m2.47-63.022s.924 3.333 5.052 4.315m-23.443-.579s3.725-1.093 4.87-3.731"/>
  <path fill="#FFCBBB" d="m282.764 97.836-.668 4.687s-.06 1.299 2.46 2.2c3.048 1.097 4.901-1.259 4.901-1.259l-.201-4.742"/>
  <path fill="#FFCBBB" d="M282.392 91.623s-3.239 5.427-.99 7.597c2.039 1.969 6.523.735 6.934.046.407-.69 2.963-6.752 1.567-7.587-2.49-1.486-6.126-2.392-7.511-.056Z"/>
  <path stroke="#EF977F" stroke-miterlimit="10" d="M282.422 100.233s2.194.706 4.223-.182"/>
  <path fill="#4A1A1A" d="M281.849 88.094c.427-3.207 4.303-.806 5.88.654.472.438 3.239 1.254 3.69 1.717.452.463.814 1.032.934 1.672.106.558.015 1.132-.12 1.681-.241.992-.633 1.939-1.019 2.88-.422 1.027-1.18 3.071-2.642 2.86-.281-.04-.592-.096-.778-.313-.186-.216-.191-.528-.16-.81.05-.458.19-.906.401-1.314-.301.08-.612.267-.904.15-.095-.04-.14-.13-.195-.22-.191-.313.04-2.387 1.004-3.203-1.391-.66-2.48-.72-3.896-1.319-1.14-.483-1.632-1.067-2.039-1.616-.592-.785-.286-1.847-.156-2.819Z"/>
  <path fill="#FFCBBB" d="M287.689 96.934c.356-.498.898-1.072 1.421-.548.185.186.236.493.256.79.065.977-.924 2.225-1.783 1.883-.421-.166-.537-.74-.612-1.213"/>
  <path stroke="#F7A794" stroke-miterlimit="10" stroke-width=".5" d="M283.105 94.02s-1.401 1.379-1.401 1.847c0 .468 1.049.76 1.049.76"/>
  <path fill="#fff" d="m281.177 96.794 2.51.941s-.582 1.49-2.088.806c-1.075-.489-.422-1.747-.422-1.747Z"/>
  <path fill="#212237" d="M282.04 93.25c-.075.11-.145.22-.211.342-.125.226.226.428.342.201.07-.13.13-.267.186-.408.075-.201-.211-.287-.317-.136Z"/>
  <path stroke="#212237" stroke-linecap="round" stroke-linejoin="round" stroke-miterlimit="10" stroke-width=".5" d="M283.12 92.772s-.311-.701-1.059-.374"/>
  <path fill="#212237" d="M285.174 94.76a4.59 4.59 0 0 0-.191.352c-.11.232.241.433.342.201a6.02 6.02 0 0 0 .165-.417c.061-.197-.216-.302-.316-.136Z"/>
  <path stroke="#212237" stroke-linecap="round" stroke-linejoin="round" stroke-miterlimit="10" stroke-width=".5" d="M285.279 93.602s.763-.086 1.315.921"/>
  <path fill="#FFCBBD" d="M271.903 77.32c-.206-2.724.161-10.432-.316-10.633-.477-.201-.673 2.407-1.034 2.17-.362-.242-.332-4.28-.859-4.355-.718-.1-.527 4.033-.527 4.033s-.432-4.521-1.085-4.43c-.457.065-.286 3.528-.386 4.863-.076-1.46-.502-4.174-.979-4.093-.472.075-.382 2.804-.422 4.616-.08-1.132-.306-3.61-.748-3.56-.442.051-.578 6.49-.583 11.918"/>
  <path fill="#FFCBBD" d="M271.22 104.587s-2.917-6.122-4.739-13.256c-1.823-7.139-1.502-16.418-1.502-16.418l6.849 1.158s.311 12.954 8.109 25.812"/>
  <path stroke="#F7A794" stroke-miterlimit="10" d="M266.39 69.803c.562.861 1.311 1.873 1.275 3.555m2.833-3.882c-.658.59-1.371 2.175-1.03 2.99"/>
  <path fill="#FF4267" d="M282.191 101.858c-2.038 0-5.217-6.535-5.217-6.535l-8.184 6.102s2.616 8.161 7.049 13.332"/>
  <path stroke="#B22B19" stroke-miterlimit="10" stroke-width=".75" d="m277.657 96.627-8.34 6.278"/>
  <path fill="#fff" d="m300.913 66.743-26.271 16.06a17.998 17.998 0 0 1-4.025-2.748l29.755-17.939a18.1 18.1 0 0 1 .541 4.627Zm-6.466-14.139-29.432 17.764a17.49 17.49 0 0 1-.205-1.118l28.604-17.457c.355.259.7.529 1.033.811Zm4.328 5.363-30.977 18.86a17.14 17.14 0 0 1-.7-1.105l31.053-18.836c.22.353.428.713.624 1.08Z" opacity=".3"/>
  <path fill="#FBE6A1" d="M296.843 69.58 278.78 80.51a14.384 14.384 0 0 1-4.528-2.203l22.371-13.538c.335 1.552.419 3.173.22 4.81Zm-6.926-14.22-21.543 13.036a13.81 13.81 0 0 1-.114-1.382l20.384-12.336c.437.206.863.435 1.273.683Zm4.92 4.925-23.996 14.521c-.235-.34-.455-.69-.662-1.05l23.971-14.507c.243.334.473.68.687 1.036Z" opacity=".2"/>
  <path fill="#FDD462" d="M300.38 70.892c-2.404 9.753-12.241 15.708-21.974 13.298a18.19 18.19 0 0 1-3.765-1.386 17.998 17.998 0 0 1-4.025-2.749 18.215 18.215 0 0 1-3.518-4.333 18.248 18.248 0 0 1-2.289-6.472 18.154 18.154 0 0 1 .506-7.737c2.671-9.366 12.286-15.002 21.798-12.647a18.093 18.093 0 0 1 7.334 3.738 18.212 18.212 0 0 1 4.328 5.362 18.226 18.226 0 0 1 1.597 4.15 18.102 18.102 0 0 1 .157 8.116 14.54 14.54 0 0 1-.149.66Z"/>
  <path fill="#F37E00" d="M296.844 70.017c-.054.216-.113.431-.174.644-2.184 7.4-9.84 11.854-17.389 9.984-7.55-1.87-12.256-9.383-10.751-16.952.045-.217.093-.435.146-.652 1.919-7.784 9.798-12.551 17.564-10.628 7.766 1.922 12.523 9.82 10.604 17.604Z"/>
  <path fill="#F7A219" d="M296.671 70.661c-2.185 7.4-9.84 11.854-17.39 9.984a14.394 14.394 0 0 1-5.029-2.338 14.547 14.547 0 0 1-3.411-3.5 14.587 14.587 0 0 1-2.581-7.793c-.039-1.095.05-2.208.27-3.321 2.185-7.4 9.84-11.856 17.39-9.986a14.485 14.485 0 0 1 3.996 1.654 14.493 14.493 0 0 1 4.921 4.924 14.625 14.625 0 0 1 1.786 4.484 14.487 14.487 0 0 1 .048 5.892Z"/>
  <path fill="#F37E00" d="m282.745 75.023-.578 2.345-2.973-.736.552-2.24c-2.077-.648-3.981-1.725-5.053-2.82l2.498-3.238c1.188 1.168 2.913 2.156 4.536 2.558 1.413.35 1.992.18 2.117-.328.458-1.859-8.07-2.379-6.711-7.894.589-2.388 2.812-3.967 6.389-3.597l.568-2.303 2.972.736-.557 2.261c1.524.534 2.942 1.312 3.977 2.285l-2.387 3.242c-1.272-1.1-2.554-1.797-3.84-2.116-1.454-.36-2.022-.052-2.147.454-.438 1.775 8.085 2.316 6.741 7.768-.562 2.282-2.696 3.861-6.104 3.623Z"/>
  <path fill="#FDD462" d="m282.85 74.22-.578 2.346-2.972-.736.552-2.24c-2.077-.648-3.981-1.725-5.053-2.82l2.498-3.238c1.188 1.169 2.913 2.156 4.536 2.558 1.412.35 1.991.18 2.116-.328.459-1.859-8.069-2.379-6.71-7.894.588-2.387 2.812-3.966 6.389-3.596l.568-2.303 2.972.736-.557 2.26c1.523.535 2.942 1.312 3.977 2.286l-2.387 3.242c-1.272-1.1-2.554-1.798-3.84-2.116-1.455-.36-2.023-.053-2.148.454-.437 1.775 8.085 2.316 6.742 7.768-.563 2.282-2.697 3.86-6.105 3.622Z"/>
  <path fill="#E4E9F9" d="m223.014 53.487.618 1.406-1.781.788-.591-1.343c-1.297.483-2.673.683-3.637.55l.002-2.604c1.052.126 2.303-.05 3.276-.48.846-.374 1.071-.686.938-.99-.49-1.114-4.985 1.947-6.438-1.358-.63-1.431-.123-3.093 1.821-4.3l-.607-1.381 1.782-.789.596 1.356c.974-.325 1.99-.487 2.888-.4l.055 2.563c-1.066-.058-1.982.09-2.753.43-.872.386-1.039.763-.905 1.067.468 1.064 4.968-1.986 6.405 1.282.601 1.368.139 2.995-1.669 4.203ZM122.595 12.204l.618 1.406-1.782.788-.59-1.343c-1.297.483-2.673.683-3.637.55l.002-2.604c1.051.126 2.302-.05 3.275-.48.847-.374 1.072-.686.938-.99-.49-1.114-4.984 1.948-6.438-1.358-.629-1.431-.122-3.093 1.822-4.3l-.607-1.381 1.782-.789.596 1.356c.974-.325 1.989-.487 2.888-.4l.055 2.563c-1.067-.058-1.983.09-2.754.43-.872.387-1.038.763-.905 1.067.468 1.064 4.968-1.986 6.405 1.282.602 1.368.14 2.995-1.668 4.203Z"/>
  <path fill="#FDD462" d="M167.34 84.389c-.4 10.037-8.844 17.843-18.863 17.433a18.216 18.216 0 0 1-3.967-.604 17.986 17.986 0 0 1-4.493-1.886 18.186 18.186 0 0 1-4.316-3.54 18.214 18.214 0 0 1-3.54-5.882 18.18 18.18 0 0 1-1.055-7.682c.74-9.71 9.03-17.16 18.821-16.758a18.09 18.09 0 0 1 13.249 6.577 18.136 18.136 0 0 1 4.164 12.342Z"/>
  <path fill="#F37E00" d="M163.7 84.24c-.009.223-.024.446-.041.666-.657 7.688-7.264 13.586-15.036 13.267-7.771-.318-13.887-6.736-13.93-14.454.001-.22.004-.444.013-.667.319-8.01 7.083-14.26 15.076-13.933 7.994.327 14.237 7.11 13.918 15.121Z"/>
  <path fill="#F7A219" d="M163.659 84.906c-.657 7.689-7.265 13.586-15.036 13.267a14.389 14.389 0 0 1-5.395-1.283 14.542 14.542 0 0 1-4.044-2.746 14.6 14.6 0 0 1-4.091-7.117 14.461 14.461 0 0 1-.4-3.307c.657-7.688 7.264-13.587 15.035-13.27a14.485 14.485 0 0 1 4.247.82 14.495 14.495 0 0 1 5.807 3.838 14.58 14.58 0 0 1 2.649 4.035 14.488 14.488 0 0 1 1.228 5.763Z"/>
  <path fill="#F37E00" d="m150.89 91.97-.096 2.414-3.06-.125.092-2.305c-2.165-.22-4.246-.893-5.516-1.75l1.799-3.673c1.398.906 3.286 1.528 4.957 1.597 1.453.06 1.986-.224 2.007-.746.077-1.913-8.382-.713-8.156-6.389.098-2.457 1.96-4.45 5.538-4.804l.095-2.37 3.059.125-.092 2.327c1.599.218 3.145.695 4.354 1.442l-1.689 3.654c-1.467-.822-2.862-1.25-4.186-1.304-1.497-.06-1.992.355-2.013.876-.073 1.827 8.385.649 8.161 6.259-.093 2.349-1.867 4.323-5.254 4.773Z"/>
  <path fill="#FDD462" d="m150.833 91.164-.096 2.413-3.06-.125.092-2.305c-2.165-.219-4.246-.892-5.515-1.75l1.798-3.673c1.398.907 3.286 1.529 4.957 1.597 1.453.06 1.986-.224 2.007-.745.077-1.914-8.382-.714-8.156-6.39.098-2.456 1.96-4.449 5.538-4.804l.095-2.37 3.059.126-.092 2.326c1.599.218 3.145.696 4.354 1.442l-1.689 3.655c-1.466-.822-2.862-1.25-4.186-1.304-1.497-.06-1.992.354-2.013.876-.073 1.827 8.385.649 8.162 6.259-.094 2.348-1.868 4.323-5.255 4.772Z"/>
  <path fill="#FFCBBD" d="M303.359 73.987c-.436-2.995-1.576-10.054-2.078-10.17-.502-.115-.713 1.566-.507 2.25-.322-1.283-1.205-4.087-1.738-4.067-.723.025.186 4.063.186 4.063s-1.215-4.375-1.838-4.169c-.441.146.337 3.524.467 4.858-.326-1.42-1.22-4.017-1.677-3.856-.452.161.116 2.83.392 4.622-.276-1.103-.929-3.5-1.356-3.373-.426.126.683 5.663 1.346 11.186"/>
  <path fill="#FFCBBD" d="M301.943 102.155s1.813-6.535 2.375-13.88c.563-7.345-1.355-16.428-1.355-16.428l-6.548 2.331s1.933 12.808-3.524 26.834"/>
  <path fill="#FF4267" d="M282.191 101.858s.397 1.148 2.656 1.264c2.907.151 4.524-1.264 4.524-1.264s8.666 1.153 9.369 10.648c.809 10.935 1.03 26.295 1.03 26.295h-27.028s.18-17.54.748-25.912c.542-8.02 8.701-11.031 8.701-11.031Z"/>
  <path fill="#FF4267" d="M298.72 113.705c3.259-8.499 4.418-14.983 4.418-14.983l-8.676-4.214s-2.063 5.775-5.086 7.345"/>
  <path stroke="#B22B19" stroke-miterlimit="10" stroke-width=".75" d="m293.759 96.18 9.003 4.319m-30.026 36.802h27.003m-.783-24.221s-1.099 2.361-1.215 3.549m-22.248-9.792s-1.642 2.789-2.003 6.052m7.672-11.464s.462 3.162 3.976 3.162c4.318 0 5.172-3.162 5.172-3.162"/>
  <path fill="#EF977F" d="M300.773 66.068c-.005-.03.04.05.055.08l.066.121.11.247c.076.166.131.332.186.503.105.343.186.685.221 1.052-.111-.15-.191-.312-.271-.473-.081-.16-.136-.332-.191-.503-.05-.171-.1-.343-.131-.524l-.045-.267-.01-.136-.005-.07c-.005-.01.005-.086.015-.03Z"/>
  <path fill="#FDD462" d="M162.515 126.673c7.003 7.413 6.684 19.14-.72 26.189a18.453 18.453 0 0 1-7.807 4.437 18.475 18.475 0 0 1-12.411-.926 18.357 18.357 0 0 1-6.326-4.676c-6.528-7.431-6.056-18.789 1.179-25.68a18.447 18.447 0 0 1 7.217-4.262 18.415 18.415 0 0 1 6.952-.784c1.497.118 2.981.417 4.418.902a18.225 18.225 0 0 1 7.013 4.313c.165.158.326.321.485.487Z"/>
  <path fill="#fff" d="m159.264 123.944-.72 31.398a18.469 18.469 0 0 1-4.556 1.957l1.032-35.424a17.924 17.924 0 0 1 4.244 2.069Zm-15.616-2.192-1.004 35.051c-.358-.134-.716-.28-1.069-.435l.811-34.171c.417-.163.836-.312 1.262-.445Zm6.952-.783-.916 36.979a17.3 17.3 0 0 1-1.328-.005l.979-37.034c.423.008.845.029 1.265.06Z" opacity=".3"/>
  <path fill="#F37E00" d="M159.824 129.238c.156.164.307.332.455.503 5.115 5.934 4.712 14.963-1.029 20.432-5.741 5.468-14.738 5.397-20.372-.045-.16-.159-.32-.318-.476-.482-5.59-5.916-5.332-15.308.576-20.933 5.904-5.63 15.258-5.394 20.846.525Z"/>
  <path fill="#F7A219" d="M160.278 129.736c5.115 5.934 4.713 14.963-1.028 20.432-.129.12-.257.241-.39.355a14.668 14.668 0 0 1-9.23 3.701 14.614 14.614 0 0 1-6.826-1.393 14.593 14.593 0 0 1-3.929-2.71c-5.115-5.934-4.713-14.963 1.029-20.431a14.713 14.713 0 0 1 10.508-4.064c1.632.036 3.26.345 4.806.92a14.563 14.563 0 0 1 4.227 2.448c.289.237.567.484.833.742Z"/>
  <path fill="#FBE6A1" d="m159.451 128.998-.592 21.528a14.705 14.705 0 0 1-4.369 2.686l.734-26.663a14.592 14.592 0 0 1 4.227 2.449Zm-15.938-1.836-.707 25.672c-.423-.2-.838-.419-1.243-.659l.668-24.295c.415-.259.843-.502 1.282-.718Zm6.903-1.532-.786 28.6c-.419.017-.841.013-1.261-.005l.784-28.57c.421-.028.84-.038 1.263-.025Z" opacity=".2"/>
  <path fill="#F37E00" fill-rule="evenodd" d="m147.7 139.396 4.045.182-.104 2.201-3.144-.141c.189.928.276 1.573.259 1.933-.02.414-.183 1.124-.491 2.129l.199.077c.282.112.539.216.773.312l.641.266c1.072.49 1.859.747 2.36.769.385.018.727-.102 1.027-.36.159-.137.336-.332.533-.585.195-.252.415-.567.657-.944l2.428 1.625c-.661 1.26-1.358 2.135-2.09 2.626-.742.507-1.632.738-2.671.691-.753-.034-1.887-.351-3.403-.951-1.469-.644-2.503-.979-3.104-1.006-.492-.022-.887.077-1.185.298-.298.222-.643.702-1.037 1.442l-2.624-1.485c.896-1.303 1.6-2.133 2.11-2.489.595-.434 1.374-.683 2.338-.748.248-.701.386-1.34.413-1.916a3.79 3.79 0 0 0-.385-1.831l-3.547-.159.103-2.202 2.432.11c-.787-1.777-1.152-3.281-1.094-4.515.084-1.791.828-3.287 2.231-4.487 1.421-1.199 3.09-1.756 5.007-1.669 1.926.086 3.477.792 4.654 2.117 1.186 1.308 1.732 2.956 1.639 4.946l-3.131 1.009c.07-1.503-.032-2.563-.308-3.18-.535-1.224-1.538-1.869-3.007-1.935-1.084-.049-1.992.266-2.724.946-.731.671-1.123 1.555-1.175 2.654-.043.918.37 2.254 1.239 4.007.017.028.035.062.056.104l.08.159Z" clip-rule="evenodd"/>
  <path fill="#FDD462" fill-rule="evenodd" d="m146.958 139.318 4.045.182-.104 2.201-3.144-.142c.19.929.276 1.574.259 1.934-.019.414-.183 1.124-.491 2.129l.199.077a65.982 65.982 0 0 1 1.414.578c1.072.49 1.859.746 2.36.769a1.43 1.43 0 0 0 1.027-.36c.159-.137.336-.332.533-.585.195-.253.415-.568.657-.945l2.428 1.625c-.661 1.261-1.358 2.136-2.09 2.626-.742.508-1.632.739-2.671.692-.753-.034-1.887-.351-3.403-.952-1.469-.643-2.503-.978-3.103-1.005-.493-.023-.888.077-1.186.298-.298.221-.643.702-1.037 1.442l-2.624-1.485c.896-1.304 1.6-2.134 2.11-2.49.595-.433 1.374-.682 2.338-.747.248-.701.386-1.34.413-1.916a3.786 3.786 0 0 0-.385-1.831l-3.547-.16.103-2.201 2.432.11c-.787-1.777-1.152-3.282-1.094-4.515.084-1.792.828-3.287 2.231-4.487 1.421-1.199 3.09-1.756 5.007-1.67 1.926.087 3.477.793 4.654 2.118 1.186 1.307 1.732 2.956 1.639 4.945l-3.131 1.01c.071-1.504-.032-2.564-.308-3.181-.535-1.223-1.538-1.869-3.007-1.935-1.084-.049-1.992.267-2.724.947-.731.67-1.123 1.555-1.175 2.653-.043.918.37 2.254 1.239 4.007.017.028.035.063.056.104l.08.16Z" clip-rule="evenodd"/>
  <path fill="#FFCBBD" d="m236.838 191.553.471 14.912-.482 4.692-17.729-.095a.814.814 0 0 1-.286-1.571l7.908-3.645-1.195-15.516"/>
  <path fill="#3629B7" d="M217.487 210.865c.185-.589.532-1.248.878-1.399l8.385-3.62c4.625 1.878 10.605.443 10.605.443l.457 6.333a.378.378 0 0 1-.382.378l-19.808-.106c-.407-.01-.14-2.014-.135-2.029Z"/>
  <path stroke="#121649" stroke-miterlimit="10" stroke-width=".75" d="M224.938 206.203a9.744 9.744 0 0 1 1.179 1.989m-2.239-1.354c.487.674.683 1.067.974 1.691m-1.862-1.228c.331.443.652 1.062.914 1.556m13.802 2.768-20.305-.105m20.124-2.925s-4.704.035-5.126 3m-12.316-2.874s1.355 1.928 1.621 2.819"/>
  <path fill="#3629B7" d="M234.783 132.961s2.16 3.645 2.782 6.359c.989 4.32 0 8.74 0 8.74l-.045 52.127h-13.165s-2.922-60.072-1.622-67.84"/>
  <path stroke="#121649" stroke-miterlimit="10" stroke-width=".75" d="M226.363 200.187s-2.922-60.072-1.622-67.84"/>
  <path fill="#FFCBBD" d="m222.301 185.683 5.98 13.658 1.295 4.531-16.489 6.54a.812.812 0 0 1-.848-1.354l5.985-6.338-6.874-13.951"/>
  <path fill="#3629B7" d="M211.521 210.83c-.046-.614.03-1.359.296-1.626l6.437-6.494c4.986.015 10.007-3.555 10.007-3.555l2.776 5.704a.386.386 0 0 1-.211.494l-18.422 7.305c-.381.151-.883-1.808-.883-1.828Z"/>
  <path stroke="#121649" stroke-miterlimit="10" stroke-width=".75" d="M216.703 203.726c.662.393 1.28.866 1.837 1.405m-2.581-.423c.703.443 1.03.735 1.532 1.208m-2.189-.448c.472.292 1.004.74 1.421 1.103m13.847-2.588-18.883 7.492m17.588-10.236s-4.353 1.788-3.64 4.703m-12.503 1.933s1.974 1.284 2.556 2.009"/>
  <path fill="#3629B7" d="M212.089 141.455c-6.764 16.669-6.884 18.431-7.999 26.567-1.145 8.347 11.363 32.92 11.363 32.92l12-5.311s-7.958-22.484-7.446-26.351c.949-7.113 9.133-19.247 9.133-19.247s3.886-3.086 4.735-7.184c.843-4.098-1.015-8.392-1.015-8.392"/>
  <path stroke="#121649" stroke-miterlimit="10" stroke-width=".75" d="M224.425 143.418c.176-.06 5.387-1.702 5.387-1.702m6.106-1.525 1.713-.549m-21.526 1.309s-8.36 18.22-9.505 26.567c-1.144 8.347 11.021 32.236 11.021 32.236m5.172-38.489c2.596-5.729 6.351-11.237 6.351-11.237s3.887-3.086 4.735-7.184"/>
  <path fill="#FFCBBD" d="m210.949 100.207 3.439 6.006s-2.063 4.476-7.637 2.351l-1.431-3.172 5.629-5.185Z"/>
  <path fill="#FFCBBD" d="M201.805 96.144s-1.692 7.985 1.255 9.41c1.532.74 5.82.281 6.834-1.355.753-1.218.457-6.972-.462-7.672-3.515-2.669-7.627-.383-7.627-.383Z"/>
  <path fill="#212237" d="M209.271 93.783c-1.29-2.256-3.911-1.808-8.179.63-.572.326-1.817.442-1.827 1.102-.02.866.602 2.29 1.601 2.577.668.192 1.02.131 1.697-.03.889-.206 2.074.151 2.059 1.198-.005.272-.085.776.171.876.13.051.462.01.602.016.402.015.618.503.568.901-.051.397.2.689.15 1.087-.12.942 1.08 1.974 2.024 2.049.833.066 3.273-.342 4.428-1.918 1.004-1.364.874-3.67-.798-7.104-.643-1.319-2.049-1.716-2.496-1.384Z"/>
  <path fill="#FFCBBD" d="M204.547 100.489c.271-1.279.929-1.42 1.501-1.073.758.464.593 2.286.311 2.724-.567.886-1.25 1.158-1.631.529"/>
  <path stroke="#E88872" stroke-linejoin="round" stroke-miterlimit="10" stroke-width=".5" d="M205.596 105.891c.879-.73.748-2.13.748-2.13"/>
  <path fill="#28364C" d="M202.066 99.96c-.12.277-.16.685.065.861.066.05.141.05.211.005.442-.272-.02-1.44-.276-.866Z"/>
  <path stroke="#28364C" stroke-miterlimit="10" stroke-width=".75" d="M201.705 99.08c.342-.041.939-.01 1.295.272"/>
  <path fill="#fff" d="m203.171 102.9-1.285-.045s-.05 1.586.552 1.616c.668.04.733-1.571.733-1.571Z"/>
  <path fill="#ADBBF9" d="M213.594 104.824s2.998-.771 7.24.468c3.58 1.047 8.134 3.735 11.564 7.39 5.934 6.329 3.198 22.062 3.198 22.062l-7.717-.292s1.21-10.11-2.832-14.162c-4.042-4.053-9.746-5.005-9.746-5.005"/>
  <path fill="#FFCBBD" d="M180.847 126.925c-2.42.675-9.746 1.47-9.861 1.974-.116.503 2.465.256 2.29.649-.176.393-4.118 1.042-4.103 1.576.02.72 4.027-.161 4.027-.161s-1.662.297-1.466.921c.141.438.819.574 2.134.448-.723.161-1.004.514-.849.967.156.448.854.418 1.597.322-.512.116-.904.453-.572.75.432.388 3.419.222 8.716-.68"/>
  <path fill="#ADBBF9" d="M205.972 106.838s2.064.891 4.348 0c2.285-.891 3.274-2.009 3.274-2.009s5.187-.357 11.503 5.976c6.377 6.394 11.337 24.533 11.337 24.533l-26.139 8.81s-4.468-15.878-6.231-23.108c-1.762-7.24 1.908-14.202 1.908-14.202Z"/>
  <path stroke="#525BCE" stroke-miterlimit="10" stroke-width=".75" d="M224.755 109.138c5.227 6.117 11.679 26.195 11.679 26.195"/>
  <path fill="#ADBBF9" d="M205.972 106.837c-3.444 1.324-6.401 4.672-8.214 8.126-2.972 5.654-4.785 9.757-4.785 9.757l-14.988 2.25.743 8.015s10.173-.302 18.287-1.525c5.764-.871 10.223-12.843 10.223-12.843"/>
  <path stroke="#525BCE" stroke-miterlimit="10" stroke-width=".75" d="M204.963 107.29s1.657 2.22 5.633.725c3.977-1.495 4.118-3.343 4.118-3.343m-9.39 20.063 1.627-3.454m-26.626 5.332.568 8.256m28.92 7.557 26.104-8.649"/>
  <path fill="#FFCBBD" d="M107 120.486c.115.076.235.156.356.232 1.17.745 2.365 1.495 3.69 1.888.774.226 1.612.347 2.24.85.256.202.472.418.753.584.075.046.813.323.783.242.111.267.402.398.668.504.03.01.065.025.095.02.036-.005.061-.041.051-.071.095.186.431.272.542.166.105-.1-.161-.574-.161-.574s.181.01.236-.045c.086-.101.106-.237.116-.367a4.3 4.3 0 0 0-1.271-3.313"/>
  <path fill="#F49C8E" d="M115.344 122.993c0 .207.121.418.201.609.085.207.176.403.281.605.05.09.176.025.156-.066a2.765 2.765 0 0 0-.231-.675c-.085-.181-.176-.392-.347-.503-.025-.02-.06 0-.06.03Zm-1.256.046c.447.488.894.951 1.286 1.485.04.055.145.025.12-.051-.191-.659-.848-1.062-1.32-1.52a.06.06 0 0 0-.086.086Z"/>
  <path stroke="#0E32AE" stroke-miterlimit="10" d="m105.995 212.99-8.922-91.301m43.657 91.301-8.922-91.301H97.073m25.813 91.301 8.922-91.301"/>
  <path stroke="#0E32AE" stroke-miterlimit="10" d="m88.155 212.99 8.918-91.301h34.735m7.491 78.367H89.415m48.724-11.176H90.51m46.741-11.489H91.635m44.502-10.95H92.705m42.356-11.439H93.774m40.183-11.332H94.889m37.767-10.704H95.973"/>
  <path fill="#FFCBBD" d="M105.061 121.463c3.565.01 7.13.005 10.69-.025-.337-.605-.548-.982-.929-1.365-.472-.468-.834-.745-1.326-.997a12.118 12.118 0 0 0-5.377-1.329"/>
  <path fill="#FF4267" d="M92.62 96.829s4.875 12.742 6.09 13.809c1.22 1.068 12.828 6.857 12.828 6.857l-3.56 7.552s-13.968-5.593-15.971-7.552c-2.004-1.958-8.37-9.54-9.008-17.147"/>
  <path fill="#FFCBBD" d="m83.316 180.1-.502 13.709.421 4.314 16.308-.005a.746.746 0 0 0 .743-.75.754.754 0 0 0-.477-.7l-7.255-3.388 1.17-14.263"/>
  <path fill="#FF4267" d="M101.025 197.947c-.171-.544-.482-1.153-.804-1.294l-7.697-3.368c-4.258 1.707-9.756.357-9.756.357l-.452 5.82c0 .192.156.348.347.348l18.216-.005c.387.005.151-1.843.146-1.858Z"/>
  <path stroke="#B22B19" stroke-miterlimit="10" stroke-width=".75" d="M94.196 193.627a8.98 8.98 0 0 0-1.094 1.828m2.058-1.239c-.452.62-.632.977-.904 1.551m1.722-1.123c-.306.408-.608.972-.844 1.425m-12.712 2.487 18.678-.005m-18.493-2.779s4.323.05 4.7 2.784m11.337-2.593s-1.255 1.767-1.506 2.588"/>
  <path fill="#ADBBF9" d="M79.71 128.556s-1.571 6.988 1.808 15.451c0 0 1.637 8.85 1.767 18.97.136 10.321-1.235 23.471-1.235 28.384h13.416s1.647-13.986 1.793-28.082c.165-15.788-1.17-33.611-1.17-38.212"/>
  <path stroke="#525BCE" stroke-miterlimit="10" stroke-width=".75" d="M93.458 191.362s1.647-14.243 1.797-28.521c.161-15.682-1.174-33.217-1.174-37.779"/>
  <path fill="#FFCBBD" d="m105.995 168.943-.502 13.714.421 4.315 16.309-.005a.748.748 0 0 0 .743-.751.752.752 0 0 0-.477-.699l-7.256-3.389 1.17-14.262"/>
  <path fill="#FF4267" d="M123.704 186.785c-.171-.543-.482-1.153-.804-1.293l-7.697-3.369c-4.258 1.707-9.756.358-9.756.358l-.451 5.82c0 .191.155.347.346.347l18.216-.005c.387.005.151-1.837.146-1.858Z"/>
  <path stroke="#B22B19" stroke-miterlimit="10" stroke-width=".75" d="M116.875 182.471a9.025 9.025 0 0 0-1.094 1.827m2.058-1.243c-.452.619-.632.976-.903 1.55m1.722-1.122c-.306.408-.608.971-.844 1.425m-12.713 2.487 18.678-.005m-18.492-2.78s4.323.051 4.699 2.785m11.338-2.588s-1.256 1.767-1.507 2.588"/>
  <path fill="#ADBBF9" d="M102.31 129.321s12.889 12.249 15.796 20.229c2.023 5.563-.919 30.947-.919 30.947h-12.839s1.567-23.108.754-25.494c-.954-2.805-12.006-12.365-12.006-12.365s-4.714-1.057-6.939-6.087c-2.003-4.531-1.08-10.029-1.08-10.029"/>
  <path stroke="#525BCE" stroke-miterlimit="10" stroke-width=".75" d="M99.297 129.322s13.361 14.162 15.796 20.228c1.848 4.607-.919 30.947-.919 30.947m-17.187-34.375a660.247 660.247 0 0 0-3.298-2.976 3.502 3.502 0 0 0-1.165-.689c-1.326-.464-4.615-1.964-6.362-5.911m3.55-2.819s3.846.135 5.453 0m-15.816 0h3.098"/>
  <path fill="#FFCBBD" d="M125.346 98.299c1.345-.614 7.481-3.308 7.627-2.935.14.357-1.803 1.656-1.587 1.716.12.036 1.853-.417 2.721-.845.774-.383 2.079-.866 2.29-.55.397.6-3.876 2.639-3.876 2.639s.753-.347 1.139.12c.553.675-.617 1.3-.617 1.3s.673-.343.894.241c.231.605-.774 1.098-.774 1.098s.799-.383.899.347c.131.962-6.246 3.217-6.246 3.217"/>
  <path fill="#FF4267" d="M94.26 92.076s-1.28 1.022-3.328.67c-2.049-.348-2.546-1.34-2.546-1.34s-5.448.76-8.063 17.601c-1.838 11.831-1.23 21.457-1.23 21.457h24.828s.758-25.731-.502-30.514"/>
  <path fill="#FF4267" d="M96.215 104.451s7.355 8.146 14.219 8.146c6.864 0 19.783-7.305 19.783-7.305l-3.088-8.493-15.013 5.397s-7.903-7.406-11.553-8.77c-3.645-1.365-6.307-1.355-6.307-1.355"/>
  <path stroke="#B22B19" stroke-miterlimit="10" stroke-width=".75" d="M104.123 110.724s-4.62-3.534-6.85-5.191m28.425-8.216 2.827 8.896M79.018 128.39h24.959"/>
  <path stroke="#B22B19" stroke-miterlimit="10" stroke-width=".75" d="M99.739 107.391c.24 7.159 0 23.073 0 23.073"/>
  <path fill="#FFCBBD" d="m88.477 87.737-.562 4.546s4.373 2.3 7.275-.146v-2.648l-6.713-1.752Z"/>
  <path fill="#FFCBBD" d="M94.417 80.603s5.111 6.464 3.243 8.855c-.969 1.244-4.142.947-5.653 0-1.12-.705-4.253-4.45-3.771-5.412 1.828-3.655 6.18-3.443 6.18-3.443Z"/>
  <path fill="#4A1A1A" d="M93.76 81.786c.084 2.618-.252 4.959-.252 4.959l-.392 8.503s-6.748.72-11.06-2.286c0 0 1.445-8.936 4.664-11.645 3.057-2.577 7.04-2.391 9.063-.724 0 0-.282.78-.658.961-.382.186-1.366.232-1.366.232Z"/>
  <path fill="#FFCBBD" d="M94.2 85.889c-.622-.796-1.129-.67-1.405-.232-.367.58.371 1.788.713 1.994.698.418 1.26.373 1.315-.191"/>
  <path stroke="#E88872" stroke-linejoin="round" stroke-miterlimit="10" stroke-width=".5" d="M95.246 90.259c-.739 0-.974-.62-.974-.62"/>
  <path fill="#28364C" d="M95.757 83.88c.216.181.417.504.297.74-.035.066-.1.1-.17.09-.483-.04-.573-1.203-.127-.83Z"/>
  <path stroke="#28364C" stroke-linecap="round" stroke-miterlimit="10" stroke-width=".5" d="M95.697 82.999c-.482 0-.783.378-.964.76"/>
  <path fill="#fff" d="m96.149 87.218 1.135-.368s.447 1.4-.086 1.581c-.582.202-1.05-1.213-1.05-1.213Z"/>
  <path fill="#4A1A1A" d="M89.958 79.802c.452-.116.763-.589.753-1.052-.015-.468-.316-.901-.728-1.118-.411-.221-.909-.242-1.355-.116a1.448 1.448 0 0 0-.482.222c-.583.433-.568 1.364-.156 1.963.17.242.402.459.693.524.286.065.884-.035 1.225-.237"/>
  <path fill="#FFCBBD" d="M96.3 83.81c.125.07 1.475.654 1.48 1.198.005.307-.743.64-.743.64m16.966 34.747c.804.866 1.07 1.722 1.396 2.422.015.03.03.065.03.101.005.161-.236.176-.386.115a3.165 3.165 0 0 1-.939-.558c-.111-.096-.216-.197-.342-.272-.231-.131-.502-.146-.768-.181-1.08-.136-2.164-.67-2.691-1.627"/>
  <path fill="#E88872" d="M114.004 120.395c.552.514.949 1.179 1.255 1.863l.236.504c.015.06.055.115.04.201-.015.091-.1.161-.161.181a.547.547 0 0 1-.351 0 3.273 3.273 0 0 1-1.004-.584c-.146-.131-.261-.246-.417-.307-.151-.06-.332-.085-.517-.111a4.26 4.26 0 0 1-1.11-.276c-.703-.282-1.351-.786-1.667-1.476.407.635 1.049 1.058 1.737 1.294.347.111.703.197 1.065.232.186.02.381.035.577.111.201.075.357.226.492.337.266.237.583.428.914.554.065.025.151.03.201.01.025-.01.025-.015.025-.015.005-.005-.015-.041-.02-.066-.08-.171-.146-.347-.216-.518-.271-.69-.607-1.355-1.079-1.934Z"/>
  <path fill="#FFCBBD" d="m28.482 192.333-.452 14.369.467 4.521 17.086-.091a.78.78 0 0 0 .778-.785c0-.322-.2-.614-.502-.73l-7.622-3.514 1.15-14.953"/>
  <path fill="#3629B7" d="M47.13 210.941c-.181-.569-.513-1.203-.849-1.349l-8.084-3.489c-4.453 1.812-10.222.428-10.222.428l-.442 6.101c0 .202.165.363.366.363l19.09-.101c.402-.005.146-1.938.14-1.953Z"/>
  <path stroke="#5565AA" stroke-miterlimit="10" stroke-width=".75" d="M39.95 206.45a9.868 9.868 0 0 0-1.14 1.918m2.159-1.309c-.467.65-.658 1.027-.94 1.631m1.799-1.183c-.316.428-.633 1.022-.879 1.496m-13.305 2.673 19.566-.106m-19.391-2.814s4.534.03 4.94 2.89m11.865-2.769s-1.305 1.862-1.562 2.718"/>
  <path fill="#ADBBF9" d="M30.063 140.911s9.078 17.062 11.96 27.795c2.882 10.729-.95 34.9-.95 34.9H26.946s2.817-26.23-.517-34.9c-3.334-8.669-15.274-31.475-15.274-31.475"/>
  <path stroke="#525BCE" stroke-miterlimit="10" stroke-width=".75" d="M28.878 203.601s2.314-27.287.909-34.029c-1.411-6.741-11.177-22.428-11.177-22.428"/>
  <path fill="#FFCBBD" d="m12.293 184.339-8.35 11.544-2.274 3.932 13.868 10.003a.782.782 0 0 0 1.11-1.062l-4.103-7.335 9.254-12.103"/>
  <path fill="#3629B7" d="M16.903 210.573c.186-.563.291-1.278.105-1.591l-4.488-7.587c-4.665-1.163-8.516-5.683-8.516-5.683l-3.936 4.672a.363.363 0 0 0 .085.508l15.495 11.177c.321.236 1.25-1.475 1.255-1.496Z"/>
  <path stroke="#5565AA" stroke-miterlimit="10" stroke-width=".75" d="M13.735 202.709a9.58 9.58 0 0 0-2.049.882m2.511.211c-.764.252-1.135.443-1.713.765m2.149.106c-.507.161-1.11.453-1.587.695M.715 199.679l15.887 11.458M2.568 197.418s3.645 2.699 2.3 5.251m11.222 4.763s-2.15.735-2.857 1.274"/>
  <path fill="#ADBBF9" d="M7.428 137.226c-2.69 7.647 0 13.663 0 13.663s9.174 16.81 9.174 20.224c0 3.131-11.77 20.984-11.77 20.984l10.76 8.674s16.901-18.24 16.585-30.861c-.397-15.607-8.867-32.684-8.867-32.684"/>
  <path stroke="#525BCE" stroke-miterlimit="10" stroke-width=".75" d="M9.437 137.729c-2.691 7.647.557 12.798.557 12.798s8.616 17.676 8.616 21.089c0 3.132-12.226 21.729-12.226 21.729m21.51-9.595c2.52-4.637 4.388-9.561 4.278-13.84-.397-15.607-8.867-32.684-8.867-32.684"/>
  <path stroke="#525BCE" stroke-miterlimit="10" stroke-width=".75" d="M8.553 143.725s4.8.282 6.683-3.59m11.719 5.8s1.315.146 1.19-.508c-.126-.655-1.19-4.169-1.19-4.169"/>
  <path fill="#FFCBBB" fill-rule="evenodd" d="M33.056 96.662c.492 3.082.105 5.805-2.521 6.218-2.626.408-6.271-.342-6.984-4.732-.502-3.081 1.235-5.916 3.86-6.324 2.627-.407 5.152 1.757 5.645 4.838Z" clip-rule="evenodd"/>
  <path fill="#28364C" d="M30.931 96.693c-.055.282-.005.674.246.785a.17.17 0 0 0 .196-.04c.357-.347-.326-1.334-.442-.745Z"/>
  <path stroke="#28364C" stroke-linecap="round" stroke-linejoin="round" stroke-miterlimit="10" stroke-width=".5" d="M30.058 95.993c.648-.353 1.265-.317 1.813-.126"/>
  <path fill="#fff" d="m32.639 99.89-1.713.005s-.1 1.424.749 1.575c.708.121.964-1.58.964-1.58Z"/>
  <path fill="#FFCBBB" fill-rule="evenodd" d="M29.144 106.258s-2.044.353-3.967-.171c-2.27-.619-2.912-1.546-2.912-1.546l3.143-6.58 4.85 2.206-1.114 6.091Z" clip-rule="evenodd"/>
  <path stroke="#EF977F" stroke-miterlimit="10" d="M29.752 102.961s-2.114.07-3.208-.972"/>
  <path fill="#FFCBBB" fill-rule="evenodd" d="M32.503 96.572s1.31 1.933 1.245 2.276c-.065.342-1.02.493-1.02.493" clip-rule="evenodd"/>
  <path fill="#14122D" d="M25.439 100.927c-.286.126-.628.176-.904.206a3.15 3.15 0 0 1-1.808-.312c-1.009-.529-1.656-1.732-1.43-2.855.035-.18.095-.362.125-.548.136-.861-.367-1.682-.507-2.543-.136-.835.08-1.712.552-2.416.467-.705 1.175-1.234 1.963-1.536.628-.242 1.316-.327 1.838-.78.241-.212.462-.448.738-.62 1.306-.825 3.168-.372 4.333.499.14.1.276.216.442.262.286.075.588-.046.879.015 1.12.226 1.612 1.883 1.601 2.875-.005.292-.075.594-.25.825-.252.338-.678.499-1.095.549-.582.07-1.185-.045-1.758.126-.401.12-.743.382-1.134.539-.598.241-1.3.216-1.883-.06.115.407.2.84.14 1.263-.12.79-.788 1.183-1.496 1.38.236.8.427 1.802.176 2.617-.08.247-.281.408-.522.514Z"/>
  <path fill="#FFCBBB" d="M26.408 97.146s-.628-.765-1.366-.151c-.954.795.286 2.512 1.044 2.794.754.282.98-.559.98-.559"/>
  <path fill="#FDD462" d="M69.401 108.817c4.907 8.939 1.641 20.207-7.301 25.161a18.41 18.41 0 0 1-8.674 2.325 18.527 18.527 0 0 1-5.61-.79 18.414 18.414 0 0 1-6.166-3.236 18.356 18.356 0 0 1-4.627-5.511c-.11-.199-.217-.404-.315-.609-4.443-8.836-1.123-19.709 7.616-24.552a18.438 18.438 0 0 1 8.058-2.305 18.408 18.408 0 0 1 6.926.995 18.259 18.259 0 0 1 4.048 1.987 18.211 18.211 0 0 1 5.698 5.942c.12.194.235.392.347.593Z"/>
  <path fill="#fff" d="m66.943 105.356-8.615 30.202a18.41 18.41 0 0 1-4.902.745l9.931-34.019a17.912 17.912 0 0 1 3.586 3.072Zm-14.558-6.058-9.81 33.665c-.313-.22-.623-.452-.925-.691l9.402-32.863c.444-.052.888-.09 1.333-.111Zm6.925.994-10.212 35.553a17.075 17.075 0 0 1-1.284-.339L58.1 99.916c.406.114.81.241 1.209.376Z" opacity=".3"/>
  <path fill="#F37E00" d="M66.15 110.621c.11.198.213.399.313.601 3.454 7.032.788 15.668-6.147 19.512-6.935 3.844-15.623 1.507-19.702-5.181-.115-.194-.23-.388-.34-.586-3.917-7.134-1.3-16.158 5.836-20.111 7.133-3.96 16.126-1.372 20.04 5.765Z"/>
  <path fill="#F7A219" d="M66.464 111.217c3.453 7.032.787 15.668-6.148 19.512-.154.084-.309.169-.466.246a14.695 14.695 0 0 1-11.084.931 14.62 14.62 0 0 1-5.036-2.746 14.598 14.598 0 0 1-3.118-3.614c-3.453-7.032-.787-15.668 6.148-19.512a14.747 14.747 0 0 1 2.704-1.165c.47-.148.945-.275 1.422-.376a14.728 14.728 0 0 1 7.067.258 14.76 14.76 0 0 1 4.419 2.103 14.575 14.575 0 0 1 3.473 3.435c.22.302.426.611.619.928Z"/>
  <path fill="#FBE6A1" d="m65.85 110.294-6.002 20.683a14.694 14.694 0 0 1-4.905 1.498l7.433-25.616a14.577 14.577 0 0 1 3.473 3.435Zm-14.96-5.795-7.158 24.663a15.13 15.13 0 0 1-1.036-.95l6.773-23.342c.466-.146.942-.273 1.421-.371Zm7.066.257-7.973 27.478c-.41-.089-.817-.199-1.218-.323l7.962-27.449c.415.079.823.175 1.229.294Z" opacity=".2"/>
  <path fill="#F37E00" fill-rule="evenodd" d="m51.856 117.393 3.868 1.196-.655 2.104-3.007-.93c-.05.947-.13 1.592-.237 1.936-.123.396-.46 1.042-1.012 1.937l.173.124c.245.18.468.346.67.497l.553.419c.913.745 1.61 1.191 2.09 1.34.368.114.73.084 1.084-.089.189-.093.41-.237.663-.432.253-.196.545-.445.874-.749l1.94 2.185c-.957 1.053-1.852 1.724-2.684 2.014-.846.304-1.766.303-2.76-.004-.72-.223-1.737-.816-3.052-1.779-1.26-.993-2.176-1.578-2.75-1.756-.471-.146-.879-.149-1.223-.01-.344.139-.8.517-1.367 1.134l-2.164-2.099c1.196-1.035 2.086-1.661 2.67-1.877.684-.269 1.501-.314 2.45-.134.417-.616.712-1.199.883-1.75a3.786 3.786 0 0 0 .089-1.869l-3.392-1.049.655-2.104 2.325.72c-.313-1.918-.287-3.466.08-4.645.534-1.712 1.63-2.972 3.29-3.78 1.678-.802 3.433-.919 5.267-.352 1.842.569 3.165 1.643 3.97 3.222.817 1.564.93 3.298.338 5.199l-3.284.187c.447-1.437.615-2.488.504-3.155-.21-1.319-1.017-2.196-2.421-2.631-1.037-.32-1.995-.244-2.875.229-.877.465-1.48 1.222-1.806 2.272-.274.877-.21 2.274.188 4.19.01.031.018.069.028.115l.037.174Z" clip-rule="evenodd"/>
  <path fill="#FDD462" fill-rule="evenodd" d="m51.158 117.13 3.868 1.196-.655 2.104-3.007-.93c-.051.947-.13 1.592-.237 1.936-.123.396-.46 1.042-1.012 1.937l.173.125c.244.179.468.345.67.497l.552.418c.914.745 1.61 1.192 2.09 1.34.369.114.73.084 1.085-.089a4.15 4.15 0 0 0 .663-.432c.253-.195.544-.445.874-.749l1.94 2.185c-.957 1.053-1.852 1.725-2.684 2.014-.846.305-1.766.303-2.76-.004-.72-.223-1.737-.816-3.053-1.779-1.259-.993-2.175-1.578-2.75-1.756-.47-.145-.878-.149-1.222-.01-.344.139-.8.517-1.367 1.134l-2.164-2.099c1.196-1.035 2.085-1.661 2.67-1.877.684-.269 1.5-.314 2.45-.133.417-.616.711-1.2.883-1.751a3.783 3.783 0 0 0 .089-1.868l-3.393-1.049.655-2.104 2.326.719c-.313-1.918-.287-3.466.08-4.645.533-1.712 1.63-2.972 3.29-3.779 1.677-.803 3.433-.92 5.266-.353 1.842.569 3.165 1.644 3.97 3.223.818 1.564.931 3.297.34 5.198l-3.285.188c.447-1.437.615-2.489.503-3.156-.209-1.319-1.016-2.196-2.42-2.63-1.037-.321-1.996-.245-2.875.228-.878.465-1.48 1.222-1.807 2.272-.273.878-.21 2.275.189 4.19.009.031.018.069.027.115l.038.174Z" clip-rule="evenodd"/>
  <path fill="#FFCBBD" d="M52.15 129.936c1.477.125 8.14.805 8.08 1.203-.056.382-2.31.508-2.225.715.12.292 1.817.549 2.786.604.86.05 2.235.272 2.26.649.05.72-4.67.388-4.67.388.016.216 5.142-.594 5.247.005.151.861-5.312 1.284-5.488 1.49 0 0 4.635-1.686 4.75-1.047.11.639-3.991 2.245-5.297 2.271 1.07-.222 4.223-2.004 4.303-1.536.08.463-2.706 1.677-3.158 1.752-3.73.619-7.547.252-7.547.252"/>
  <path fill="#3629B7" d="M29.23 105.835s-1.432.68-3.6-.261c-2.356-1.027-2.853-2.206-2.853-2.206s-12.773 1.133-17.443 36.667l26.155 3.252s2.104-12.702 1.767-22.977c-.21-6.545-2.746-11.64-4.027-14.475Z"/>
  <path fill="#3629B7" d="M21.553 120.058s4.021 13.513 14.887 16.438c9.68 2.602 17.227 2.592 17.227 2.592l1.054-9.107s-11.83-2.13-16.7-5.357c-3.705-2.457-4.428-10.336-5.367-13.12-1.3-3.866-3.43-5.664-3.43-5.664"/>
  <path stroke="#121649" stroke-miterlimit="10" stroke-width=".75" d="M21.738 103.64s.804 2.477 4.53 3.293c2.72.594 3.79-.222 3.79-.222m2.119 28.254s-9.907-4.586-10.439-17.585m30.784 12.158-1.33 9.445"/>
  <path fill="#3629B7" fill-rule="evenodd" d="M137.072 104.051c-1.991 1.595-3.248 3.952-3.537 6.636a10.936 10.936 0 0 0 1.538 6.874l-1.618.744-.455.209.473.157 3.763 1.247.249.082-.009-.276-.136-4.173-.018-.549-.313.437-.916 1.275a9.531 9.531 0 0 1-1.277-5.872c.249-2.311 1.328-4.337 3.037-5.705l.147-.118-.111-.156-.555-.776-.046-.066-.079-.011-.079-.01-.058.051Z" clip-rule="evenodd"/>
  <path fill="#FF4267" fill-rule="evenodd" d="M160.928 119.949c1.991-1.595 3.248-3.952 3.537-6.636a10.936 10.936 0 0 0-1.538-6.874l1.618-.744.455-.209-.473-.157-3.763-1.247-.249-.082.009.276.136 4.173.018.549.313-.437.916-1.275a9.531 9.531 0 0 1 1.277 5.872c-.249 2.311-1.328 4.337-3.037 5.705l-.147.118.111.156.555.776.047.067.078.01.079.01.058-.051Z" clip-rule="evenodd"/>
  <defs>
    <filter id="a" width="130.419" height="215.89" x="83.913" y="9.138" color-interpolation-filters="sRGB" filterUnits="userSpaceOnUse">
      <feFlood flood-opacity="0" result="BackgroundImageFix"/>
      <feColorMatrix in="SourceAlpha" result="hardAlpha" values="0 0 0 0 0 0 0 0 0 0 0 0 0 0 0 0 0 0 127 0"/>
      <feOffset dy="4"/>
      <feGaussianBlur stdDeviation="7.5"/>
      <feColorMatrix values="0 0 0 0 0 0 0 0 0 0 0 0 0 0 0 0 0 0 0.1 0"/>
      <feBlend in2="BackgroundImageFix" result="effect1_dropShadow_293_33197"/>
      <feBlend in="SourceGraphic" in2="effect1_dropShadow_293_33197" result="shape"/>
    </filter>
  </defs>
</svg>
